<?xml version="1.0" encoding="UTF-8" standalone="no"?>
<!-- Created with Inkscape (http://www.inkscape.org/) -->

<svg
   version="1.1"
   id="svg2"
   width="1786.0267"
   height="1360"
   viewBox="0 0 1786.0267 1360"
   sodipodi:docname="FIS_CRESCENDO_Logo_Horizontal_RGB.svg"
   inkscape:version="1.3 (0e150ed, 2023-07-21)"
   xmlns:inkscape="http://www.inkscape.org/namespaces/inkscape"
   xmlns:sodipodi="http://sodipodi.sourceforge.net/DTD/sodipodi-0.dtd"
   xmlns="http://www.w3.org/2000/svg"
   xmlns:svg="http://www.w3.org/2000/svg">
  <defs
     id="defs6">
    <clipPath
       clipPathUnits="userSpaceOnUse"
       id="clipPath16">
      <path
         d="M 0,1020 H 1339.521 V 0 H 0 Z"
         id="path14" />
    </clipPath>
  </defs>
  <sodipodi:namedview
     id="namedview4"
     pagecolor="#ffffff"
     bordercolor="#000000"
     borderopacity="0.25"
     inkscape:showpageshadow="2"
     inkscape:pageopacity="0.0"
     inkscape:pagecheckerboard="0"
     inkscape:deskcolor="#d1d1d1"
     inkscape:zoom="0.48523052"
     inkscape:cx="766.64592"
     inkscape:cy="610.01934"
     inkscape:window-width="1680"
     inkscape:window-height="997"
     inkscape:window-x="0"
     inkscape:window-y="25"
     inkscape:window-maximized="0"
     inkscape:current-layer="g8" />
  <g
     id="g8"
     inkscape:groupmode="layer"
     inkscape:label="FIS_CRESCENDO_Logo_Horizontal_RGB"
     transform="matrix(1.3333333,0,0,-1.3333333,0,1360)">
    <path
       d="m 312.3883,581.1231 h 1.254 c 7.697,0 11.547,8.137 11.547,24.411 0,16.273 -3.85,24.411 -11.547,24.411 h -1.254 z m -28.365,-96.947 v 168.987 h 28.365 c 12.298,0 22.214,-4.038 29.743,-12.111 7.532,-8.076 11.296,-19.058 11.296,-32.945 0,-33.898 -28.913,-37.775 -32.022,-41.5 -1.05,-1.259 -0.941,-3.068 0.119,-4.318 2.67,-3.15 30.649,-4.371 30.649,-29.973 v -42.422 c 0,-3.096 0.439,-5.584 1.317,-7.467 0.879,-1.882 1.735,-3.074 2.572,-3.576 l 1.256,-0.628 v -2.51 h -21.839 c -3.933,0 -6.838,1.15 -8.721,3.452 -1.883,2.299 -2.823,6.295 -2.823,11.985 v 43.675 c 0,8.535 -3.85,12.802 -11.547,12.802 v -63.451 z"
       style="fill:#00d586;fill-opacity:1;fill-rule:nonzero;stroke:none"
       id="path32" />
    <path
       d="m 442.303,525.2794 h 35.377 l 0.299,-20.41 c 0,-21.571 3.374,-32.303 10.122,-32.191 2.986,0 5.17,1.52 6.554,4.564 1.381,3.04 2.074,8.877 2.074,17.505 0,8.628 -1.881,17.173 -5.642,25.637 -3.761,8.463 -8.297,16.316 -13.606,23.562 -5.311,7.245 -10.619,14.74 -15.93,22.485 -5.309,7.74 -9.847,16.701 -13.606,26.879 -3.763,10.176 -5.642,20.909 -5.642,32.191 0,19.689 4.315,34.817 12.943,45.382 8.628,10.563 19.581,15.847 32.855,15.847 13.164,0 24.115,-5.035 32.855,-15.1 8.736,-10.067 13.108,-23.728 13.108,-40.986 v -27.212 h -35.622 l -0.052,20.41 c 0,21.57 -3.432,32.357 -10.289,32.357 -2.988,0 -5.144,-1.552 -6.471,-4.647 -1.328,-3.098 -1.992,-9.017 -1.992,-17.756 0,-10.397 2.847,-20.989 8.545,-31.773 5.697,-10.787 11.947,-20.218 18.752,-28.291 6.803,-8.076 13.025,-18.447 18.668,-31.113 5.64,-12.668 8.461,-25.803 8.461,-39.409 0,-19.691 -4.313,-34.793 -12.943,-45.3 -8.628,-10.511 -19.637,-15.764 -33.02,-15.764 -13.166,0 -24.089,5.034 -32.773,15.099 -8.684,10.066 -13.025,23.674 -13.025,40.821 z"
       style="fill:#00d586;fill-opacity:1;fill-rule:nonzero;stroke:none"
       id="path36" />
    <path
       d="m 408.9898,643.0228 h 25.906 v 24.317 h -49.606 l -16.555,-16.554 v -172.59 l 16.66,-16.659 h 49.501 v 22.615 h -25.906 c -6.198,0 -11.223,5.024 -11.223,11.223 v 55.86 h 28.374 v 29.278 h -28.374 v 51.287 c 0,6.198 5.025,11.223 11.223,11.223"
       style="fill:#00d586;fill-opacity:1;fill-rule:nonzero;stroke:none"
       id="path44" />
    <path
       d="m 662.7632,638.0608 h 24.347 v 29.279 h -49.606 l -16.555,-16.554 v -172.59 l 16.66,-16.659 h 49.501 v 28.933 h -24.347 c -6.198,0 -11.223,5.025 -11.223,11.223 v 49.542 h 26.815 v 29.278 h -26.815 v 46.325 c 0,6.198 5.025,11.223 11.223,11.223"
       style="fill:#00d586;fill-opacity:1;fill-rule:nonzero;stroke:none"
       id="path48" />
    <path
       d="m 584.5413,527.6923 c 0,-8.698 -0.281,-15.263 -0.838,-19.691 -0.56,-4.429 -1.198,-7.163 -1.916,-8.199 -0.719,-1.038 -1.816,-1.557 -3.292,-1.557 -1.478,0 -2.675,1.018 -3.592,3.053 -0.916,2.035 -1.777,8.2 -2.572,18.493 -0.53,6.824 -0.879,15.71 -1.057,26.567 -0.091,5.521 -0.14,11.517 -0.14,18.08 0,6.767 0.051,12.942 0.147,18.601 0.181,10.623 0.528,19.33 1.05,26.046 0.795,10.295 1.656,16.46 2.572,18.494 0.917,2.035 2.114,3.053 3.592,3.053 1.476,0 2.573,-0.539 3.292,-1.616 0.718,-1.078 1.356,-3.813 1.916,-8.2 0.557,-4.389 0.838,-10.933 0.838,-19.63 l 0.146,-20.584 h 26.904 v 22.979 c 0,16.197 -2.993,28.427 -8.977,36.686 -5.985,8.26 -13.646,12.388 -22.981,12.388 -5.507,0 -10.436,-1.297 -14.783,-3.889 -4.351,-2.594 -8.318,-7.044 -11.911,-13.347 -3.59,-6.305 -6.364,-15.423 -8.318,-27.35 -1.396,-8.507 -2.282,-18.368 -2.682,-29.532 -0.16,-4.493 -0.25,-9.176 -0.25,-14.099 0,-4.724 0.081,-9.23 0.229,-13.557 0.39,-11.39 1.285,-21.428 2.703,-30.072 1.954,-11.931 4.728,-21.048 8.318,-27.351 3.593,-6.306 7.542,-10.754 11.851,-13.347 4.309,-2.592 9.255,-3.891 14.843,-3.891 9.335,0 16.996,4.109 22.981,12.329 5.984,8.22 8.977,20.428 8.977,36.629 v 26.333 h -27.096 z"
       style="fill:#00d586;fill-opacity:1;fill-rule:nonzero;stroke:none"
       id="path56" />
    <path
       d="m 250.9201,533.6276 c 0,-7.293 -0.235,-12.797 -0.703,-16.51 -0.469,-3.714 -1.004,-6.007 -1.607,-6.875 -0.602,-0.87 -1.521,-1.306 -2.759,-1.306 -1.239,0 -2.243,0.854 -3.012,2.56 -0.769,1.707 -1.49,6.875 -2.157,15.506 -0.444,5.722 -0.737,13.173 -0.886,22.276 -0.076,4.629 -0.118,9.657 -0.118,15.16 0,5.673 0.043,10.851 0.124,15.596 0.152,8.907 0.443,16.208 0.88,21.839 0.667,8.632 1.388,13.801 2.157,15.507 0.769,1.707 1.773,2.56 3.012,2.56 1.238,0 2.157,-0.452 2.759,-1.355 0.603,-0.904 1.138,-3.197 1.607,-6.876 0.468,-3.68 0.703,-9.167 0.703,-16.459 l 0.122,-14.648 h 22.559 v 16.656 c 0,13.581 -2.509,23.835 -7.527,30.761 -5.018,6.925 -11.442,10.387 -19.27,10.387 -4.617,0 -8.749,-1.088 -12.394,-3.262 -3.649,-2.174 -6.975,-5.905 -9.987,-11.19 -3.01,-5.287 -5.336,-12.932 -6.975,-22.933 -1.17,-7.133 -1.913,-15.401 -2.248,-24.762 -0.135,-3.767 -0.21,-7.693 -0.21,-11.821 0,-3.961 0.068,-7.739 0.192,-11.368 0.326,-9.55 1.077,-17.966 2.266,-25.214 1.639,-10.004 3.965,-17.648 6.975,-22.934 3.012,-5.287 6.323,-9.017 9.936,-11.19 3.613,-2.174 7.76,-3.263 12.445,-3.263 7.828,0 14.252,3.446 19.27,10.338 5.018,6.892 7.527,17.128 7.527,30.712 v 19.992 h -22.719 z"
       style="fill:#00d586;fill-opacity:1;fill-rule:nonzero;stroke:none"
       id="path60" />
  </g>
</svg>
