<?xml version="1.0" encoding="UTF-8" standalone="no"?>
<!-- Created with Inkscape (http://www.inkscape.org/) -->

<svg
   version="1.1"
   id="svg2"
   width="1786.0267"
   height="1360"
   viewBox="0 0 1786.0267 1360"
   sodipodi:docname="FIS_CRESCENDO_Logo_Horizontal_RGB-2.svg"
   inkscape:version="1.3 (0e150ed, 2023-07-21)"
   xmlns:inkscape="http://www.inkscape.org/namespaces/inkscape"
   xmlns:sodipodi="http://sodipodi.sourceforge.net/DTD/sodipodi-0.dtd"
   xmlns="http://www.w3.org/2000/svg"
   xmlns:svg="http://www.w3.org/2000/svg">
  <defs
     id="defs6">
    <clipPath
       clipPathUnits="userSpaceOnUse"
       id="clipPath16">
      <path
         d="M 0,1020 H 1339.521 V 0 H 0 Z"
         id="path14" />
    </clipPath>
  </defs>
  <sodipodi:namedview
     id="namedview4"
     pagecolor="#ffffff"
     bordercolor="#000000"
     borderopacity="0.25"
     inkscape:showpageshadow="2"
     inkscape:pageopacity="0.0"
     inkscape:pagecheckerboard="0"
     inkscape:deskcolor="#d1d1d1"
     inkscape:zoom="0.48523052"
     inkscape:cx="766.64592"
     inkscape:cy="610.01934"
     inkscape:window-width="1680"
     inkscape:window-height="997"
     inkscape:window-x="0"
     inkscape:window-y="25"
     inkscape:window-maximized="0"
     inkscape:current-layer="g8" />
  <g
     id="g8"
     inkscape:groupmode="layer"
     inkscape:label="FIS_CRESCENDO_Logo_Horizontal_RGB"
     transform="matrix(1.3333333,0,0,-1.3333333,0,1360)">
    <path
       d="m 800.48569,438.42551 c 1.887,-4.19 4.352,-6.285 7.395,-6.285 3.038,0 5.457,2.095 7.27,6.285 1.804,4.19 3.57,16.88 5.295,38.071 1.725,21.191 2.59,51.83 2.59,91.913 0,40.083 -0.865,70.722 -2.59,91.913 -1.725,21.195 -3.491,33.885 -5.295,38.075 -1.813,4.186 -4.232,6.281 -7.27,6.281 -3.043,0 -5.508,-2.095 -7.395,-6.281 -1.887,-4.19 -3.658,-16.88 -5.296,-38.075 -1.646,-21.191 -2.465,-51.83 -2.465,-91.913 0,-40.083 0.819,-70.722 2.465,-91.913 1.638,-21.191 3.409,-33.881 5.296,-38.071 m 36.346,-43.616 c -8.542,-5.337 -18.194,-8.01 -28.951,-8.01 -10.762,0 -20.455,2.673 -29.076,8.01 -8.625,5.337 -16.556,14.494 -23.781,27.476 -7.232,12.977 -12.856,31.744 -16.88,56.306 -4.028,24.558 -6.036,54.499 -6.036,89.818 0,35.319 2.008,65.26 6.036,89.822 4.024,24.553 9.648,43.325 16.88,56.306 7.225,12.974 15.156,22.135 23.781,27.472 8.621,5.339 18.314,8.01 29.076,8.01 10.757,0 20.409,-2.671 28.951,-8.01 8.542,-5.337 16.427,-14.498 23.66,-27.472 7.224,-12.981 12.848,-31.753 16.876,-56.306 4.024,-24.562 6.04,-54.503 6.04,-89.822 0,-35.319 -2.016,-65.26 -6.04,-89.818 -4.028,-24.562 -9.652,-43.329 -16.876,-56.306 -7.233,-12.982 -15.118,-22.139 -23.66,-27.476"
       style="fill:#00d586;fill-opacity:1;fill-rule:nonzero;stroke:none"
       id="path28" />
    <path
       d="m 652.95342,469.47731 h 1.894 c 2.276,0 4.138,0.502 5.592,1.515 1.451,1.011 3.032,3.379 4.738,7.109 1.706,3.725 2.999,9.031 3.885,15.918 0.884,6.887 1.64,16.613 2.276,29.188 0.629,12.57 0.947,27.638 0.947,45.203 0,17.561 -0.318,32.629 -0.947,45.201 -0.636,12.573 -1.392,22.269 -2.276,29.092 -0.886,6.823 -2.179,12.13 -3.885,15.92 -1.706,3.791 -3.287,6.19 -4.738,7.202 -1.454,1.011 -3.316,1.517 -5.592,1.517 h -1.894 z m -42.833,-36.959 v 271.782 h 42.833 c 9.856,0 18.508,-2.15 25.965,-6.444 7.455,-4.298 14.309,-11.437 20.565,-21.416 6.25297,-9.983 11.05497,-24.009 14.40297,-42.076 3.346,-18.069 5.023,-40.055 5.023,-65.954 0,-25.903 -1.677,-47.922 -5.023,-66.05 -3.348,-18.133 -8.15,-32.159 -14.40297,-42.077 -6.256,-9.919 -13.11,-17.028 -20.565,-21.321 -7.457,-4.297 -16.109,-6.444 -25.965,-6.444 z"
       style="fill:#00d586;fill-opacity:1;fill-rule:nonzero;stroke:none"
       id="path40" />
    <path
       d="m 553.17551,690.70121 8.458,-137.943 -4.879,-0.56 -22.567,132.061 h -24.664 l -14.994,-12.948 v -205.804 l 12.773,-10.84 h 26.885 l -7.489,133.491 2.462,0.267 24.005,-142.307 h 39.501 v 244.583 z"
       style="fill:#00d586;fill-opacity:1;fill-rule:nonzero;stroke:none"
       id="path52" />
  </g>
</svg>
