<?xml version="1.0" encoding="UTF-8" standalone="no"?>
<!-- Created with Inkscape (http://www.inkscape.org/) -->

<svg
   width="200mm"
   height="200mm"
   viewBox="0 0 200 200"
   version="1.1"
   id="svg1"
   inkscape:version="1.3 (0e150ed, 2023-07-21)"
   sodipodi:docname="jousting.svg"
   xmlns:inkscape="http://www.inkscape.org/namespaces/inkscape"
   xmlns:sodipodi="http://sodipodi.sourceforge.net/DTD/sodipodi-0.dtd"
   xmlns="http://www.w3.org/2000/svg"
   xmlns:svg="http://www.w3.org/2000/svg">
  <sodipodi:namedview
     id="namedview1"
     pagecolor="#ffffff"
     bordercolor="#000000"
     borderopacity="0.25"
     inkscape:showpageshadow="2"
     inkscape:pageopacity="0.0"
     inkscape:pagecheckerboard="0"
     inkscape:deskcolor="#d1d1d1"
     inkscape:document-units="mm"
     inkscape:zoom="0.84096521"
     inkscape:cx="449.48352"
     inkscape:cy="335.32897"
     inkscape:window-width="1680"
     inkscape:window-height="997"
     inkscape:window-x="0"
     inkscape:window-y="25"
     inkscape:window-maximized="0"
     inkscape:current-layer="layer1" />
  <defs
     id="defs1">
    <rect
       x="87.994128"
       y="139.12585"
       width="740.81544"
       height="499.42613"
       id="rect1" />
    <rect
       x="87.994125"
       y="139.12585"
       width="642.11932"
       height="566.01628"
       id="rect1-5" />
  </defs>
  <g
     inkscape:label="Layer 1"
     inkscape:groupmode="layer"
     id="layer1">
    <path
       d="m 115.85549,163.60594 c 0,-0.98133 -0.17066,-1.96267 -0.46933,-2.944 -0.81067,-2.60267 -2.47467,-4.736 -4.992,-6.31467 -2.176,-1.408 -4.77867,-2.304 -7.76534,-2.64534 -2.51734,1.83467 -4.736005,3.41334 -6.656007,4.69334 -2.304001,1.536 -4.565336,2.98667 -6.826672,4.30934 -0.853333,2.60267 -1.28,5.16267 -1.28,7.76534 0,1.87733 0.298666,3.62667 0.896,5.248 0.725334,1.92 1.920002,3.49867 3.584003,4.69334 1.664001,1.152 3.541336,1.74933 5.589337,1.74933 3.711999,0 7.509339,-1.70667 11.434679,-5.12 4.30933,-3.79734 6.48533,-7.63734 6.48533,-11.43468 z m -5.76,-2.85867 c -1.23733,1.408 -2.56,2.09067 -4.05334,2.09067 -1.49333,0 -2.98666,-0.68267 -4.52267,-2.00533 v -4.86401 c 4.18134,0.768 7.04001,2.34667 8.57601,4.77867 z m 1.664,4.77867 c 0,0.81067 -0.21333,1.83467 -0.68267,3.11467 -1.57866,-1.408 -3.15733,-2.09067 -4.736,-2.09067 -1.49333,0 -3.11467,0.55467 -4.77867,1.62134 v -6.10134 c 1.408,0.896 2.85867,1.36534 4.30934,1.36534 1.664,0 3.24267,-0.64001 4.736,-1.92001 0.768,1.23734 1.152,2.60267 1.152,4.01067 z m -1.06667,4.26667 c -2.34666,4.52267 -5.376,6.78401 -9.17334,6.78401 v -7.21067 c 1.62134,-1.408 3.20001,-2.13334 4.69334,-2.13334 1.664,0 3.15734,0.85334 4.48,2.56 z m -10.19734,6.78401 c -1.962665,0 -3.925333,-0.98134 -5.930668,-2.98667 2.005335,-2.13334 3.157336,-3.49867 3.456003,-4.05334 0.512,-0.896 0.768,-1.92 0.768,-3.072 V 155.8406 h 1.706665 z m -5.418667,-7.63734 c 0,1.45067 -0.384001,2.77333 -1.109335,3.92534 -1.749334,-2.04801 -2.602668,-4.26667 -2.602668,-6.65601 0,-3.02933 1.237334,-5.80267 3.712003,-8.32001 z m 39.295947,7.89334 -0.42667,-0.42667 -0.896,0.512 c -0.55466,-0.384 -0.98133,-0.85333 -1.19466,-1.36533 v -11.22134 c 0.59733,-0.98134 1.23733,-1.87734 1.87733,-2.68801 l -0.42667,-0.46933 -1.83466,1.45067 -2.94401,-2.73067 c -1.23733,1.152 -3.072,2.64533 -5.46133,4.39467 0,-1.92 -0.896,-3.41334 -2.68801,-4.48 l -3.49866,3.2 0.42666,0.46933 0.68267,-0.46933 c 0.68267,0.55467 1.024,1.23733 1.024,1.96267 v 10.96534 l -1.19467,1.32267 3.24267,2.73066 3.072,-2.73066 -1.152,-1.45067 v -10.58134 l 3.02934,-2.21867 1.92,1.664 v 10.19734 c 0,2.56 0.55467,3.79734 2.60267,5.12 z m 41.34393,-13.65334 c 0,-0.98134 -0.0853,-2.09067 -0.29867,-3.37067 -0.29867,-2.00534 -1.10934,-3.62667 -2.38934,-4.94934 -1.36533,-1.408 -3.02933,-2.09067 -4.992,-2.09067 -2.176,0 -4.736,1.06667 -7.68001,3.15734 -0.72533,-2.43201 -2.85866,-4.05334 -5.41867,-4.05334 -1.024,0 -2.176,0.29867 -3.41333,0.896 v 0.21333 h 0.21333 c 3.11467,0 4.26667,1.49334 4.13867,4.69334 l -0.0853,2.98667 c -0.768,-0.29867 -1.70667,-0.42667 -2.816,-0.42667 -0.59734,0 -1.10934,0.0853 -1.57867,0.29867 1.57867,0.72533 2.688,1.45067 3.328,2.26133 0.768,0.93867 1.152,2.21867 1.152,3.79734 l -0.0853,0.46933 c -1.024,-0.512 -2.21867,-0.768 -3.58401,-0.768 h -0.93866 v 0.17067 c 1.664,0.72533 2.944,1.87734 3.92533,3.37067 0.46934,0.81067 0.72534,1.83467 0.68267,3.11467 l -0.0427,1.408 c -1.70666,0 -3.15733,0.46933 -4.30933,1.36533 -1.28,0.98134 -1.92,2.34667 -1.92,4.01067 0,1.57867 0.59733,2.98667 1.74933,4.13867 1.152,1.152 2.56,1.74934 4.18134,1.74934 1.152,0 2.26133,-0.256 3.328,-0.768 2.944,-1.45067 5.16267,-2.56 6.61334,-3.328 0.34133,-0.17067 0.64,-0.256 0.85333,-0.256 0.29867,0 0.512,0.0853 0.55467,0.29866 0.0427,0.0427 0.128,0.17067 0.17067,0.384 0,0.256 -0.17067,0.64 -0.46934,1.19467 l -0.17066,0.72533 c 0,0.81067 0.34133,1.32267 1.024,1.53601 l 0.68266,0.128 c 0.98134,0 1.49334,-0.64001 1.49334,-1.92001 0,-0.768 -0.256,-1.408 -0.72534,-1.96266 -0.896,-0.98134 -2.09066,-1.49334 -3.584,-1.49334 -1.024,0 -2.64533,0.384 -4.864,1.19467 -1.57867,0.59733 -3.2,1.19467 -4.77867,1.83467 l -1.19467,0.0427 c -2.34667,0.0427 -4.05334,-1.36533 -4.05334,-3.584 0,-1.57867 0.72534,-2.73067 2.17601,-3.456 1.152,-0.59734 2.56,-0.896 4.26667,-0.896 h 7.25333 c 7.50934,0 11.60535,-4.60801 11.60535,-12.11734 z m -5.20534,-2.51734 c -1.45067,1.06667 -2.73067,1.62133 -3.84,1.62133 -1.15201,0 -2.34667,-0.46933 -3.62667,-1.45066 v -5.33334 c 1.024,-0.384 1.87733,-0.59733 2.56,-0.59733 2.64533,0 4.26667,1.92 4.90667,5.76 z m 0.34133,3.79734 c 0,0.64 -0.0853,1.664 -0.256,3.11467 -1.408,-0.85334 -2.77333,-1.28001 -4.096,-1.28001 -1.23734,0 -2.34667,0.34134 -3.41334,1.024 v -5.376 c 1.10934,0.68267 2.26134,1.024 3.41334,1.024 1.36533,0 2.73067,-0.512 4.13867,-1.49333 0,0.68266 0.21333,2.304 0.21333,2.98667 z m -0.46933,3.968 c -0.55467,2.176 -1.45067,3.84 -2.77334,4.992 -0.85333,0.72534 -2.176,1.10934 -3.968,1.10934 h -0.59733 v -6.31467 c 1.152,-0.81067 2.304,-1.23734 3.54133,-1.23734 1.23734,0 2.51734,0.46933 3.79734,1.45067 z m -8.27734,6.10134 h -1.92 v -17.62135 l 1.92,-0.896 z m 27.05066,-9.21601 -5.504,-5.504 c -1.87734,1.32266 -3.79734,2.47466 -5.76001,3.37067 v 11.392 c 0,1.23734 -0.384,2.26134 -1.19466,3.11467 2.048,0.384 4.01066,1.10934 5.888,2.13334 l 3.712,-2.60267 c 0.85334,-0.59733 1.62134,-1.10934 2.34667,-1.57867 l -0.46933,-0.512 -2.816,1.792 -3.58401,-1.57867 v -4.43733 c 1.83467,-1.57867 4.26667,-3.41334 7.38134,-5.58934 z m -3.37067,1.408 -4.05333,3.2 v -7.33867 z m 20.22394,10.06934 -0.46933,-0.384 -0.768,0.384 c -0.55467,-0.17066 -0.98133,-0.59733 -1.19467,-1.32267 v -11.17867 c 0.29867,-1.152 0.768,-2.21867 1.45067,-3.28534 l -0.0853,-0.17066 -1.19467,0.93866 -6.05867,-2.00533 c -1.32267,1.23733 -2.816,1.792 -4.39467,1.664 l -0.55467,-0.0427 2.048,5.33334 c -2.816,2.51734 -4.224,5.07734 -4.224,7.72267 0,1.74934 1.024,3.58401 3.02934,5.46134 h 0.21333 l 5.80267,-4.65067 c 0,2.09067 0.896,3.62667 2.73067,4.608 z m -6.4,-8.02134 -4.39467,-2.13333 -1.792,-4.86401 6.18667,2.30401 z m 0.0427,5.37601 -3.20001,2.73067 c -1.664,-1.66401 -2.47466,-3.45601 -2.47466,-5.37601 0,-1.32267 0.42666,-2.73067 1.23733,-4.18134 l 4.43734,2.21867 z m 21.12001,-11.26401 -2.77333,-3.02934 -4.30934,3.28534 c -0.128,-0.896 -0.42667,-1.57867 -0.85333,-2.048 -0.34134,-0.384 -0.93867,-0.81067 -1.83467,-1.28 l -3.62667,3.2 0.46933,0.46933 0.72534,-0.46933 c 0.68266,0.55467 1.024,1.23733 1.024,1.96267 v 8.576 c 0,1.408 -0.384,2.432 -1.152,3.07201 2.00533,0.768 3.84,1.83466 5.46133,3.24266 l 3.88267,-3.328 -0.512,-0.512 -1.23733,0.896 -2.304,-1.792 v -11.05067 l 1.664,-1.28001 2.56,2.51734 z m 28.37323,13.82401 v -13.90935 c -1.83467,-0.256 -4.096,-1.23733 -6.78401,-2.98666 -1.74933,1.62133 -3.75467,2.77333 -6.05867,3.41333 v 10.11201 c 0,1.57867 -0.384,2.64533 -1.152,3.28534 2.85867,0.59733 5.41867,1.70666 7.68001,3.37066 1.664,-1.408 3.75467,-2.51733 6.31467,-3.28533 z m -4.01067,-0.0853 c -0.46933,-0.128 -1.10933,-0.34134 -1.87734,-0.64001 -1.06666,-0.384 -2.09066,-0.81066 -3.02933,-1.19466 v -11.77601 l 4.90667,1.87733 z m 18.09065,-0.55467 -0.46934,-0.512 -1.45067,1.19467 -3.072,-1.96267 v -12.20268 h 2.90134 l 0.29866,-2.176 h -3.2 v -4.352 l 3.66934,0.768 0.85333,-2.94401 -4.096,-0.98133 c -1.664,1.49334 -3.2,2.51734 -4.65067,3.15734 v 4.352 h -1.87734 l -0.384,2.176 h 2.17601 v 10.96534 c 0,1.32267 -0.34134,2.34667 -1.06667,3.07201 2.51733,0.98133 4.56533,2.048 6.144,3.24266 z m 29.09861,0.64 v -13.90935 c -1.83467,-0.256 -4.09601,-1.23733 -6.78401,-2.98666 -1.74933,1.62133 -3.75467,2.77333 -6.05867,3.41333 v 10.11201 c 0,1.57867 -0.384,2.64533 -1.152,3.28534 2.85867,0.59733 5.41867,1.70666 7.68001,3.37066 1.664,-1.408 3.75467,-2.51733 6.31467,-3.28533 z m -4.01067,-0.0853 c -0.46934,-0.128 -1.10934,-0.34134 -1.87734,-0.64001 -1.06666,-0.384 -2.09066,-0.81066 -3.02933,-1.19466 v -11.77601 l 4.90667,1.87733 z m 24.0213,0.21333 -0.42667,-0.42667 -0.768,0.512 c -0.85333,-0.46933 -1.28,-0.896 -1.28,-1.36533 v -12.16001 l 1.23734,-1.06667 -3.15734,-2.51733 -3.02934,2.51733 1.02401,1.28 v 10.70934 l -3.45601,2.47467 c -1.024,-0.55467 -1.536,-1.23733 -1.536,-2.048 v -11.34934 l 1.28,-1.024 -3.24267,-2.51734 -4.096,3.15734 0.42667,0.46933 0.98133,-0.59733 0.768,0.72533 v 11.26401 c 0,2.13334 0.896,3.79734 2.688,4.94934 l 6.10134,-4.35201 c 0,1.79201 0.896,3.28534 2.688,4.52267 z m 14.8053,-13.95201 -2.77333,-3.02934 -4.30934,3.28534 c -0.128,-0.896 -0.42667,-1.57867 -0.85333,-2.048 -0.34134,-0.384 -0.93867,-0.81067 -1.83467,-1.28 l -3.62667,3.2 0.46933,0.46933 0.72534,-0.46933 c 0.68266,0.55467 1.024,1.23733 1.024,1.96267 v 8.576 c 0,1.408 -0.384,2.432 -1.152,3.07201 2.00533,0.768 3.84,1.83466 5.46133,3.24266 l 3.88267,-3.328 -0.512,-0.512 -1.23733,0.896 -2.304,-1.792 v -11.05067 l 1.664,-1.28001 2.56,2.51734 z m 39.33857,13.39734 -0.64,-0.59733 c -0.72533,0.64 -1.19467,0.93867 -1.45067,0.93867 -0.17066,0 -0.46933,-0.128 -0.85333,-0.38401 -0.64,-0.42666 -1.152,-0.72533 -1.536,-0.93866 -1.152,-0.64 -2.47467,-0.93867 -4.01067,-0.93867 -1.57867,0 -3.62667,0.384 -6.22934,1.19467 l -0.0853,-0.17067 c 2.432,-1.74933 4.096,-3.49867 5.03467,-5.33334 0.98133,-1.83466 1.45067,-4.26667 1.45067,-7.25334 v -2.00533 c 0,-0.46933 -0.0427,-1.152 -0.17067,-2.048 -0.128,-0.93867 -0.17067,-1.62134 -0.17067,-2.09067 0,-2.60267 1.32267,-4.096 3.96801,-4.48 l -0.0853,-0.29867 c -2.51733,0 -4.352,0.512 -5.54667,1.57867 -1.23733,1.152 -1.87733,2.944 -1.87733,5.41867 l 0.0427,0.384 c 0,0.81067 0.0427,1.96267 0.128,3.54133 0.128,1.57867 0.17067,2.73067 0.17067,3.54134 0,2.38934 -0.512,4.43734 -1.49333,6.18667 -0.896,1.49334 -2.34667,3.02934 -4.43734,4.69334 l -0.128,-0.128 c 1.36533,-2.09067 2.26133,-3.75467 2.73067,-4.90667 0.59733,-1.57867 0.896,-3.37067 0.896,-5.46134 0,-0.64 -0.0853,-2.09067 -0.0853,-2.73067 0,-0.55466 -0.0427,-1.32267 -0.17067,-2.38933 -0.128,-1.06667 -0.17067,-1.83467 -0.17067,-2.34667 0,-2.77334 1.152,-5.12 3.49867,-7.12534 l -0.128,-0.21333 c -0.896,0.384 -1.45067,0.59733 -1.57867,0.64 -0.59733,0.17066 -1.19466,0.256 -1.74933,0.256 -0.46934,0 -1.28,-0.17067 -2.47467,-0.512 -1.152,-0.384 -2.13334,-0.55467 -2.85867,-0.55467 h -0.34133 c -2.64534,0 -4.30934,1.49333 -4.94934,4.48 l 0.29867,0.256 c 0.81066,-1.23733 1.664,-1.83466 2.51733,-1.83466 0.384,0 0.98134,0.128 1.87734,0.34133 0.896,0.21333 1.57867,0.34133 2.048,0.34133 1.28,0 2.56,-0.384 3.79733,-1.152 -1.152,1.32267 -2.00533,2.56 -2.56,3.75467 -0.59733,1.32267 -0.85333,2.688 -0.81066,4.01067 l 0.0853,2.048 c -0.34133,-0.128 -0.59733,-0.17066 -0.768,-0.17066 h -0.72534 c -1.408,0 -2.34666,0.59733 -2.85866,1.74933 l 1.024,-0.0427 c 2.176,-0.128 3.62667,1.23734 3.62667,3.32801 l -0.0427,0.256 c -0.55467,-0.128 -1.10933,-0.21334 -1.62134,-0.21334 -0.68266,0 -1.32266,0.256 -1.92,0.768 2.38934,0.29867 3.58401,1.49334 3.58401,3.54134 v 0.384 c -0.29867,1.92 -1.83467,3.968 -4.60801,6.144 l 0.256,0.42667 c 3.37067,-1.57867 6.40001,-2.38933 9.08801,-2.38933 3.11467,0 5.888,0.98133 8.32001,2.98666 z m 15.14666,0.42667 v -13.90935 c -1.83467,-0.256 -4.096,-1.23733 -6.784,-2.98666 -1.74934,1.62133 -3.75467,2.77333 -6.05868,3.41333 v 10.11201 c 0,1.57867 -0.384,2.64533 -1.152,3.28534 2.85867,0.59733 5.41867,1.70666 7.68001,3.37066 1.664,-1.408 3.75467,-2.51733 6.31467,-3.28533 z m -4.01067,-0.0853 c -0.46933,-0.128 -1.10933,-0.34134 -1.87733,-0.64001 -1.06667,-0.384 -2.09067,-0.81066 -3.02934,-1.19466 v -11.77601 l 4.90667,1.87733 z m 19.92533,-13.73868 -2.77334,-3.02934 -4.30933,3.28534 c -0.128,-0.896 -0.42667,-1.57867 -0.85334,-2.048 -0.34133,-0.384 -0.93866,-0.81067 -1.83466,-1.28 l -3.62667,3.2 0.46933,0.46933 0.72533,-0.46933 c 0.68267,0.55467 1.02401,1.23733 1.02401,1.96267 v 8.576 c 0,1.408 -0.38401,2.432 -1.15201,3.07201 2.00534,0.768 3.84001,1.83466 5.46134,3.24266 l 3.88267,-3.328 -0.512,-0.512 -1.23733,0.896 -2.304,-1.792 v -11.05067 l 1.664,-1.28001 2.56,2.51734 z m 15.44526,-0.21334 c 0,-0.64 0.128,-1.23733 0.34134,-1.83466 -0.72534,0.29866 -1.32267,0.768 -1.70667,1.408 l -12.97068,-8.27734 v 4.05333 l 5.41867,3.49867 c -1.57866,0.81067 -2.85867,1.36534 -3.88267,1.62134 v 10.19734 c 0,1.49333 -0.384,2.56 -1.19466,3.28534 2.816,0.59733 5.376,1.70666 7.68,3.37066 1.74934,-1.408 3.84,-2.47466 6.31467,-3.28533 z m -4.05333,13.95202 -4.77867,-1.70667 v -11.64801 l 1.408,-0.85334 3.37067,2.26134 z m 37.46131,-0.29867 c -1.92,-1.06667 -4.05333,-1.57867 -6.4,-1.57867 -2.34667,0 -5.20534,0.64 -8.53334,1.87734 1.32267,-1.79201 3.41333,-3.58401 6.272,-5.33334 3.072,-1.92 4.99201,-3.28534 5.80267,-4.13867 1.70667,-1.83467 2.56001,-4.22401 2.56001,-7.21067 v -0.896 l -9.13068,-5.63201 -7.33867,5.97334 2.60267,2.64533 7.21067,-5.71733 c 1.57867,1.408 2.34667,3.02933 2.34667,4.90667 0,1.152 -0.34133,2.34667 -0.98134,3.584 -0.72533,1.32267 -1.792,2.64533 -3.2,3.968 -1.23733,1.152 -2.51733,2.26134 -3.79733,3.37067 -2.64534,2.38934 -4.22401,4.94934 -4.77867,7.68001 2.60266,-0.98134 5.03467,-1.45067 7.296,-1.45067 2.21867,0 4.56534,0.46933 7.08267,1.45067 z m 18.26129,-10.06934 -0.0427,-1.10934 c -0.0427,-0.55466 -0.0853,-1.10933 -0.17067,-1.664 -0.384,-2.432 -1.36533,-4.48 -2.90133,-6.144 -1.28,-1.32267 -3.15734,-2.64534 -5.67467,-3.92534 -5.63201,3.88267 -8.44801,8.49067 -8.44801,13.90934 v 0.81067 c 0,2.77334 0.93867,5.33334 2.816,7.68001 1.45067,1.792 3.54134,3.15733 6.31467,4.05333 2.60267,-2.176 4.56534,-4.18133 5.80268,-6.05867 1.536,-2.34667 2.304,-4.864 2.304,-7.552 z m -2.77334,2.00533 c 0,2.98667 -0.896,5.63201 -2.64533,7.97867 -2.00534,-0.46933 -3.71201,-1.36533 -5.12001,-2.60266 -2.432,-2.17601 -3.968,-5.80267 -3.968,-9.17334 0,-2.47467 0.93867,-5.07734 2.816,-7.76534 2.048,0.55466 3.84,1.536 5.41867,2.944 2.34667,2.13333 3.49867,4.992 3.49867,8.61867 z m 21.11999,8.06401 c -1.92,-1.06667 -4.05333,-1.57867 -6.4,-1.57867 -2.34667,0 -5.20534,0.64 -8.53334,1.87734 1.32267,-1.79201 3.41333,-3.58401 6.272,-5.33334 3.07201,-1.92 4.99201,-3.28534 5.80267,-4.13867 1.70667,-1.83467 2.56001,-4.22401 2.56001,-7.21067 v -0.896 l -9.13068,-5.63201 -7.33867,5.97334 2.60267,2.64533 7.21067,-5.71733 c 1.57867,1.408 2.34667,3.02933 2.34667,4.90667 0,1.152 -0.34133,2.34667 -0.98133,3.584 -0.72534,1.32267 -1.79201,2.64533 -3.20001,3.968 -1.23733,1.152 -2.51733,2.26134 -3.79733,3.37067 -2.64534,2.38934 -4.22401,4.94934 -4.77867,7.68001 2.60267,-0.98134 5.03467,-1.45067 7.296,-1.45067 2.21867,0 4.56534,0.46933 7.08267,1.45067 z m 18.90129,-5.03467 -0.85334,-3.11467 h -3.584 v -10.32534 c 0,-1.83467 -1.024,-3.28534 -3.072,-4.43734 l -10.36801,14.25068 1.06667,3.584 h 8.66134 v 2.90134 c 0,0.81066 -0.46934,1.74933 -1.45067,2.816 l 4.52267,2.90133 3.92534,-3.584 -0.384,-0.55467 -1.28,0.98134 -1.66401,-1.19467 v -4.224 z m -8.23467,-3.11467 h -8.49068 l -0.17066,-0.512 7.63733,-10.28268 c 0.384,0.34134 0.59734,0.59734 0.68267,0.72534 0.21334,0.29866 0.34134,0.55467 0.34134,0.81067 z m -382.07924,42.4107 c 1.57867,0 2.94401,-0.512 4.05334,-1.49334 1.024,-0.896 1.70667,-2.176 2.048,-3.79733 -1.49333,0.64 -2.98667,0.93866 -4.48,0.93866 -1.62134,0 -3.328,-0.42666 -5.07734,-1.23733 -2.432,1.83467 -4.13867,3.02934 -5.12,3.49867 -1.664,0.81067 -3.669338,1.19467 -6.101339,1.19467 v 4.01067 c -2.176002,0 -4.01067,0.42666 -5.461338,1.28 -1.749334,1.06667 -2.645335,2.60267 -2.645335,4.608 h 0.213333 c 1.237335,-1.49333 2.858669,-2.176 4.864004,-2.09067 l 3.029336,0.128 v 12.24535 c 0,2.47466 -0.426667,4.18133 -1.280001,5.12 -0.384001,0.42667 -0.725334,0.64 -1.024001,0.64 h -0.256 c -0.298667,-0.128 -1.322668,-0.68267 -3.072003,-1.70667 -1.237334,-0.68267 -2.261335,-1.024 -3.157335,-1.024 -0.597334,0 -1.237335,0.17067 -1.920002,0.46934 -1.578668,0.98133 -2.346668,2.816 -2.346668,5.504 h 0.170667 c 0.426667,-1.408 1.109334,-2.13334 2.090668,-2.13334 0.170667,0.0427 1.152001,0.29867 2.944002,0.85334 0.768001,0.21333 1.536001,0.34133 2.261335,0.34133 0.768001,0 1.322668,-0.0427 1.706668,-0.17067 l 5.674671,-1.70666 c 3.199998,-0.98134 5.461338,-2.26134 6.698668,-3.92534 1.28,-1.664 1.92001,-4.18134 1.96267,-7.50934 l 0.0427,-6.99734 h 4.77867 l 1.23733,-3.92533 h -6.016 v -4.13867 c 1.408,0.68266 2.816,1.024 4.18133,1.024 z m -8.10667,14.89068 c 0,5.33333 -1.83467,8.23467 -6.784003,9.89867 l -0.08533,-0.17067 c 1.749334,-1.408 2.944002,-3.02933 3.584006,-4.864 0.46933,-1.408 0.72533,-3.41334 0.72533,-6.01601 v -13.78134 c 0.85333,-0.128 1.28,-0.21333 1.32267,-0.21333 0.384,-0.0853 0.81067,-0.21334 1.23733,-0.42667 z m 17.45065,-18.60268 h -3.15734 l -1.024,4.352 h 0.55467 z m 1.10933,23.25335 -0.42666,-0.384 -0.768,0.512 c -0.68267,-0.34134 -1.06667,-0.81067 -1.19467,-1.36534 v -11.81867 l 1.06667,-1.19467 -3.28534,-2.73067 -3.15734,2.60267 1.23734,1.32267 v 11.136 l -0.0427,0.76801 c -0.128,1.83466 0.768,3.28533 2.688,4.30933 z m 14.8053,-13.90935 -2.77334,-3.02933 -4.30933,3.28533 c -0.128,-0.896 -0.42667,-1.57867 -0.85334,-2.048 -0.34133,-0.384 -0.93867,-0.81067 -1.83467,-1.28 l -3.62667,3.2 0.46934,0.46934 0.72533,-0.46934 c 0.68267,0.55467 1.024,1.23734 1.024,1.96267 v 8.57601 c 0,1.408 -0.384,2.432 -1.152,3.072 2.00534,0.768 3.84,1.83467 5.46134,3.24267 l 3.88267,-3.328 -0.512,-0.512 -1.23734,0.896 -2.304,-1.79201 v -11.05067 l 1.664,-1.28 2.56001,2.51733 z m 16.25595,-4.18133 c 0,-1.06667 -0.42667,-1.57867 -1.28,-1.57867 -0.68267,0 -1.02401,0.21333 -1.02401,0.68267 l 0.21334,0.384 c 0.64,0.81066 0.93867,1.32266 0.93867,1.62133 0,0.81067 -0.81067,1.49333 -1.62134,1.49333 l -1.10933,0.128 c -1.32267,0 -3.11467,-0.59733 -5.46134,-1.74933 -1.57867,1.49333 -3.328,2.688 -5.248,3.54134 v 6.57067 l 4.096,2.26133 -5.07734,7.25334 0.55467,0.384 c 1.49333,-0.64 2.90133,-0.98133 4.30934,-0.98133 1.408,0 2.85866,0.384 4.30933,1.10933 1.19467,-0.81067 2.048,-1.32267 2.51734,-1.62133 0.896,-0.55467 1.83467,-0.98134 2.77333,-1.28 v -7.85068 l -4.01067,-2.47466 3.88267,-5.24801 c 0.81067,-1.10933 1.23734,-2.00533 1.23734,-2.64533 z m -4.13867,5.07733 -4.13867,5.46134 -2.56,-1.32267 0.0427,-4.90667 c 1.57867,0.64 2.98667,0.93867 4.26667,0.93867 0.896,0 1.70667,-0.0427 2.38934,-0.17067 z m -0.512,7.12534 -0.0427,5.67467 c -1.57867,-0.768 -3.11467,-1.152 -4.608,-1.152 -1.06667,0 -2.00534,0.0853 -2.77334,0.256 l 4.736,-6.144 z m 15.95734,-8.32 v -2.17601 h -4.35201 l -0.0427,-5.41867 -5.54667,6.95467 -0.0427,0.59734 h 1.49333 v 11.00801 c 0,1.23733 -0.384,2.26133 -1.152,3.072 1.62134,0.55467 3.41334,1.664 5.37601,3.24267 l 3.84,-3.328 -0.46933,-0.59734 -1.19467,0.93867 -2.26134,-1.87734 v -12.416 z m 45.43996,8.14933 c 0,-3.072 -0.21334,-5.67467 -0.64,-7.808 -1.23734,-6.18667 -4.22401,-9.51467 -8.96001,-9.98401 -0.896,-0.0853 -1.49333,-0.128 -1.83467,-0.128 h -1.70667 c -1.32266,0 -3.28533,0.128 -5.888,0.34134 -2.60267,0.21333 -4.52267,0.34133 -5.84534,0.34133 l -0.21333,0.0427 c -1.83467,0 -3.62667,-1.06667 -4.30934,-2.73067 l -0.0427,0.81066 c -0.0427,1.06667 0.17066,2.09067 0.68266,3.07201 1.024,2.00533 2.64534,2.816 5.88801,2.816 0.59733,0 1.49333,-0.0427 2.64533,-0.128 1.19467,-0.0853 2.09067,-0.128 2.688,-0.128 -2.09066,1.23733 -3.62667,2.60267 -4.608,4.096 -1.06667,1.57867 -1.74933,3.49867 -1.96267,5.84534 l -1.23733,-0.0427 c -1.28,-0.0427 -2.34667,0.21334 -3.24267,0.85334 -0.98133,0.64 -1.536,1.57866 -1.70667,2.816 0.81067,-0.81067 1.70667,-1.23734 2.688,-1.23734 0.46934,0 0.896,0.0853 1.32267,0.29867 0.98134,0.512 1.49334,1.536 1.49334,3.11467 0,1.74933 -1.40801,3.968 -4.26667,6.61334 l 0.17066,0.17066 c 2.304,-1.57866 3.79734,-2.64533 4.48001,-3.2 3.328,-2.688 4.992,-5.67467 4.992,-8.96 v -5.54667 c 0,-1.36534 0.34133,-2.43201 0.98133,-3.20001 0.55467,-0.64 1.49334,-1.23733 2.90134,-1.83467 -0.81067,1.40801 -1.19467,2.77334 -1.19467,4.09601 l 0.0853,0.46933 v 6.99734 c 0,2.944 -1.49333,5.504 -4.48,7.63734 -3.49867,2.304 -6.144,3.968 -7.936,5.03467 l 0.21333,0.42667 c 4.13867,-2.30401 8.23467,-3.45601 12.24534,-3.45601 2.98667,0 6.18667,0.59734 9.60001,1.79201 2.34667,-2.04801 4.65067,-3.54134 6.82667,-4.52267 0,-0.55467 0.0427,-1.32267 0.0853,-2.38934 0.0427,-1.06667 0.0853,-1.83467 0.0853,-2.38934 z m -5.20534,-6.99733 c -1.10933,1.152 -2.38934,1.74933 -3.88267,1.74933 -1.49333,0 -2.73067,-0.59733 -3.75467,-1.74933 v -6.65601 c 4.82134,0 7.08267,1.87734 7.63734,6.65601 z m 0.384,6.656 c -1.06667,-0.68267 -2.26133,-1.024 -3.62667,-1.024 -1.32267,0 -2.77333,0.34133 -4.39467,1.06667 v -5.41867 c 1.23734,0.768 2.47467,1.152 3.75467,1.152 1.45067,0 2.77334,-0.384 3.968,-1.19467 0.21334,1.49333 0.29867,3.072 0.29867,4.736 z m -8.91734,3.584 -3.84,-0.0427 c 1.152,-1.32267 1.74933,-3.11467 1.74933,-5.46134 v -6.99734 c 0,-1.83467 0.34134,-3.328 1.06667,-4.43734 l 1.024,0.0427 z m 8.96001,-2.34666 -0.0853,3.88267 c -2.688,-0.72534 -5.376,-1.19467 -8.02134,-1.45067 v -2.432 c 1.19467,-1.10934 2.56001,-1.66401 4.09601,-1.66401 1.57867,0 2.90133,0.55467 4.01067,1.66401 z m 21.71727,5.16267 -0.46934,-0.384 -0.768,0.384 c -0.55466,-0.17067 -0.98133,-0.59734 -1.19466,-1.32267 v -11.17868 c 0.29866,-1.152 0.768,-2.21866 1.45066,-3.28533 l -0.0853,-0.17067 -1.19467,0.93867 -6.05867,-2.00534 c -1.32267,1.23734 -2.816,1.792 -4.39467,1.664 l -0.55466,-0.0427 2.048,5.33334 c -2.81601,2.51733 -4.22401,5.07733 -4.22401,7.72267 0,1.74933 1.024,3.584 3.02934,5.46133 h 0.21333 l 5.80267,-4.65067 c 0,2.09067 0.896,3.62667 2.73067,4.60801 z m -6.40001,-8.02134 -4.39467,-2.13334 -1.792,-4.864 6.18667,2.304 z m 0.0427,5.376 -3.2,2.73067 c -1.664,-1.664 -2.47467,-3.456 -2.47467,-5.376 0,-1.32267 0.42667,-2.73067 1.23733,-4.18134 l 4.43734,2.21867 z m 22.86934,-7.552 c 0,-2.64534 -0.85333,-4.90668 -2.60267,-6.74134 l -5.76,4.52267 c 0,-2.09067 -0.896,-3.58401 -2.73067,-4.56534 l -4.096,3.584 0.46933,0.55467 1.36534,-0.98133 c 0.68266,0.64 1.024,1.28 1.024,2.00533 v 11.30668 c 0,0.384 -0.55467,1.28 -1.70667,2.77333 -1.10934,1.49334 -1.664,2.64534 -1.664,3.54134 v 0.34133 c 0.17066,1.62134 1.62133,2.432 4.352,2.432 h 0.59733 c 0.68267,0 1.49334,-0.17066 2.43201,-0.46933 1.23733,-0.384 1.83466,-0.896 1.83466,-1.49334 -0.0427,-0.21333 -0.0427,-0.29866 -0.0853,-0.34133 -0.128,-0.21333 -0.29867,-0.29867 -0.512,-0.29867 -0.384,0 -0.98133,0.384 -1.792,1.10934 -0.64,0.46933 -1.536,0.72533 -2.64534,0.72533 -0.85333,0 -1.57866,-0.17067 -2.176,-0.46933 -0.768,-0.384 -1.152,-0.98134 -1.152,-1.74934 l -0.0427,-0.21333 c 0,-0.98133 0.98134,-2.09067 2.90134,-3.328 1.62133,-0.896 2.944,-1.62134 3.92534,-2.13334 2.34666,-1.19466 4.18133,-2.56 5.54667,-4.05333 1.664,-1.83467 2.51733,-3.88267 2.51733,-6.05867 z m -3.584,1.19466 c 0,1.49334 -0.512,3.02934 -1.536,4.60801 -0.896,1.32266 -2.00534,2.51733 -3.37067,3.54133 v -10.45334 l 2.90133,-2.26133 c 1.32267,1.152 2.00534,2.688 2.00534,4.56533 z m 32.46929,8.91734 v -13.90934 c -1.83466,-0.256 -4.096,-1.23734 -6.784,-2.98667 -1.74934,1.62133 -3.75467,2.77334 -6.05867,3.41334 v 10.112 c 0,1.57867 -0.384,2.64534 -1.152,3.28534 2.85867,0.59733 5.41867,1.70667 7.68,3.37067 1.664,-1.408 3.75467,-2.51734 6.31467,-3.28534 z m -4.01067,-0.0853 c -0.46933,-0.128 -1.10933,-0.34133 -1.87733,-0.64 -1.06667,-0.384 -2.09067,-0.81067 -3.02934,-1.19467 v -11.77601 l 4.90667,1.87734 z m 18.09065,-0.55467 -0.46933,-0.512 -1.45067,1.19467 -3.072,-1.96267 v -12.20267 h 2.90133 l 0.29867,-2.17601 h -3.2 v -4.352 l 3.66933,0.768 0.85334,-2.944 -4.09601,-0.98134 c -1.664,1.49334 -3.2,2.51734 -4.65067,3.15734 v 4.352 h -1.87733 l -0.384,2.17601 h 2.176 v 10.96534 c 0,1.32266 -0.34133,2.34667 -1.06667,3.072 2.51734,0.98133 4.56534,2.048 6.14401,3.24267 z m 24.83194,-13.48267 v -2.17601 h -4.352 l -0.0427,-5.41867 -5.54667,6.95467 -0.0427,0.59734 h 1.49334 v 11.00801 c 0,1.23733 -0.384,2.26133 -1.152,3.072 1.62133,0.55467 3.41333,1.664 5.376,3.24267 l 3.84001,-3.328 -0.46934,-0.59734 -1.19467,0.93867 -2.26133,-1.87734 v -12.416 z m 16.76799,12.71467 v -10.41067 c 0,-2.09067 -0.93866,-3.75467 -2.816,-4.99201 l -5.97334,4.39467 v -7.552 c 0,-1.536 0.59734,-2.816 1.83467,-3.88267 -1.49333,0 -2.85867,0.72533 -4.096,2.13333 l -0.64,0.0427 c -0.72534,-0.55467 -1.62134,-1.024 -2.64534,-1.408 l -0.0853,0.0853 c 1.024,0.93867 1.536,2.34667 1.536,4.26667 v 2.51734 h -2.176 v 2.09067 h 2.09067 v 13.35467 l -1.23734,1.45067 3.2,2.60267 3.24267,-2.816 -1.10933,-1.23734 v -10.53867 l 3.37067,-2.51734 c 0.896,0.55467 1.45067,1.19467 1.62133,2.00534 v 11.94667 c 0,2.048 -0.768,3.62667 -2.26133,4.73601 -0.768,0.55466 -2.51734,1.408 -5.29067,2.47466 l 0.128,0.256 c 2.944,-0.55466 5.41867,-1.49333 7.33867,-2.77333 2.64534,-1.664 3.968,-3.712 3.968,-6.22934 z m 14.42134,-9.98401 -5.504,-5.504 c -1.87734,1.32267 -3.79734,2.47467 -5.76001,3.37067 v 11.39201 c 0,1.23733 -0.384,2.26133 -1.19467,3.11467 2.048,0.384 4.01067,1.10933 5.88801,2.13333 l 3.712,-2.60267 c 0.85333,-0.59733 1.62133,-1.10933 2.34667,-1.57866 l -0.46933,-0.51201 -2.81601,1.79201 -3.584,-1.57867 v -4.43734 c 1.83467,-1.57867 4.26667,-3.41333 7.38134,-5.58934 z m -3.37067,1.40801 -4.05334,3.2 v -7.33867 z m 41.9839,-9.47201 c 1.57867,0 2.944,-0.512 4.05334,-1.49334 1.024,-0.896 1.70666,-2.176 2.048,-3.79733 -1.49334,0.64 -2.98667,0.93866 -4.48001,0.93866 -1.62133,0 -3.328,-0.42666 -5.07733,-1.23733 -2.43201,1.83467 -4.13867,3.02934 -5.12001,3.49867 -1.664,0.81067 -3.66933,1.19467 -6.10134,1.19467 v 4.01067 c -2.176,0 -4.01067,0.42666 -5.46133,1.28 -1.74934,1.06667 -2.64534,2.60267 -2.64534,4.608 h 0.21334 c 1.23733,-1.49333 2.85866,-2.176 4.864,-2.09067 l 3.02933,0.128 v 12.24535 c 0,2.47466 -0.42666,4.18133 -1.28,5.12 -0.384,0.42667 -0.72533,0.64 -1.024,0.64 h -0.256 c -0.29866,-0.128 -1.32267,-0.68267 -3.072,-1.70667 -1.23733,-0.68267 -2.26133,-1.024 -3.15734,-1.024 -0.59733,0 -1.23733,0.17067 -1.92,0.46934 -1.57866,0.98133 -2.34667,2.816 -2.34667,5.504 h 0.17067 c 0.42667,-1.408 1.10934,-2.13334 2.09067,-2.13334 0.17067,0.0427 1.152,0.29867 2.944,0.85334 0.768,0.21333 1.536,0.34133 2.26134,0.34133 0.768,0 1.32266,-0.0427 1.70666,-0.17067 l 5.67468,-1.70666 c 3.2,-0.98134 5.46133,-2.26134 6.69867,-3.92534 1.28,-1.664 1.92,-4.18134 1.96267,-7.50934 l 0.0427,-6.99734 h 4.77867 l 1.23734,-3.92533 h -6.01601 v -4.13867 c 1.408,0.68266 2.816,1.024 4.18134,1.024 z m -8.10667,14.89068 c 0,5.33333 -1.83467,8.23467 -6.78401,9.89867 l -0.0853,-0.17067 c 1.74933,-1.408 2.944,-3.02933 3.584,-4.864 0.46933,-1.408 0.72533,-3.41334 0.72533,-6.01601 v -13.78134 c 0.85334,-0.128 1.28001,-0.21333 1.32267,-0.21333 0.384,-0.0853 0.81067,-0.21334 1.23734,-0.42667 z m 17.45064,-18.60268 h -3.15733 l -1.024,4.352 h 0.55466 z m 1.10934,23.25335 -0.42667,-0.384 -0.768,0.512 c -0.68267,-0.34134 -1.06667,-0.81067 -1.19467,-1.36534 v -11.81867 l 1.06667,-1.19467 -3.28534,-2.73067 -3.15733,2.60267 1.23733,1.32267 v 11.136 l -0.0427,0.76801 c -0.128,1.83466 0.768,3.28533 2.688,4.30933 z m 14.80528,-13.90935 -2.77333,-3.02933 -4.30934,3.28533 c -0.128,-0.896 -0.42667,-1.57867 -0.85333,-2.048 -0.34134,-0.384 -0.93867,-0.81067 -1.83467,-1.28 l -3.62667,3.2 0.46933,0.46934 0.72534,-0.46934 c 0.68267,0.55467 1.024,1.23734 1.024,1.96267 v 8.57601 c 0,1.408 -0.384,2.432 -1.152,3.072 2.00533,0.768 3.84,1.83467 5.46134,3.24267 l 3.88266,-3.328 -0.512,-0.512 -1.23733,0.896 -2.304,-1.79201 v -11.05067 l 1.664,-1.28 2.56,2.51733 z m 16.25596,-4.18133 c 0,-1.06667 -0.42666,-1.57867 -1.28,-1.57867 -0.68266,0 -1.024,0.21333 -1.024,0.68267 l 0.21334,0.384 c 0.64,0.81066 0.93866,1.32266 0.93866,1.62133 0,0.81067 -0.81066,1.49333 -1.62133,1.49333 l -1.10934,0.128 c -1.32266,0 -3.11466,-0.59733 -5.46133,-1.74933 -1.57867,1.49333 -3.32801,2.688 -5.24801,3.54134 v 6.57067 l 4.09601,2.26133 -5.07734,7.25334 0.55467,0.384 c 1.49333,-0.64 2.90133,-0.98133 4.30933,-0.98133 1.408,0 2.85867,0.384 4.30934,1.10933 1.19467,-0.81067 2.048,-1.32267 2.51733,-1.62133 0.89601,-0.55467 1.83467,-0.98134 2.77334,-1.28 v -7.85068 l -4.01067,-2.47466 3.88267,-5.24801 c 0.81067,-1.10933 1.23733,-2.00533 1.23733,-2.64533 z m -4.13867,5.07733 -4.13867,5.46134 -2.56,-1.32267 0.0427,-4.90667 c 1.57867,0.64 2.98667,0.93867 4.26667,0.93867 0.896,0 1.70667,-0.0427 2.38933,-0.17067 z m -0.512,7.12534 -0.0427,5.67467 c -1.57867,-0.768 -3.11467,-1.152 -4.60801,-1.152 -1.06666,0 -2.00533,0.0853 -2.77333,0.256 l 4.736,-6.144 z m 15.95734,-8.32 v -2.17601 h -4.352 l -0.0427,-5.41867 -5.54667,6.95467 -0.0427,0.59734 h 1.49334 v 11.00801 c 0,1.23733 -0.384,2.26133 -1.152,3.072 1.62133,0.55467 3.41333,1.664 5.376,3.24267 l 3.84,-3.328 -0.46933,-0.59734 -1.19467,0.93867 -2.26133,-1.87734 v -12.416 z m 50.68796,13.86667 -0.55467,-0.55466 c -0.34133,0.384 -0.64,0.59733 -0.93867,0.59733 -0.68266,0 -1.024,-0.768 -1.024,-2.304 v -16.59735 c 0,-0.68267 0.17067,-1.32267 0.512,-1.96267 0.21334,-0.384 0.59734,-0.93866 1.152,-1.70666 l -0.46933,-0.34134 -1.664,1.23734 -4.43734,-3.02934 -7.04,4.52267 c -0.384,-1.92 -1.536,-3.456 -3.37067,-4.65067 l -7.63734,4.13867 c -3.41334,1.83467 -5.12001,5.07734 -5.12001,9.64267 -2.688,0.34134 -4.096,1.32267 -4.65067,3.84001 1.02401,-0.34134 1.79201,-0.512 2.26134,-0.512 0.512,0 0.98133,0.0853 1.45067,0.29866 2.00533,0.64 3.37067,2.90134 3.37067,5.12001 0,0.68266 -0.17067,1.36533 -0.46934,2.048 -0.46933,0.81067 -2.21867,1.536 -5.16267,2.176 -2.304,0.46933 -3.456,2.09067 -3.456,4.864 h 0.256 c 0.68267,-1.23733 1.70667,-1.87733 3.072,-1.87733 0.256,0 0.59734,0.0427 0.98134,0.0853 2.176,0.29867 3.37067,0.46934 3.49867,0.46934 1.024,0 2.00533,-0.29867 2.944,-0.896 1.87733,-1.15201 2.816,-3.15734 2.816,-5.93068 v -7.97867 h 4.69334 l 0.0427,6.99734 c 0,0.384 -0.128,0.68267 -0.34133,0.98133 -0.128,0.128 -0.34133,0.38401 -0.72533,0.68267 v 0.34134 c 1.23733,0.93866 2.688,2.26133 4.30933,4.01067 l 6.40001,-5.67468 -0.59734,-0.68266 -0.98133,0.72533 v -7.38134 l 2.21867,-3.11467 h -2.176 v -8.96 l 0.85333,-0.42667 3.072,2.26133 0.0427,18.00535 c 0,2.688 1.024,4.43734 3.11467,5.24801 z m -11.73334,-12.41601 h -2.73067 l -0.0427,-6.4 2.77334,-1.87734 z m -7.21068,-7.38134 -0.0427,7.38134 h -3.02934 l -1.70667,2.51734 v -7.29601 c 0,-1.664 0.68267,-3.15733 2.09067,-4.48 1.792,0 2.688,0.64 2.688,1.87733 z m 7.21068,18.60268 -1.36534,1.23734 c -0.93867,-0.384 -1.408,-1.10934 -1.408,-2.176 l 0.0427,-7.16801 h 2.73067 z m -12.03201,-19.15734 c -0.46934,0.98133 -0.72534,1.92 -0.72534,2.90133 v 15.87201 c 0,2.21867 -0.896,3.32801 -2.688,3.32801 -0.384,0 -0.98133,-0.128 -1.74933,-0.384 1.74933,-0.98134 2.60266,-2.68801 2.60266,-5.16267 v -11.43468 c 0,-2.51733 0.55467,-3.712 2.43201,-5.248 z m 39.16801,20.60801 v -13.90934 c -1.83467,-0.256 -4.09601,-1.23734 -6.78401,-2.98667 -1.74933,1.62133 -3.75467,2.77334 -6.05867,3.41334 v 10.112 c 0,1.57867 -0.384,2.64534 -1.152,3.28534 2.85867,0.59733 5.41867,1.70667 7.68,3.37067 1.66401,-1.408 3.75467,-2.51734 6.31468,-3.28534 z m -4.01067,-0.0853 c -0.46934,-0.128 -1.10934,-0.34133 -1.87734,-0.64 -1.06667,-0.384 -2.09067,-0.81067 -3.02933,-1.19467 v -11.77601 l 4.90667,1.87734 z m 23.97863,0.21333 -0.42667,-0.42666 -0.896,0.512 c -0.55466,-0.384 -0.98133,-0.85334 -1.19466,-1.36534 v -11.22134 c 0.59733,-0.98133 1.23733,-1.87733 1.87733,-2.688 l -0.42667,-0.46934 -1.83466,1.45067 -2.94401,-2.73067 c -1.23733,1.152 -3.072,2.64534 -5.46133,4.39467 0,-1.92 -0.896,-3.41333 -2.68801,-4.48 l -3.49867,3.2 0.42667,0.46934 0.68267,-0.46934 c 0.68267,0.55467 1.024,1.23734 1.024,1.96267 v 10.96534 l -1.19467,1.32267 3.24267,2.73067 3.072,-2.73067 -1.152,-1.45067 v -10.58134 l 3.02934,-2.21867 1.92,1.664 v 10.19734 c 0,2.56001 0.55467,3.79734 2.60267,5.12001 z m 11.17863,-14.25067 v -2.17601 h -4.352 l -0.0427,-5.41867 -5.54667,6.95467 -0.0427,0.59734 h 1.49333 v 11.00801 c 0,1.23733 -0.384,2.26133 -1.152,3.072 1.62134,0.55467 3.41334,1.664 5.376,3.24267 l 3.84001,-3.328 -0.46934,-0.59734 -1.19466,0.93867 -2.26134,-1.87734 v -12.416 z m 16.76803,12.71467 v -10.41067 c 0,-2.09067 -0.93867,-3.75467 -2.81601,-4.99201 l -5.97333,4.39467 v -7.552 c 0,-1.536 0.59733,-2.816 1.83466,-3.88267 -1.49333,0 -2.85866,0.72533 -4.096,2.13333 l -0.64,0.0427 c -0.72533,-0.55467 -1.62133,-1.024 -2.64533,-1.408 l -0.0853,0.0853 c 1.024,0.93867 1.536,2.34667 1.536,4.26667 v 2.51734 h -2.176 v 2.09067 h 2.09067 v 13.35467 l -1.23733,1.45067 3.2,2.60267 3.24267,-2.816 -1.10934,-1.23734 v -10.53867 l 3.37067,-2.51734 c 0.896,0.55467 1.45067,1.19467 1.62134,2.00534 v 11.94667 c 0,2.048 -0.768,3.62667 -2.26134,4.73601 -0.768,0.55466 -2.51733,1.408 -5.29067,2.47466 l 0.128,0.256 c 2.944,-0.55466 5.41867,-1.49333 7.33867,-2.77333 2.64534,-1.664 3.96801,-3.712 3.96801,-6.22934 z m -433.15135,83.0294 -0.256,-0.0427 c -0.896,1.49334 -2.26133,2.26134 -4.13867,2.26134 -0.896,0 -2.00533,-0.17067 -3.328,-0.55467 -1.32267,-0.384 -2.38933,-0.68267 -3.2,-0.896 -1.536,-0.384 -3.28534,-0.55467 -5.205338,-0.55467 -6.016005,0 -9.429341,2.60267 -10.282675,7.85067 h 0.170667 c 1.066668,-1.49333 2.090668,-2.56 3.072003,-3.11466 1.109334,-0.59734 2.304001,-0.85334 3.584002,-0.81067 l 2.602669,0.128 c -1.920002,1.49333 -3.413336,2.816 -4.39467,4.05333 -1.322668,1.57867 -2.218668,3.32801 -2.730669,5.29068 -0.298667,1.152 -0.469334,2.26133 -0.469334,3.24266 0,2.38934 0.682668,4.56534 2.090669,6.52801 2.432001,3.41334 6.058671,5.12 10.837346,5.12 1.152,0 2.34666,-0.128 3.49866,-0.42666 3.88267,-0.98134 6.57068,-3.96801 7.97868,-8.96001 l -0.21334,-0.128 c -1.87733,2.85867 -4.30933,4.736 -7.296,5.67467 v -18.77335 l 0.512,0.0427 c 1.92,0.17067 3.584,-0.256 4.992,-1.28 1.45067,-1.06667 2.176,-2.60267 2.176,-4.65067 z m -8.61867,24.83202 -0.55467,0.128 c -2.688,0 -4.992,-0.72534 -6.869335,-2.13334 1.706665,-1.57867 2.858665,-2.85867 3.456005,-3.88267 0.81066,-1.36533 1.19467,-3.02933 1.19467,-4.94933 v -8.70401 l 2.77333,0.55467 z m -6.954671,-6.14401 c 0,1.45067 -0.469334,2.60267 -1.408001,3.49867 -2.346669,-2.26133 -3.498669,-4.90667 -3.498669,-7.89334 0,-3.584 1.408001,-6.86934 4.266669,-9.89867 l 0.640001,0.17067 z m 32.341301,4.94934 v -10.41067 c 0,-2.09067 -0.93866,-3.75467 -2.816,-4.99201 l -5.97333,4.39467 v -7.552 c 0,-1.53601 0.59733,-2.81601 1.83466,-3.88267 -1.49333,0 -2.85867,0.72533 -4.096,2.13333 l -0.64,0.0427 c -0.72533,-0.55467 -1.62133,-1.024 -2.64534,-1.408 l -0.0853,0.0853 c 1.024,0.93867 1.536,2.34667 1.536,4.26667 v 2.51734 h -2.176 v 2.09066 h 2.09067 v 13.35468 l -1.23734,1.45067 3.20001,2.60267 3.24267,-2.81601 -1.10934,-1.23733 v -10.53867 l 3.37067,-2.51734 c 0.896,0.55467 1.45067,1.19467 1.62134,2.00534 v 11.94667 c 0,2.048 -0.76801,3.62667 -2.26134,4.736 -0.768,0.55467 -2.51733,1.40801 -5.29067,2.47467 l 0.128,0.256 c 2.944,-0.55466 5.41867,-1.49333 7.33867,-2.77333 2.64534,-1.664 3.968,-3.71201 3.968,-6.22934 z m 14.42135,-9.98401 -5.50401,-5.504 c -1.87733,1.32267 -3.79734,2.47467 -5.76,3.37067 v 11.39201 c 0,1.23733 -0.384,2.26133 -1.19467,3.11466 2.048,0.384 4.01067,1.10934 5.888,2.13334 l 3.71201,-2.60267 c 0.85333,-0.59733 1.62133,-1.10933 2.34666,-1.57867 l -0.46933,-0.512 -2.816,1.792 -3.584,-1.57866 v -4.43734 c 1.83466,-1.57867 4.26667,-3.41334 7.38134,-5.58934 z m -3.37067,1.408 -4.05334,3.20001 v -7.33868 z m 25.89855,-13.18401 h -3.15734 l -1.024,4.35201 h 0.55467 z m 0.46933,9.81334 c -1.36533,-1.152 -2.64533,-2.34666 -3.88267,-3.49867 l -4.18133,3.20001 0.29866,0.29866 1.32267,-0.72533 1.536,1.45067 c -0.81066,1.87733 -1.23733,3.88267 -1.23733,6.05867 0,0.896 0.17067,2.47467 0.55467,4.82134 0.34133,2.13333 0.512,3.456 0.512,3.968 0,2.048 -0.81067,3.79734 -2.47467,5.29067 l 0.29866,0.46933 c 3.66934,-1.664 5.50401,-4.18133 5.50401,-7.50934 v -1.024 c 0,-0.68266 -0.0853,-1.92 -0.29867,-3.712 -0.0853,-0.768 -0.128,-1.408 -0.128,-1.92 0,-2.51734 0.72534,-4.90667 2.176,-7.16801 z m 15.1893,13.35468 V 322.7954 c -1.83467,-0.256 -4.09601,-1.23734 -6.78401,-2.98667 -1.74933,1.62133 -3.75467,2.77333 -6.05867,3.41333 v 10.11201 c 0,1.57867 -0.384,2.64534 -1.152,3.28534 2.85867,0.59733 5.41867,1.70667 7.68001,3.37067 1.664,-1.408 3.75467,-2.51734 6.31467,-3.28534 z m -4.01067,-0.0853 c -0.46934,-0.128 -1.10934,-0.34134 -1.87734,-0.64 -1.06666,-0.384 -2.09067,-0.81067 -3.02933,-1.19467 v -11.77601 l 4.90667,1.87734 z m 24.02131,0.21333 -0.42667,-0.42667 -0.768,0.512 c -0.85333,-0.46933 -1.28,-0.896 -1.28,-1.36533 v -12.16001 l 1.23733,-1.06667 -3.15733,-2.51733 -3.02934,2.51733 1.024,1.28 v 10.70935 l -3.456,2.47466 c -1.024,-0.55466 -1.536,-1.23733 -1.536,-2.048 v -11.34934 l 1.28,-1.024 -3.24267,-2.51734 -4.096,3.15734 0.42666,0.46933 0.98134,-0.59733 0.768,0.72533 v 11.26401 c 0,2.13334 0.896,3.79734 2.688,4.94934 l 6.10134,-4.352 c 0,1.792 0.896,3.28533 2.688,4.52267 z m 17.02396,-18.13335 c 0,-1.06666 -0.42667,-1.57866 -1.28,-1.57866 -0.68267,0 -1.024,0.21333 -1.024,0.68266 l 0.21333,0.384 c 0.64,0.81067 0.93867,1.32267 0.93867,1.62134 0,0.81067 -0.81067,1.49333 -1.62133,1.49333 l -1.10934,0.128 c -1.32267,0 -3.11467,-0.59733 -5.46134,-1.74933 -1.57866,1.49333 -3.328,2.688 -5.248,3.54133 v 6.57068 l 4.096,2.26133 -5.07733,7.25334 0.55466,0.384 c 1.49334,-0.64 2.90134,-0.98133 4.30934,-0.98133 1.408,0 2.85867,0.384 4.30934,1.10933 1.19466,-0.81067 2.048,-1.32267 2.51733,-1.62133 0.896,-0.55467 1.83467,-0.98134 2.77334,-1.28001 v -7.85067 l -4.01067,-2.47467 3.88267,-5.248 c 0.81066,-1.10933 1.23733,-2.00534 1.23733,-2.64534 z m -4.13867,5.07734 -4.13867,5.46134 -2.56,-1.32267 0.0427,-4.90667 c 1.57866,0.64 2.98666,0.93867 4.26667,0.93867 0.896,0 1.70666,-0.0427 2.38933,-0.17067 z m -0.512,7.12534 -0.0427,5.67467 c -1.57866,-0.768 -3.11467,-1.152 -4.608,-1.152 -1.06667,0 -2.00533,0.0853 -2.77333,0.256 l 4.736,-6.144 z m 15.95735,-8.32001 v -2.176 h -4.35201 l -0.0427,-5.41867 -5.54668,6.95467 -0.0427,0.59734 h 1.49333 v 11.008 c 0,1.23734 -0.384,2.26134 -1.152,3.07201 1.62134,0.55466 3.41334,1.664 5.37601,3.24267 l 3.84,-3.32801 -0.46934,-0.59733 -1.19466,0.93867 -2.26134,-1.87734 v -12.41601 z m 8.02131,-9.04534 h -3.15733 l -1.024,4.35201 h 0.55466 z m 1.10934,23.25335 -0.42667,-0.384 -0.768,0.512 c -0.68267,-0.34133 -1.06667,-0.81066 -1.19467,-1.36533 v -11.81868 l 1.06667,-1.19466 -3.28534,-2.73067 -3.15733,2.60267 1.23733,1.32266 v 11.13601 l -0.0427,0.768 c -0.128,1.83467 0.768,3.28534 2.688,4.30934 z m 18.85863,0.0427 -0.42666,-0.42667 -0.896,0.512 c -0.55467,-0.384 -0.98134,-0.85333 -1.19467,-1.36533 V 324.3314 c 0.59733,-0.98134 1.23733,-1.87734 1.87733,-2.688 l -0.42666,-0.46934 -1.83467,1.45067 -2.944,-2.73067 c -1.23734,1.152 -3.07201,2.64534 -5.46134,4.39467 0,-1.92 -0.896,-3.41333 -2.688,-4.48 l -3.49867,3.2 0.42667,0.46933 0.68266,-0.46933 c 0.68267,0.55467 1.024,1.23733 1.024,1.96267 v 10.96534 l -1.19466,1.32267 3.24266,2.73067 3.07201,-2.73067 -1.152,-1.45067 V 325.2274 l 3.02933,-2.21867 1.92,1.664 v 10.19734 c 0,2.56 0.55467,3.79734 2.60267,5.12001 z m 18.5173,-11.98934 v -4.05334 l -3.20001,2.00534 -6.528,-2.98667 c -1.83467,0.896 -2.90134,1.408 -3.15734,1.536 -1.23733,0.55467 -2.34667,0.98133 -3.37067,1.19467 v 13.99467 l 3.96801,2.81601 -4.60801,5.248 0.896,0.768 c 1.792,-0.59733 3.45601,-0.896 5.03467,-0.896 1.45067,0 3.24267,0.29867 5.41867,0.896 1.53601,-0.72533 2.30401,-1.10933 2.30401,-1.10933 1.83466,-0.896 2.816,-1.83467 2.944,-2.81601 v -0.17066 c 0,-0.46934 -0.512,-1.45067 -1.536,-2.944 -0.98134,-1.53601 -1.49334,-2.77334 -1.49334,-3.75467 V 324.3314 Z m -7.12534,9.08801 -2.64534,2.688 -2.73067,-1.83467 V 322.6674 l 5.37601,1.536 z m 4.26667,8.36267 -0.0853,0.512 c -2.432,-0.768 -4.69333,-1.152 -6.784,-1.152 -1.57867,0 -2.77334,0.0853 -3.62667,0.256 l 6.10134,-6.74134 c 0.17066,1.49333 0.68266,2.816 1.536,4.05334 0.512,0.72533 1.45067,1.74933 2.85867,3.072 z m 29.14123,-6.27201 -0.42667,-0.46933 -1.83466,1.36533 -3.75467,-1.87733 V 322.9234 l 3.84,2.176 1.83467,-2.60267 -4.30934,-2.688 c -1.57867,1.408 -3.328,2.56 -5.248,3.37067 v 10.88001 c 0,1.32266 -0.384,2.34666 -1.152,3.02933 1.83466,0.384 3.79733,1.28 5.888,2.73067 1.70667,-1.23733 3.41334,-2.51734 5.16267,-3.79734 z m 15.65866,0.68267 V 322.7954 c -1.83467,-0.256 -4.096,-1.23734 -6.784,-2.98667 -1.74934,1.62133 -3.75467,2.77333 -6.05867,3.41333 v 10.11201 c 0,1.57867 -0.384,2.64534 -1.152,3.28534 2.85866,0.59733 5.41867,1.70667 7.68,3.37067 1.664,-1.408 3.75467,-2.51734 6.31467,-3.28534 z m -4.01067,-0.0853 c -0.46933,-0.128 -1.10933,-0.34134 -1.87733,-0.64 -1.06667,-0.384 -2.09067,-0.81067 -3.02934,-1.19467 v -11.77601 l 4.90667,1.87734 z m 33.45065,0.21333 -0.51201,-0.42667 -0.81066,0.512 c -0.59734,-0.384 -1.024,-0.81066 -1.28,-1.36533 V 324.3314 c 0.21333,-0.384 0.55466,-0.85334 0.93866,-1.408 0.29867,-0.384 0.59734,-0.81067 0.93867,-1.28 l -0.46933,-0.46934 -1.74934,1.45067 -2.90133,-2.73067 c -2.432,2.00534 -4.26667,3.456 -5.54667,4.39467 -0.42667,-1.70667 -1.32267,-3.2 -2.73067,-4.48 l -6.18667,4.52267 c 0,-2.048 -0.93867,-3.54134 -2.77334,-4.52267 l -3.41333,3.2 0.384,0.46933 0.68266,-0.46933 c 0.72534,0.55467 1.06667,1.23733 1.06667,1.96267 v 10.96534 l -1.152,1.32267 3.15734,2.73067 3.11466,-2.73067 -1.152,-1.45067 v -10.41067 l 3.37067,-2.51734 c 1.152,0.768 1.70667,1.45067 1.70667,2.09067 v 10.96534 l -1.28,1.32267 3.28534,2.73067 3.02933,-2.73067 -1.10933,-1.45067 V 325.2274 l 3.02933,-2.21867 1.83467,1.664 v 10.19734 c 0,1.32267 0.17067,2.304 0.512,3.02934 0.384,0.81067 1.10933,1.49333 2.176,2.09067 z m 16.98134,-1.024 v -9.47201 c 0,-3.37067 -1.40801,-5.54667 -4.26667,-6.528 l -4.39467,4.13867 c -0.256,-1.92 -1.23734,-3.28534 -2.94401,-4.18134 l -3.584,3.2 0.46933,0.34134 1.024,-0.64 c 0.64001,0.384 0.98134,1.23733 0.98134,2.51733 v 9.72801 c -1.024,0.29867 -1.792,0.55467 -2.26134,0.768 v 1.23733 h 0.93867 c 0.46933,0 0.896,0.0427 1.23734,0.17067 l 0.0853,2.816 c 0.0427,1.664 -0.46933,3.15734 -1.62134,4.56534 0.55467,-0.0853 1.10934,-0.29867 1.66401,-0.64 0.29866,-0.21333 0.81066,-0.59733 1.45066,-1.152 0.768,0.85333 1.23734,1.36533 1.45067,1.49333 0.72534,0.64 1.70667,1.024 2.90134,1.19467 -0.85334,-1.152 -1.408,-2.13333 -1.62134,-2.85867 -0.34133,-1.024 -0.46933,-2.00533 -0.384,-2.90133 l 0.128,-1.53601 c 1.57867,0.76801 2.77334,1.32267 3.584,1.66401 1.23734,-1.10934 2.09067,-1.83467 2.47467,-2.13334 0.98134,-0.72533 1.87734,-1.32267 2.68801,-1.792 z m -3.79734,0.72533 c -1.57867,-0.55466 -3.2,-1.06666 -4.94934,-1.536 v -9.77067 l 2.56,-2.26134 c 1.024,0.34134 2.38934,1.49334 2.38934,2.38934 z m 18.00533,-11.22134 -5.504,-5.504 c -1.87734,1.32267 -3.79734,2.47467 -5.76001,3.37067 v 11.39201 c 0,1.23733 -0.384,2.26133 -1.19467,3.11466 2.048,0.384 4.01067,1.10934 5.88801,2.13334 l 3.712,-2.60267 c 0.85333,-0.59733 1.62133,-1.10933 2.34667,-1.57867 l -0.46933,-0.512 -2.81601,1.792 -3.584,-1.57866 v -4.43734 c 1.83467,-1.57867 4.26667,-3.41334 7.38134,-5.58934 z m -3.37067,1.408 -4.05334,3.20001 v -7.33868 z m 14.42127,-4.13867 v -2.176 h -4.352 l -0.0427,-5.41867 -5.54667,6.95467 -0.0427,0.59734 h 1.49334 v 11.008 c 0,1.23734 -0.384,2.26134 -1.152,3.07201 1.62133,0.55466 3.41333,1.664 5.376,3.24267 l 3.84,-3.32801 -0.46933,-0.59733 -1.19467,0.93867 -2.26133,-1.87734 v -12.41601 z m 8.02132,-9.04534 h -3.15734 l -1.024,4.35201 h 0.55467 z m 1.10933,23.25335 -0.42666,-0.384 -0.768,0.512 c -0.68267,-0.34133 -1.06667,-0.81066 -1.19467,-1.36533 v -11.81868 l 1.06667,-1.19466 -3.28534,-2.73067 -3.15734,2.60267 1.23734,1.32266 v 11.13601 l -0.0427,0.768 c -0.128,1.83467 0.768,3.28534 2.688,4.30934 z m 11.13598,-14.20801 v -2.176 h -4.352 l -0.0427,-5.41867 -5.54667,6.95467 -0.0427,0.59734 h 1.49333 v 11.008 c 0,1.23734 -0.384,2.26134 -1.152,3.07201 1.62133,0.55466 3.41334,1.664 5.376,3.24267 l 3.84001,-3.32801 -0.46934,-0.59733 -1.19466,0.93867 -2.26134,-1.87734 v -12.41601 z m 8.02132,-9.04534 h -3.15733 l -1.02401,4.35201 h 0.55467 z m 1.10934,23.25335 -0.42667,-0.384 -0.768,0.512 c -0.68267,-0.34133 -1.06667,-0.81066 -1.19467,-1.36533 v -11.81868 l 1.06667,-1.19466 -3.28534,-2.73067 -3.15733,2.60267 1.23733,1.32266 v 11.13601 l -0.0427,0.768 c -0.128,1.83467 0.768,3.28534 2.68801,4.30934 z m 15.40262,-0.0853 V 322.7954 c -1.83467,-0.256 -4.09601,-1.23734 -6.78401,-2.98667 -1.74933,1.62133 -3.75467,2.77333 -6.05867,3.41333 v 10.11201 c 0,1.57867 -0.384,2.64534 -1.152,3.28534 2.85867,0.59733 5.41867,1.70667 7.68,3.37067 1.664,-1.408 3.75467,-2.51734 6.31468,-3.28534 z m -4.01067,-0.0853 c -0.46934,-0.128 -1.10934,-0.34134 -1.87734,-0.64 -1.06667,-0.384 -2.09067,-0.81067 -3.02933,-1.19467 v -11.77601 l 4.90667,1.87734 z m 23.97866,0.21333 -0.42667,-0.42667 -0.896,0.512 c -0.55466,-0.384 -0.98133,-0.85333 -1.19466,-1.36533 V 324.3314 c 0.59733,-0.98134 1.23733,-1.87734 1.87733,-2.688 l -0.42667,-0.46934 -1.83466,1.45067 -2.94401,-2.73067 c -1.23733,1.152 -3.072,2.64534 -5.46133,4.39467 0,-1.92 -0.896,-3.41333 -2.68801,-4.48 l -3.49867,3.2 0.42667,0.46933 0.68267,-0.46933 c 0.68267,0.55467 1.024,1.23733 1.024,1.96267 v 10.96534 l -1.19467,1.32267 3.24267,2.73067 3.072,-2.73067 -1.152,-1.45067 V 325.2274 l 3.02934,-2.21867 1.92,1.664 v 10.19734 c 0,2.56 0.55467,3.79734 2.60267,5.12001 z m 26.45322,-0.81067 -0.42666,-0.46933 -1.83467,1.36533 -3.75467,-1.87733 V 322.9234 l 3.84,2.176 1.83467,-2.60267 -4.30934,-2.688 c -1.57867,1.408 -3.328,2.56 -5.248,3.37067 v 10.88001 c 0,1.32266 -0.384,2.34666 -1.152,3.02933 1.83467,0.384 3.79733,1.28 5.888,2.73067 1.70667,-1.23733 3.41334,-2.51734 5.16267,-3.79734 z m 15.65868,0.68267 V 322.7954 c -1.83467,-0.256 -4.096,-1.23734 -6.784,-2.98667 -1.74934,1.62133 -3.75467,2.77333 -6.05868,3.41333 v 10.11201 c 0,1.57867 -0.384,2.64534 -1.152,3.28534 2.85867,0.59733 5.41867,1.70667 7.68001,3.37067 1.664,-1.408 3.75467,-2.51734 6.31467,-3.28534 z m -4.01067,-0.0853 c -0.46933,-0.128 -1.10933,-0.34134 -1.87733,-0.64 -1.06667,-0.384 -2.09067,-0.81067 -3.02934,-1.19467 v -11.77601 l 4.90667,1.87734 z m 33.45064,0.21333 -0.512,-0.42667 -0.81066,0.512 c -0.59734,-0.384 -1.02401,-0.81066 -1.28001,-1.36533 V 324.3314 c 0.21334,-0.384 0.55467,-0.85334 0.93867,-1.408 0.29867,-0.384 0.59734,-0.81067 0.93867,-1.28 l -0.46933,-0.46934 -1.74934,1.45067 -2.90134,-2.73067 c -2.432,2.00534 -4.26666,3.456 -5.54667,4.39467 -0.42666,-1.70667 -1.32266,-3.2 -2.73066,-4.48 l -6.18668,4.52267 c 0,-2.048 -0.93866,-3.54134 -2.77333,-4.52267 l -3.41334,3.2 0.384,0.46933 0.68267,-0.46933 c 0.72533,0.55467 1.06667,1.23733 1.06667,1.96267 v 10.96534 l -1.152,1.32267 3.15733,2.73067 3.11467,-2.73067 -1.152,-1.45067 v -10.41067 l 3.37067,-2.51734 c 1.152,0.768 1.70667,1.45067 1.70667,2.09067 v 10.96534 l -1.28,1.32267 3.28533,2.73067 3.02934,-2.73067 -1.10934,-1.45067 V 325.2274 l 3.02934,-2.21867 1.83467,1.664 v 10.19734 c 0,1.32267 0.17066,2.304 0.512,3.02934 0.384,0.81067 1.10933,1.49333 2.176,2.09067 z m 28.62934,0 -0.512,-0.42667 -0.81067,0.512 c -0.59734,-0.384 -1.024,-0.81066 -1.28,-1.36533 V 324.3314 c 0.21333,-0.384 0.55466,-0.85334 0.93866,-1.408 0.29867,-0.384 0.59734,-0.81067 0.93867,-1.28 l -0.46933,-0.46934 -1.74934,1.45067 -2.90133,-2.73067 c -2.432,2.00534 -4.26667,3.456 -5.54667,4.39467 -0.42667,-1.70667 -1.32267,-3.2 -2.73067,-4.48 l -6.18667,4.52267 c 0,-2.048 -0.93867,-3.54134 -2.77334,-4.52267 l -3.41333,3.2 0.384,0.46933 0.68266,-0.46933 c 0.72534,0.55467 1.06667,1.23733 1.06667,1.96267 v 10.96534 l -1.152,1.32267 3.15734,2.73067 3.11467,-2.73067 -1.15201,-1.45067 v -10.41067 l 3.37067,-2.51734 c 1.152,0.768 1.70667,1.45067 1.70667,2.09067 v 10.96534 l -1.28,1.32267 3.28534,2.73067 3.02933,-2.73067 -1.10933,-1.45067 V 325.2274 l 3.02933,-2.21867 1.83467,1.664 v 10.19734 c 0,1.32267 0.17067,2.304 0.512,3.02934 0.384,0.81067 1.10934,1.49333 2.176,2.09067 z m 14.29332,-11.52001 -5.50401,-5.504 c -1.87733,1.32267 -3.79733,2.47467 -5.76,3.37067 v 11.39201 c 0,1.23733 -0.384,2.26133 -1.19467,3.11466 2.048,0.384 4.01067,1.10934 5.88801,2.13334 l 3.712,-2.60267 c 0.85333,-0.59733 1.62133,-1.10933 2.34667,-1.57867 l -0.46934,-0.512 -2.816,1.792 -3.584,-1.57866 v -4.43734 c 1.83467,-1.57867 4.26667,-3.41334 7.38134,-5.58934 z m -3.37067,1.408 -4.05334,3.20001 v -7.33868 z m 22.14394,10.11201 -0.42666,-0.42667 -0.896,0.512 c -0.55467,-0.384 -0.98134,-0.85333 -1.19467,-1.36533 V 324.3314 c 0.59733,-0.98134 1.23733,-1.87734 1.87733,-2.688 l -0.42666,-0.46934 -1.83467,1.45067 -2.944,-2.73067 c -1.23734,1.152 -3.07201,2.64534 -5.46134,4.39467 0,-1.92 -0.896,-3.41333 -2.688,-4.48 l -3.49867,3.2 0.42666,0.46933 0.68267,-0.46933 c 0.68267,0.55467 1.024,1.23733 1.024,1.96267 v 10.96534 l -1.19467,1.32267 3.24267,2.73067 3.07201,-2.73067 -1.152,-1.45067 V 325.2274 l 3.02933,-2.21867 1.92,1.664 v 10.19734 c 0,2.56 0.55467,3.79734 2.60267,5.12001 z m 12.71464,-0.81067 -0.42667,-0.46933 -1.83467,1.36533 -3.75467,-1.87733 V 322.9234 l 3.84001,2.176 1.83467,-2.60267 -4.30934,-2.688 c -1.57867,1.408 -3.328,2.56 -5.24801,3.37067 v 10.88001 c 0,1.32266 -0.384,2.34666 -1.152,3.02933 1.83467,0.384 3.79734,1.28 5.88801,2.73067 1.70667,-1.23733 3.41333,-2.51734 5.16267,-3.79734 z m 14.25068,-10.70934 -5.50401,-5.504 c -1.87733,1.32267 -3.79733,2.47467 -5.76,3.37067 v 11.39201 c 0,1.23733 -0.384,2.26133 -1.19467,3.11466 2.048,0.384 4.01067,1.10934 5.888,2.13334 l 3.71201,-2.60267 c 0.85333,-0.59733 1.62133,-1.10933 2.34667,-1.57867 l -0.46934,-0.512 -2.816,1.792 -3.584,-1.57866 v -4.43734 c 1.83466,-1.57867 4.26667,-3.41334 7.38134,-5.58934 z m -3.37067,1.408 -4.05334,3.20001 v -7.33868 z m 20.30924,-8.02134 c 0,-1.06666 -0.42667,-1.57866 -1.28,-1.57866 -0.68267,0 -1.024,0.21333 -1.024,0.68266 l 0.21333,0.384 c 0.64,0.81067 0.93867,1.32267 0.93867,1.62134 0,0.81067 -0.81067,1.49333 -1.62133,1.49333 l -1.10934,0.128 c -1.32267,0 -3.11467,-0.59733 -5.46134,-1.74933 -1.57866,1.49333 -3.328,2.688 -5.248,3.54133 v 6.57068 l 4.096,2.26133 -5.07733,7.25334 0.55466,0.384 c 1.49334,-0.64 2.90134,-0.98133 4.30934,-0.98133 1.408,0 2.85867,0.384 4.30934,1.10933 1.19466,-0.81067 2.048,-1.32267 2.51733,-1.62133 0.896,-0.55467 1.83467,-0.98134 2.77334,-1.28001 v -7.85067 l -4.01067,-2.47467 3.88267,-5.248 c 0.81066,-1.10933 1.23733,-2.00534 1.23733,-2.64534 z m -4.13867,5.07734 -4.13867,5.46134 -2.56,-1.32267 0.0427,-4.90667 c 1.57866,0.64 2.98667,0.93867 4.26667,0.93867 0.896,0 1.70666,-0.0427 2.38933,-0.17067 z m -0.512,7.12534 -0.0427,5.67467 c -1.57866,-0.768 -3.11466,-1.152 -4.608,-1.152 -1.06667,0 -2.00533,0.0853 -2.77333,0.256 l 4.736,-6.144 z m 43.13597,5.80267 v -12.28801 c 0,-1.408 -0.98134,-2.944 -2.90134,-4.608 l -5.80267,4.48 c -0.128,-1.664 -1.06667,-3.11467 -2.77334,-4.43734 l -5.76,4.30934 c 0,-1.19467 -0.512,-2.51733 -1.57867,-3.92533 -1.024,-1.45067 -1.536,-2.34667 -1.536,-2.64534 0,-0.85333 0.55467,-1.792 1.70667,-2.816 l -0.21333,-0.34134 c -2.81601,1.49334 -4.22401,3.15734 -4.22401,4.99201 0,1.152 0.64,2.47467 1.87734,3.968 v 9.94134 c 0,1.45067 -0.384,2.56 -1.19467,3.28534 3.02933,0.81066 5.504,1.92 7.46667,3.37067 1.32267,-1.06667 2.60267,-1.62134 3.92534,-1.62134 1.152,0 2.816,0.55467 4.992,1.62134 1.83467,-1.57867 3.84,-2.68801 6.01601,-3.28534 z m -3.62667,0.128 c -0.896,-0.256 -1.536,-0.42667 -1.92,-0.512 -1.15201,-0.29867 -2.17601,-0.64 -3.11467,-0.98133 v -9.94134 l 3.41333,-2.51734 c 0.384,0.384 0.64,0.64 0.81067,0.85333 0.55467,0.55467 0.81067,1.10934 0.81067,1.57867 z m -9.00268,0 c -1.92,-0.64 -3.49867,-1.23733 -4.69333,-1.792 v -9.64267 l 3.15733,-2.51734 c 0.768,0.85333 1.19467,1.32267 1.23734,1.45067 0.21333,0.29866 0.29866,0.64 0.29866,0.98133 z m 21.07729,-23.29602 h -3.15733 l -1.02401,4.35201 h 0.55467 z m 1.10934,23.25335 -0.42667,-0.384 -0.768,0.512 c -0.68267,-0.34133 -1.06667,-0.81066 -1.19467,-1.36533 v -11.81868 l 1.06667,-1.19466 -3.28534,-2.73067 -3.15733,2.60267 1.23733,1.32266 v 11.13601 l -0.0427,0.768 c -0.128,1.83467 0.768,3.28534 2.68801,4.30934 z m 11.13595,-14.20801 v -2.176 h -4.35201 l -0.0427,-5.41867 -5.54668,6.95467 -0.0427,0.59734 h 1.49333 v 11.008 c 0,1.23734 -0.384,2.26134 -1.152,3.07201 1.62134,0.55466 3.41334,1.664 5.37601,3.24267 l 3.84,-3.32801 -0.46934,-0.59733 -1.19466,0.93867 -2.26134,-1.87734 v -12.41601 z m 16.76799,12.71468 v -10.41067 c 0,-2.09067 -0.93867,-3.75467 -2.81601,-4.99201 l -5.97333,4.39467 v -7.552 c 0,-1.53601 0.59733,-2.81601 1.83466,-3.88267 -1.49333,0 -2.85866,0.72533 -4.096,2.13333 l -0.64,0.0427 c -0.72533,-0.55467 -1.62133,-1.024 -2.64533,-1.408 l -0.0853,0.0853 c 1.024,0.93867 1.536,2.34667 1.536,4.26667 v 2.51734 h -2.176 v 2.09066 h 2.09067 v 13.35468 l -1.23733,1.45067 3.2,2.60267 3.24267,-2.81601 -1.10934,-1.23733 v -10.53867 l 3.37067,-2.51734 c 0.896,0.55467 1.45067,1.19467 1.62134,2.00534 v 11.94667 c 0,2.048 -0.768,3.62667 -2.26134,4.736 -0.768,0.55467 -2.51733,1.40801 -5.29067,2.47467 l 0.128,0.256 c 2.944,-0.55466 5.41867,-1.49333 7.33867,-2.77333 2.64534,-1.664 3.96801,-3.71201 3.96801,-6.22934 z m -612.521595,40.6187 v -2.176 h -4.352004 l -0.04267,-5.41867 -5.546671,6.95467 -0.04267,0.59733 h 1.493335 v 11.00801 c 0,1.23733 -0.384001,2.26133 -1.152001,3.072 1.621334,0.55467 3.413336,1.664 5.376004,3.24267 l 3.840003,-3.328 -0.469334,-0.59734 -1.194668,0.93867 -2.261335,-1.87733 v -12.41601 z m 16.767995,12.71467 v -10.41067 c 0,-2.09067 -0.93866,-3.75467 -2.816,-4.992 l -5.97334,4.39467 v -7.55201 c 0,-1.536 0.59734,-2.816 1.83467,-3.88267 -1.49333,0 -2.85867,0.72533 -4.096,2.13334 l -0.64,0.0427 c -0.72534,-0.55467 -1.62134,-1.024 -2.64534,-1.408 l -0.0853,0.0853 c 1.024,0.93867 1.536,2.34667 1.536,4.26667 v 2.51734 h -2.176001 v 2.09067 h 2.090671 v 13.35467 l -1.23734,1.45067 3.20001,2.60267 3.24266,-2.816 -1.10933,-1.23734 v -10.53867 l 3.37067,-2.51734 c 0.896,0.55467 1.45067,1.19467 1.62133,2.00534 v 11.94667 c 0,2.04801 -0.768,3.62667 -2.26133,4.73601 -0.768,0.55467 -2.51734,1.408 -5.29067,2.47467 l 0.128,0.256 c 2.944,-0.55467 5.41867,-1.49334 7.33867,-2.77334 2.64534,-1.664 3.968,-3.712 3.968,-6.22934 z m 14.42134,-9.984 -5.504,-5.50401 c -1.87734,1.32267 -3.79734,2.47467 -5.76001,3.37067 v 11.39201 c 0,1.23733 -0.384,2.26133 -1.19466,3.11467 2.048,0.384 4.01067,1.10933 5.888,2.13333 l 3.712,-2.60266 c 0.85334,-0.59734 1.62134,-1.10934 2.34667,-1.57867 l -0.46933,-0.512 -2.816,1.792 -3.58401,-1.57867 v -4.43734 c 1.83467,-1.57866 4.26667,-3.41333 7.38134,-5.58933 z m -3.37067,1.408 -4.05333,3.2 v -7.33867 z m 31.01856,-1.408 -5.504,-5.50401 c -1.87734,1.32267 -3.79734,2.47467 -5.76001,3.37067 v 11.39201 c 0,1.23733 -0.384,2.26133 -1.19466,3.11467 2.048,0.384 4.01066,1.10933 5.888,2.13333 l 3.712,-2.60266 c 0.85334,-0.59734 1.62134,-1.10934 2.34667,-1.57867 l -0.46933,-0.512 -2.81601,1.792 -3.584,-1.57867 v -4.43734 c 1.83467,-1.57866 4.26667,-3.41333 7.38134,-5.58933 z m -3.37067,1.408 -4.05333,3.2 v -7.33867 z m 18.98661,9.984 v -12.62934 c 0,-1.10933 -0.896,-2.51733 -2.73067,-4.26667 l -6.05867,4.35201 c 0,-1.19467 -0.512,-2.51734 -1.57867,-3.92534 -1.024,-1.45067 -1.536,-2.34667 -1.536,-2.64534 0,-0.85333 0.55466,-1.792 1.70667,-2.816 l -0.21334,-0.34133 c -2.77333,1.49333 -4.13867,3.15733 -4.13867,4.992 0,1.19467 0.59734,2.51734 1.74934,3.968 v 9.94135 c 0,1.45066 -0.384,2.56 -1.19467,3.28533 2.816,0.59734 5.376,1.70667 7.68,3.37067 1.62134,-1.408 3.71201,-2.47467 6.31468,-3.28534 z m -4.01067,-0.0853 -1.83467,-0.64 c -1.23734,-0.42667 -2.21867,-0.81067 -3.02934,-1.19467 v -9.38667 l 3.41334,-2.51734 c 0.98133,1.06667 1.45067,1.87734 1.45067,2.43201 z m 18.64532,-11.30667 -5.504,-5.50401 c -1.87734,1.32267 -3.79734,2.47467 -5.76001,3.37067 v 11.39201 c 0,1.23733 -0.384,2.26133 -1.19466,3.11467 2.048,0.384 4.01067,1.10933 5.888,2.13333 l 3.712,-2.60266 c 0.85334,-0.59734 1.62134,-1.10934 2.34667,-1.57867 l -0.46933,-0.512 -2.816,1.792 -3.58401,-1.57867 v -4.43734 c 1.83467,-1.57866 4.26667,-3.41333 7.38134,-5.58933 z m -3.37067,1.408 -4.05333,3.2 v -7.33867 z m 22.14395,10.112 -0.42667,-0.42666 -0.896,0.512 c -0.55467,-0.384 -0.98133,-0.85334 -1.19467,-1.36534 v -11.22134 c 0.59734,-0.98133 1.23734,-1.87733 1.87734,-2.688 l -0.42667,-0.46933 -1.83467,1.45066 -2.944,-2.73066 c -1.23733,1.152 -3.072,2.64533 -5.46134,4.39467 0,-1.92001 -0.896,-3.41334 -2.688,-4.48001 l -3.49867,3.2 0.42667,0.46934 0.68266,-0.46934 c 0.68267,0.55467 1.02401,1.23734 1.02401,1.96267 v 10.96534 l -1.19467,1.32267 3.24267,2.73067 3.072,-2.73067 -1.152,-1.45067 v -10.58134 l 3.02933,-2.21867 1.92001,1.66401 v 10.19734 c 0,2.56 0.55466,3.79733 2.60266,5.12 z m 8.06395,-23.29601 h -3.15733 l -1.024,4.352 h 0.55466 z m 1.10934,23.25335 -0.42667,-0.384 -0.768,0.512 c -0.68267,-0.34134 -1.06667,-0.81067 -1.19467,-1.36534 v -11.81867 l 1.06667,-1.19467 -3.28534,-2.73067 -3.15733,2.60267 1.23733,1.32267 v 11.13601 l -0.0427,0.768 c -0.128,1.83467 0.768,3.28533 2.688,4.30933 z m 18.85864,0.0427 -0.42667,-0.42666 -0.896,0.512 c -0.55467,-0.384 -0.98134,-0.85334 -1.19467,-1.36534 v -11.22134 c 0.59733,-0.98133 1.23734,-1.87733 1.87734,-2.688 l -0.42667,-0.46933 -1.83467,1.45066 -2.944,-2.73066 c -1.23734,1.152 -3.072,2.64533 -5.46134,4.39467 0,-1.92001 -0.896,-3.41334 -2.688,-4.48001 l -3.49867,3.2 0.42667,0.46934 0.68266,-0.46934 c 0.68267,0.55467 1.024,1.23734 1.024,1.96267 v 10.96534 l -1.19466,1.32267 3.24267,2.73067 3.072,-2.73067 -1.152,-1.45067 v -10.58134 l 3.02933,-2.21867 1.92,1.66401 v 10.19734 c 0,2.56 0.55467,3.79733 2.60267,5.12 z m 18.51729,-11.98934 v -4.05333 l -3.20001,2.00533 -6.528,-2.98667 c -1.83467,0.896 -2.90134,1.408 -3.15734,1.536 -1.23733,0.55467 -2.34666,0.98134 -3.37067,1.19467 v 13.99468 l 3.96801,2.816 -4.60801,5.248 0.896,0.768 c 1.79201,-0.59733 3.45601,-0.896 5.03468,-0.896 1.45066,0 3.24266,0.29867 5.41867,0.896 1.536,-0.72533 2.304,-1.10933 2.304,-1.10933 1.83467,-0.896 2.816,-1.83467 2.944,-2.816 v -0.17067 c 0,-0.46933 -0.512,-1.45067 -1.536,-2.944 -0.98134,-1.536 -1.49334,-2.77334 -1.49334,-3.75467 v -10.24001 z m -7.12534,9.08801 -2.64534,2.688 -2.73067,-1.83467 v -12.11734 l 5.37601,1.536 z m 4.26667,8.36267 -0.0853,0.512 c -2.432,-0.768 -4.69333,-1.152 -6.784,-1.152 -1.57867,0 -2.77334,0.0853 -3.62667,0.256 l 6.10134,-6.74134 c 0.17066,1.49334 0.68267,2.81601 1.536,4.05334 0.512,0.72533 1.45067,1.74933 2.85867,3.072 z m 9.94128,-27.56269 c -1.536,-1.408 -2.56,-2.38933 -3.02934,-2.944 l -3.02933,3.02934 c 1.152,1.152 1.74933,2.09067 1.74933,2.85867 0,0.64 -0.55467,1.536 -1.70667,2.64533 l 0.59734,0.81067 c 2.60266,-1.57867 4.39467,-3.712 5.41867,-6.40001 z m 16.55462,3.96801 c 0,-1.06667 -0.42666,-1.57867 -1.28,-1.57867 -0.68266,0 -1.024,0.21333 -1.024,0.68267 l 0.21334,0.384 c 0.64,0.81066 0.93866,1.32267 0.93866,1.62133 0,0.81067 -0.81066,1.49334 -1.62133,1.49334 l -1.10933,0.128 c -1.32267,0 -3.11467,-0.59734 -5.46134,-1.74934 -1.57867,1.49334 -3.328,2.688 -5.24801,3.54134 v 6.57067 l 4.09601,2.26133 -5.07734,7.25334 0.55467,0.384 c 1.49333,-0.64 2.90133,-0.98133 4.30933,-0.98133 1.408,0 2.85867,0.384 4.30934,1.10933 1.19467,-0.81066 2.048,-1.32266 2.51734,-1.62133 0.896,-0.55467 1.83466,-0.98133 2.77333,-1.28 v -7.85067 l -4.01067,-2.47467 3.88267,-5.24801 c 0.81067,-1.10933 1.23733,-2.00533 1.23733,-2.64533 z m -4.13866,5.07734 -4.13867,5.46133 -2.56001,-1.32267 0.0427,-4.90667 c 1.57867,0.64 2.98667,0.93867 4.26667,0.93867 0.896,0 1.70667,-0.0427 2.38934,-0.17066 z m -0.51201,7.12533 -0.0427,5.67467 c -1.57867,-0.768 -3.11467,-1.152 -4.60801,-1.152 -1.06666,0 -2.00533,0.0853 -2.77333,0.256 l 4.736,-6.144 z m 37.03463,-6.05867 v -4.05333 l -3.2,2.00533 -6.52801,-2.98667 c -1.83466,0.896 -2.90133,1.408 -3.15733,1.536 -1.23734,0.55467 -2.34667,0.98134 -3.37067,1.19467 v 13.99468 l 3.968,2.816 -4.608,5.248 0.896,0.768 c 1.792,-0.59733 3.456,-0.896 5.03467,-0.896 1.45067,0 3.24267,0.29867 5.41867,0.896 1.536,-0.72533 2.304,-1.10933 2.304,-1.10933 1.83467,-0.896 2.816,-1.83467 2.944,-2.816 v -0.17067 c 0,-0.46933 -0.512,-1.45067 -1.536,-2.944 -0.98133,-1.536 -1.49333,-2.77334 -1.49333,-3.75467 v -10.24001 z m -7.12534,9.08801 -2.64533,2.688 -2.73067,-1.83467 v -12.11734 l 5.376,1.536 z m 4.26667,8.36267 -0.0853,0.512 c -2.432,-0.768 -4.69334,-1.152 -6.78401,-1.152 -1.57866,0 -2.77333,0.0853 -3.62667,0.256 l 6.10134,-6.74134 c 0.17067,1.49334 0.68267,2.81601 1.536,4.05334 0.512,0.72533 1.45067,1.74933 2.85867,3.072 z m 14.25062,-5.76 -0.512,-0.55467 -1.024,0.768 -3.11467,-1.96267 v -17.96268 c 0,-1.57866 0.68267,-2.85867 2.09067,-3.88267 -1.57867,0.21334 -3.07201,0.93867 -4.39467,2.17601 l -0.46934,0.0427 c -0.81066,-0.64 -1.74933,-1.10933 -2.816,-1.36533 0.93867,0.98133 1.408,1.87733 1.408,2.73067 v 17.02401 c 0,1.23733 -0.384,2.26133 -1.10933,3.072 2.688,0.98134 4.69333,2.048 6.05867,3.24267 z m 15.2746,0.17066 v -13.90934 c -1.83466,-0.256 -4.096,-1.23733 -6.784,-2.98667 -1.74933,1.62134 -3.75467,2.77334 -6.05867,3.41334 v 10.11201 c 0,1.57866 -0.384,2.64533 -1.152,3.28533 2.85867,0.59734 5.41867,1.70667 7.68,3.37067 1.664,-1.408 3.75467,-2.51733 6.31467,-3.28534 z m -4.01066,-0.0853 c -0.46934,-0.128 -1.10934,-0.34133 -1.87734,-0.64 -1.06667,-0.384 -2.09067,-0.81067 -3.02934,-1.19467 V 376.3421 l 4.90668,1.87734 z m 29.69598,0.0853 v -12.288 c 0,-1.40801 -0.98133,-2.94401 -2.90133,-4.60801 l -5.80267,4.48001 c -0.128,-1.66401 -1.06667,-3.11467 -2.77334,-4.43734 l -5.76,4.30934 c 0,-1.19467 -0.512,-2.51734 -1.57867,-3.92534 -1.024,-1.45067 -1.536,-2.34667 -1.536,-2.64534 0,-0.85333 0.55467,-1.792 1.70667,-2.816 l -0.21334,-0.34133 c -2.816,1.49333 -4.224,3.15733 -4.224,4.992 0,1.152 0.64,2.47467 1.87733,3.968 v 9.94135 c 0,1.45066 -0.384,2.56 -1.19466,3.28533 3.02933,0.81067 5.504,1.92 7.46667,3.37067 1.32267,-1.06667 2.60267,-1.62133 3.92533,-1.62133 1.15201,0 2.81601,0.55466 4.99201,1.62133 1.83467,-1.57867 3.84,-2.688 6.016,-3.28534 z m -3.62667,0.128 c -0.896,-0.256 -1.536,-0.42666 -1.92,-0.512 -1.152,-0.29866 -2.176,-0.64 -3.11467,-0.98133 v -9.94134 l 3.41334,-2.51734 c 0.384,0.384 0.64,0.64 0.81067,0.85334 0.55466,0.55467 0.81066,1.10933 0.81066,1.57867 z m -9.00267,0 c -1.92,-0.64 -3.49867,-1.23733 -4.69334,-1.792 v -9.64267 l 3.15734,-2.51734 c 0.768,0.85334 1.19467,1.32267 1.23733,1.45067 0.21334,0.29867 0.29867,0.64 0.29867,0.98134 z m 21.07727,-0.384 c -0.896,-0.85333 -1.57866,-1.49333 -1.96266,-1.87733 -0.51201,-0.55467 -0.89601,-0.93867 -1.15201,-1.19467 l -3.24266,3.072 c 1.28,1.32267 1.92,2.34667 1.92,3.02934 0,0.72533 -0.64,1.62133 -1.92,2.73067 l 0.768,0.85333 c 2.688,-1.74933 4.52267,-3.968 5.58933,-6.61334 z m -235.60461,53.33338 -0.512,-0.72534 -1.49334,1.19467 c -0.64,-0.64 -0.93866,-1.57867 -0.93866,-2.73067 v -16.64001 c 0,-1.36533 0.68266,-2.816 2.00533,-4.30934 l -0.34133,-0.17066 -2.64534,1.62133 -3.15733,-2.944 -4.05334,4.26667 0.68267,0.64 1.23733,-1.23733 1.45067,1.49333 v 5.46134 c -1.152,0.34133 -2.048,0.512 -2.688,0.512 -0.59734,0 -1.408,-0.17067 -2.43201,-0.512 v -10.62401 h -0.896 c -0.46933,1.024 -1.32266,1.536 -2.47466,1.536 -0.55467,0 -1.32267,-0.17067 -2.34667,-0.512 -2.048,-0.68267 -3.24267,-1.024 -3.54134,-1.024 h -0.384 c -1.49333,0 -2.73067,0.64 -3.712,1.96267 -0.768,1.06667 -1.28,2.38933 -1.536,4.05333 l 0.46933,0.17067 c 0.46933,-1.152 1.23734,-1.96267 2.34667,-2.38933 0.72533,-0.29867 1.87733,-0.42667 3.37067,-0.42667 h 1.792 c 0.81067,0 1.57867,-0.0853 2.38933,-0.21333 l 0.0427,0.17066 c -2.688,1.57867 -4.90667,3.54134 -6.61334,5.88801 -1.92,2.64533 -2.85867,5.376 -2.85867,8.23467 0,1.408 0.29867,2.944 0.89601,4.608 -0.89601,0.98134 -1.83467,1.792 -2.81601,2.432 v -24.49068 h -1.024 c -1.06667,1.152 -2.176,1.74933 -3.328,1.74933 -0.554667,0 -1.280001,-0.128 -2.133335,-0.42666 -2.304002,-0.768 -3.541336,-1.152 -3.75467,-1.19467 l -1.194667,-0.0427 c -1.706668,-0.0427 -3.029336,0.72534 -4.01067,2.30401 -0.810667,1.32266 -1.194667,2.90133 -1.194667,4.69333 l 0.554667,0.17067 c 0.554667,-1.23734 1.066667,-2.09067 1.536001,-2.60267 0.725334,-0.72533 1.621334,-1.06667 2.773335,-1.06667 h 1.066668 l 2.346668,0.128 c 0.640001,0.0427 1.621335,-0.21333 2.944002,-0.68266 l 0.08533,0.17066 c -4.736004,2.60267 -7.722673,6.05867 -8.874674,10.36801 -0.384,1.45067 -0.597333,2.85867 -0.597333,4.26667 0,2.688 0.725334,5.03467 2.218668,7.04001 1.536001,2.21866 4.352003,3.54133 7.082672,3.54133 0.64,0 1.365331,-0.0853 2.218671,-0.29867 2.176,-0.46933 4.30933,-2.26133 6.48534,-5.29067 1.74933,3.75467 4.43733,5.63201 7.97867,5.63201 2.98667,0 6.272,-1.74934 9.89867,-5.24801 0.34134,2.60267 1.28,4.05334 3.54134,5.24801 z m -7.76534,-8.74667 c -0.68267,-0.21334 -1.536,-0.34134 -2.56,-0.34134 -0.98134,0 -1.83467,0.128 -2.51734,0.34134 v -4.39467 c 0.768,0.29866 1.536,0.42666 2.304,0.42666 0.64,0 1.536,-0.128 2.77334,-0.42666 z m -6.01601,8.78934 c -2.56,0 -4.736,-0.72534 -6.528,-2.21867 3.456,-1.92 4.77867,-4.22401 4.77867,-8.19201 v -8.83201 c 0,-1.62133 0.59733,-2.85866 1.74933,-3.75467 z m 6.01601,-2.64534 c -1.664,1.152 -3.328,1.92 -5.07734,2.38933 l -0.0427,-7.68 c 0.98134,-0.29867 1.83467,-0.42667 2.56001,-0.42667 0.72533,0 1.57866,0.128 2.56,0.42667 z m -8.49067,-18.60268 c -2.04801,2.432 -3.07201,4.864 -3.07201,7.296 v 6.65601 c 0,1.83467 -0.512,3.28534 -1.57866,4.43734 -1.45067,-2.09067 -2.17601,-4.26667 -2.17601,-6.61334 0,-2.34667 0.59734,-4.60801 1.83467,-6.78401 1.23734,-2.176 2.85867,-3.88267 4.86401,-5.12 z m -13.48268,21.24802 -0.72533,0.128 c -2.43201,0 -4.565342,-0.76801 -6.314676,-2.34667 1.792001,-1.06667 3.029335,-2.176 3.712006,-3.32801 0.72533,-1.19466 1.06666,-2.816 1.06666,-4.864 v -8.49067 c 0,-2.00534 0.55467,-2.90134 2.26134,-4.09601 z m -2.98667,-21.24802 c -2.176002,2.56 -3.242669,4.992 -3.242669,7.296 v 6.65601 c 0,2.00533 -0.469334,3.49867 -1.408001,4.43734 -1.749335,-1.92001 -2.645335,-4.22401 -2.645335,-6.82668 0,-2.38933 0.64,-4.69333 1.962668,-6.86933 1.322667,-2.17601 3.072002,-3.79734 5.205337,-4.82134 z m 49.06664,20.05335 v -10.41068 c 0,-2.09067 -0.93867,-3.75467 -2.816,-4.992 l -5.97334,4.39467 v -7.55201 c 0,-1.536 0.59733,-2.816 1.83467,-3.88267 -1.49334,0 -2.85867,0.72534 -4.096,2.13334 l -0.64,0.0427 c -0.72534,-0.55467 -1.62134,-1.024 -2.64534,-1.40801 l -0.0853,0.0853 c 1.024,0.93867 1.536,2.34667 1.536,4.26667 v 2.51733 h -2.176 v 2.09067 h 2.09066 v 13.35468 l -1.23733,1.45067 3.2,2.60266 3.24267,-2.816 -1.10933,-1.23733 v -10.53868 l 3.37067,-2.51733 c 0.896,0.55467 1.45066,1.19467 1.62133,2.00533 v 11.94668 c 0,2.048 -0.768,3.62667 -2.26133,4.736 -0.768,0.55467 -2.51734,1.408 -5.29067,2.47467 l 0.128,0.256 c 2.944,-0.55467 5.41867,-1.49333 7.33867,-2.77333 2.64533,-1.66401 3.968,-3.71201 3.968,-6.22934 z m 14.42134,-9.98401 -5.504,-5.504 c -1.87734,1.32266 -3.79734,2.47466 -5.76001,3.37067 v 11.392 c 0,1.23734 -0.384,2.26134 -1.19467,3.11467 2.04801,0.384 4.01067,1.10934 5.88801,2.13334 l 3.712,-2.60267 c 0.85334,-0.59733 1.62134,-1.10934 2.34667,-1.57867 l -0.46933,-0.512 -2.81601,1.792 -3.584,-1.57867 v -4.43733 c 1.83467,-1.57867 4.26667,-3.41334 7.38134,-5.58934 z m -3.37067,1.408 -4.05333,3.2 v -7.33867 z m 22.14395,10.11201 -0.42667,-0.42667 -0.896,0.512 c -0.55467,-0.384 -0.98134,-0.85333 -1.19467,-1.36533 v -11.22134 c 0.59733,-0.98134 1.23733,-1.87734 1.87734,-2.68801 l -0.42667,-0.46933 -1.83467,1.45067 -2.944,-2.73067 c -1.23734,1.152 -3.072,2.64533 -5.46134,4.39467 0,-1.92 -0.896,-3.41334 -2.688,-4.48 l -3.49867,3.2 0.42667,0.46933 0.68266,-0.46933 c 0.68267,0.55467 1.024,1.23733 1.024,1.96267 v 10.96534 l -1.19466,1.32267 3.24267,2.73066 3.072,-2.73066 -1.152,-1.45067 v -10.58134 l 3.02933,-2.21867 1.92,1.664 v 10.19734 c 0,2.56 0.55467,3.79734 2.60267,5.12 z m 24.91724,-14.25068 v -2.176 h -4.352 l -0.0427,-5.41867 -5.54667,6.95467 -0.0427,0.59733 h 1.49334 v 11.00801 c 0,1.23734 -0.384,2.26134 -1.15201,3.07201 1.62134,0.55466 3.41334,1.664 5.37601,3.24266 l 3.84,-3.328 -0.46933,-0.59733 -1.19467,0.93867 -2.26133,-1.87734 v -12.41601 z m 16.768,12.71468 v -10.41068 c 0,-2.09067 -0.93867,-3.75467 -2.81601,-4.992 l -5.97333,4.39467 v -7.55201 c 0,-1.536 0.59733,-2.816 1.83466,-3.88267 -1.49333,0 -2.85866,0.72534 -4.096,2.13334 l -0.64,0.0427 c -0.72533,-0.55467 -1.62133,-1.024 -2.64533,-1.40801 l -0.0853,0.0853 c 1.024,0.93867 1.536,2.34667 1.536,4.26667 v 2.51733 h -2.176 v 2.09067 h 2.09067 v 13.35468 l -1.23733,1.45067 3.2,2.60266 3.24267,-2.816 -1.10934,-1.23733 v -10.53868 l 3.37067,-2.51733 c 0.896,0.55467 1.45067,1.19467 1.62134,2.00533 v 11.94668 c 0,2.048 -0.768,3.62667 -2.26134,4.736 -0.768,0.55467 -2.51733,1.408 -5.29067,2.47467 l 0.128,0.256 c 2.944,-0.55467 5.41867,-1.49333 7.33867,-2.77333 2.64534,-1.66401 3.96801,-3.71201 3.96801,-6.22934 z m 14.42134,-9.98401 -5.504,-5.504 c -1.87734,1.32266 -3.79734,2.47466 -5.76001,3.37067 v 11.392 c 0,1.23734 -0.384,2.26134 -1.19467,3.11467 2.04801,0.384 4.01067,1.10934 5.88801,2.13334 l 3.712,-2.60267 c 0.85334,-0.59733 1.62134,-1.10934 2.34667,-1.57867 l -0.46933,-0.512 -2.81601,1.792 -3.584,-1.57867 v -4.43733 c 1.83467,-1.57867 4.26667,-3.41334 7.38134,-5.58934 z m -3.37067,1.408 -4.05333,3.2 v -7.33867 z m 29.69589,9.30134 -0.42667,-0.46933 -1.83466,1.36533 -3.75467,-1.87733 v -12.11734 l 3.84,2.176 1.83467,-2.60267 -4.30934,-2.688 c -1.57867,1.408 -3.328,2.56 -5.248,3.37067 v 10.88 c 0,1.32267 -0.384,2.34667 -1.152,3.02934 1.83466,0.384 3.79733,1.28 5.888,2.73067 1.70667,-1.23734 3.41334,-2.51734 5.16267,-3.79734 z m 11.77598,0.512 -0.512,-0.55467 -1.024,0.76801 -3.11467,-1.96267 v -17.96268 c 0,-1.57867 0.68267,-2.85867 2.09067,-3.88267 -1.57867,0.21333 -3.07201,0.93866 -4.39467,2.176 l -0.46934,0.0427 c -0.81066,-0.64 -1.74933,-1.10934 -2.816,-1.36534 0.93867,0.98134 1.408,1.87734 1.408,2.73067 v 17.02401 c 0,1.23734 -0.384,2.26134 -1.10933,3.07201 2.688,0.98133 4.69333,2.048 6.05867,3.24266 z m 15.27461,0.17067 v -13.90935 c -1.83467,-0.256 -4.09601,-1.23733 -6.78401,-2.98666 -1.74933,1.62133 -3.75467,2.77333 -6.05867,3.41333 v 10.11201 c 0,1.57867 -0.384,2.64533 -1.152,3.28534 2.85867,0.59733 5.41867,1.70666 7.68,3.37066 1.66401,-1.408 3.75467,-2.51733 6.31468,-3.28533 z m -4.01067,-0.0853 c -0.46934,-0.128 -1.10934,-0.34134 -1.87734,-0.64001 -1.06667,-0.384 -2.09067,-0.81066 -3.02933,-1.19466 v -11.77601 l 4.90667,1.87733 z m 17.79198,-0.59734 -0.42667,-0.46933 -1.83467,1.36533 -3.75467,-1.87733 v -12.11734 l 3.84,2.176 1.83467,-2.60267 -4.30934,-2.688 c -1.57866,1.408 -3.328,2.56 -5.248,3.37067 v 10.88 c 0,1.32267 -0.384,2.34667 -1.152,3.02934 1.83467,0.384 3.79734,1.28 5.888,2.73067 1.70667,-1.23734 3.41334,-2.51734 5.16268,-3.79734 z m 19.07199,0.768 -0.512,-0.55467 -0.81066,0.42667 c -0.46934,-0.64 -0.85334,-1.62133 -1.10934,-2.90133 -0.34133,-1.57867 -0.59733,-2.64534 -0.81067,-3.11467 -0.46933,-1.23734 -1.28,-2.26134 -2.38933,-3.072 1.792,-1.79201 3.11467,-2.98667 3.92534,-3.62667 l -3.88267,-4.09601 -5.54667,4.86401 v -7.97868 c 0,-1.74933 0.68266,-3.02933 2.00533,-3.84 -1.49333,0 -2.85867,0.68267 -4.13867,2.09067 l -0.59733,0.0427 c -0.81067,-0.64 -1.74934,-1.06667 -2.77334,-1.32267 0.98134,0.98133 1.49334,1.96267 1.49334,2.90133 v 3.79734 h -2.17601 v 2.13333 h 2.17601 v 11.52001 c 0,1.32267 -0.34134,2.34667 -1.06667,3.07201 1.70667,0.512 3.75467,1.45066 6.18667,2.816 l 4.096,-4.30934 c 0.29867,2.00534 0.98134,3.41334 2.048,4.18134 z m -5.16267,-10.96534 -6.016,5.16267 v -4.90667 l 3.37067,-3.072 z m -0.98133,8.61867 -2.47467,2.56001 -2.56,-1.32267 v -3.54134 l 2.51733,-2.00533 c 1.45067,1.23733 2.30401,2.64533 2.51734,4.30933 z m 36.99191,-15.74401 c 0,-1.06667 -0.42667,-1.57867 -1.28,-1.57867 -0.68267,0 -1.024,0.21334 -1.024,0.68267 l 0.21333,0.384 c 0.64,0.81067 0.93867,1.32267 0.93867,1.62134 0,0.81066 -0.81067,1.49333 -1.62134,1.49333 l -1.10933,0.128 c -1.32267,0 -3.11467,-0.59733 -5.46134,-1.74933 -1.57866,1.49333 -3.328,2.688 -5.248,3.54133 v 6.57067 l 4.096,2.26134 -5.07734,7.25334 0.55467,0.384 c 1.49334,-0.64 2.90134,-0.98134 4.30934,-0.98134 1.408,0 2.85867,0.384 4.30934,1.10934 1.19466,-0.81067 2.048,-1.32267 2.51733,-1.62134 0.896,-0.55466 1.83467,-0.98133 2.77334,-1.28 v -7.85067 l -4.01067,-2.47467 3.88267,-5.248 c 0.81066,-1.10934 1.23733,-2.00534 1.23733,-2.64534 z m -4.13867,5.07734 -4.13867,5.46134 -2.56,-1.32267 0.0427,-4.90667 c 1.57866,0.64 2.98666,0.93867 4.26667,0.93867 0.896,0 1.70666,-0.0427 2.38933,-0.17067 z m -0.512,7.12534 -0.0427,5.67467 c -1.57866,-0.768 -3.11467,-1.152 -4.608,-1.152 -1.06667,0 -2.00534,0.0853 -2.77334,0.256 l 4.73601,-6.14401 z m 15.95734,-8.32001 v -2.176 h -4.35201 l -0.0427,-5.41867 -5.54667,6.95467 -0.0427,0.59733 h 1.49333 v 11.00801 c 0,1.23734 -0.384,2.26134 -1.152,3.07201 1.62134,0.55466 3.41334,1.664 5.37601,3.24266 l 3.84,-3.328 -0.46933,-0.59733 -1.19467,0.93867 -2.26134,-1.87734 v -12.41601 z m 14.80532,0.29867 -2.77334,-3.02934 -4.30933,3.28534 c -0.128,-0.896 -0.42667,-1.57867 -0.85334,-2.048 -0.34133,-0.384 -0.93866,-0.81067 -1.83466,-1.28 l -3.62667,3.2 0.46933,0.46933 0.72533,-0.46933 c 0.68267,0.55467 1.024,1.23733 1.024,1.96267 v 8.576 c 0,1.408 -0.384,2.432 -1.152,3.07201 2.00534,0.768 3.84001,1.83466 5.46134,3.24266 l 3.88267,-3.328 -0.512,-0.512 -1.23733,0.896 -2.30401,-1.792 v -11.05067 l 1.66401,-1.28001 2.56,2.51734 z m 7.25329,-9.34401 h -3.15734 l -1.024,4.352 h 0.55467 z m 1.10933,23.25335 -0.42667,-0.384 -0.768,0.512 c -0.68266,-0.34133 -1.06666,-0.81067 -1.19466,-1.36533 v -11.81868 l 1.06666,-1.19467 -3.28533,-2.73066 -3.15734,2.60266 1.23734,1.32267 v 11.13601 l -0.0427,0.768 c -0.128,1.83467 0.768,3.28534 2.688,4.30934 z m 18.81596,0 -0.512,-0.55467 -0.81067,0.42667 c -0.46933,-0.64 -0.85333,-1.62133 -1.10933,-2.90133 -0.34134,-1.57867 -0.59734,-2.64534 -0.81067,-3.11467 -0.46934,-1.23734 -1.28,-2.26134 -2.38934,-3.072 1.792,-1.79201 3.11467,-2.98667 3.92534,-3.62667 l -3.88267,-4.09601 -5.54667,4.86401 v -7.97868 c 0,-1.74933 0.68267,-3.02933 2.00533,-3.84 -1.49333,0 -2.85867,0.68267 -4.13867,2.09067 l -0.59733,0.0427 c -0.81067,-0.64 -1.74933,-1.06667 -2.77334,-1.32267 0.98134,0.98133 1.49334,1.96267 1.49334,2.90133 v 3.79734 h -2.176 v 2.13333 h 2.176 v 11.52001 c 0,1.32267 -0.34133,2.34667 -1.06667,3.07201 1.70667,0.512 3.75467,1.45066 6.18667,2.816 l 4.09601,-4.30934 c 0.29866,2.00534 0.98133,3.41334 2.048,4.18134 z m -5.16267,-10.96534 -6.01601,5.16267 v -4.90667 l 3.37067,-3.072 z m -0.98134,8.61867 -2.47467,2.56001 -2.56,-1.32267 v -3.54134 l 2.51734,-2.00533 c 1.45066,1.23733 2.304,2.64533 2.51733,4.30933 z m 20.22398,-9.13067 -5.50401,-5.504 c -1.87733,1.32266 -3.79733,2.47466 -5.76,3.37067 v 11.392 c 0,1.23734 -0.384,2.26134 -1.19467,3.11467 2.048,0.384 4.01067,1.10934 5.888,2.13334 l 3.71201,-2.60267 c 0.85333,-0.59733 1.62133,-1.10934 2.34667,-1.57867 l -0.46934,-0.512 -2.816,1.792 -3.584,-1.57867 v -4.43733 c 1.83467,-1.57867 4.26667,-3.41334 7.38134,-5.58934 z m -3.37067,1.408 -4.05334,3.2 v -7.33867 z m 20.30927,-8.02134 c 0,-1.06667 -0.42666,-1.57867 -1.28,-1.57867 -0.68267,0 -1.024,0.21334 -1.024,0.68267 l 0.21333,0.384 c 0.64001,0.81067 0.93867,1.32267 0.93867,1.62134 0,0.81066 -0.81067,1.49333 -1.62133,1.49333 l -1.10934,0.128 c -1.32266,0 -3.11467,-0.59733 -5.46133,-1.74933 -1.57867,1.49333 -3.32801,2.688 -5.24801,3.54133 v 6.57067 l 4.09601,2.26134 -5.07734,7.25334 0.55467,0.384 c 1.49333,-0.64 2.90133,-0.98134 4.30933,-0.98134 1.408,0 2.85867,0.384 4.30934,1.10934 1.19467,-0.81067 2.048,-1.32267 2.51733,-1.62134 0.896,-0.55466 1.83467,-0.98133 2.77334,-1.28 v -7.85067 l -4.01067,-2.47467 3.88267,-5.248 c 0.81067,-1.10934 1.23733,-2.00534 1.23733,-2.64534 z m -4.13867,5.07734 -4.13867,5.46134 -2.56,-1.32267 0.0427,-4.90667 c 1.57867,0.64 2.98667,0.93867 4.26667,0.93867 0.896,0 1.70667,-0.0427 2.38933,-0.17067 z m -0.512,7.12534 -0.0427,5.67467 c -1.57867,-0.768 -3.11467,-1.152 -4.60801,-1.152 -1.06666,0 -2.00533,0.0853 -2.77333,0.256 l 4.736,-6.14401 z m 35.58396,-12.20268 c 0,-1.06667 -0.42667,-1.57867 -1.28,-1.57867 -0.68267,0 -1.024,0.21334 -1.024,0.68267 l 0.21333,0.384 c 0.64,0.81067 0.93867,1.32267 0.93867,1.62134 0,0.81066 -0.81067,1.49333 -1.62133,1.49333 l -1.10934,0.128 c -1.32267,0 -3.11467,-0.59733 -5.46134,-1.74933 -1.57866,1.49333 -3.328,2.688 -5.248,3.54133 v 6.57067 l 4.096,2.26134 -5.07733,7.25334 0.55466,0.384 c 1.49334,-0.64 2.90134,-0.98134 4.30934,-0.98134 1.408,0 2.85867,0.384 4.30934,1.10934 1.19466,-0.81067 2.048,-1.32267 2.51733,-1.62134 0.896,-0.55466 1.83467,-0.98133 2.77334,-1.28 v -7.85067 l -4.01067,-2.47467 3.88267,-5.248 c 0.81066,-1.10934 1.23733,-2.00534 1.23733,-2.64534 z m -4.13867,5.07734 -4.13867,5.46134 -2.56,-1.32267 0.0427,-4.90667 c 1.57866,0.64 2.98667,0.93867 4.26667,0.93867 0.896,0 1.70666,-0.0427 2.38933,-0.17067 z m -0.512,7.12534 -0.0427,5.67467 c -1.57866,-0.768 -3.11466,-1.152 -4.608,-1.152 -1.06667,0 -2.00533,0.0853 -2.77333,0.256 l 4.736,-6.14401 z m 12.84267,-17.36535 h -3.15734 l -1.024,4.352 h 0.55467 z m 1.10933,23.25335 -0.42666,-0.384 -0.768,0.512 c -0.68267,-0.34133 -1.06667,-0.81067 -1.19467,-1.36533 v -11.81868 l 1.06667,-1.19467 -3.28534,-2.73066 -3.15734,2.60266 1.23734,1.32267 v 11.13601 l -0.0427,0.768 c -0.128,1.83467 0.768,3.28534 2.688,4.30934 z m 18.85866,0 -0.384,-0.42666 -1.152,0.68266 c -1.06667,-0.81067 -1.96267,-1.92 -2.73067,-3.328 l -3.28534,-5.93067 2.00534,-4.224 3.28533,1.49333 1.32267,-3.072 -3.92534,-2.13334 -3.02933,6.86934 c -0.98134,-1.57867 -1.74934,-2.90133 -2.34667,-3.88267 -0.81067,-1.28 -1.92,-2.26133 -3.24267,-2.98667 l -3.92534,3.02934 0.34134,0.384 1.408,-0.85334 c 1.152,0.64001 2.00533,1.45067 2.56,2.51734 l 3.02934,5.46134 -2.47467,5.33333 -3.37067,-1.19466 -1.32267,3.15733 3.968,2.26134 3.66934,-8.57601 c 2.048,3.584 3.2,5.54667 3.41334,5.88801 0.81066,1.152 1.70666,2.09066 2.688,2.73066 z m 30.71989,0 -0.46934,-0.384 -0.768,0.384 c -0.55466,-0.17066 -0.98133,-0.59733 -1.19466,-1.32267 v -11.17867 c 0.29866,-1.152 0.768,-2.21867 1.45066,-3.28534 l -0.0853,-0.17066 -1.19467,0.93866 -6.05867,-2.00533 c -1.32267,1.23733 -2.816,1.792 -4.39467,1.664 l -0.55467,-0.0427 2.04801,5.33334 c -2.81601,2.51734 -4.22401,5.07734 -4.22401,7.72267 0,1.74934 1.024,3.58401 3.02934,5.46134 h 0.21333 l 5.80267,-4.65067 c 0,2.09067 0.896,3.62667 2.73067,4.608 z m -6.40001,-8.02134 -4.39467,-2.13333 -1.792,-4.86401 6.18667,2.30401 z m 0.0427,5.37601 -3.2,2.73067 c -1.664,-1.66401 -2.47467,-3.45601 -2.47467,-5.37601 0,-1.32267 0.42667,-2.73067 1.23733,-4.18133 l 4.43734,2.21866 z m 25.17337,2.688 -0.42667,-0.42667 -0.896,0.512 c -0.55467,-0.384 -0.98134,-0.85333 -1.19467,-1.36533 v -11.22134 c 0.59733,-0.98134 1.23734,-1.87734 1.87734,-2.68801 l -0.42667,-0.46933 -1.83467,1.45067 -2.944,-2.73067 c -1.23734,1.152 -3.072,2.64533 -5.46134,4.39467 0,-1.92 -0.896,-3.41334 -2.688,-4.48 l -3.49867,3.2 0.42667,0.46933 0.68266,-0.46933 c 0.68267,0.55467 1.024,1.23733 1.024,1.96267 v 10.96534 l -1.19466,1.32267 3.24267,2.73066 3.072,-2.73066 -1.152,-1.45067 v -10.58134 l 3.02933,-2.21867 1.92,1.664 v 10.19734 c 0,2.56 0.55467,3.79734 2.60267,5.12 z m 16.25597,-14.16535 c 0,-0.64 0.128,-1.23733 0.34133,-1.83466 -0.72533,0.29866 -1.32267,0.768 -1.70667,1.408 l -12.97067,-8.27734 v 4.05333 l 5.41867,3.49867 c -1.57867,0.81067 -2.85867,1.36534 -3.88267,1.62134 v 10.19734 c 0,1.49333 -0.384,2.56 -1.19467,3.28534 2.816,0.59733 5.376,1.70666 7.68001,3.37066 1.74933,-1.408 3.84,-2.47466 6.31467,-3.28533 z m -4.05334,13.95202 -4.77867,-1.70667 v -11.64801 l 1.408,-0.85334 3.37067,2.26134 z m 29.61061,-14.03735 v -2.176 h -4.352 l -0.0427,-5.41867 -5.54667,6.95467 -0.0427,0.59733 h 1.49333 v 11.00801 c 0,1.23734 -0.384,2.26134 -1.152,3.07201 1.62133,0.55466 3.41333,1.664 5.376,3.24266 l 3.84001,-3.328 -0.46934,-0.59733 -1.19467,0.93867 -2.26133,-1.87734 v -12.41601 z m 16.76799,12.71468 v -10.41068 c 0,-2.09067 -0.93866,-3.75467 -2.816,-4.992 l -5.97334,4.39467 v -7.55201 c 0,-1.536 0.59734,-2.816 1.83467,-3.88267 -1.49333,0 -2.85867,0.72534 -4.096,2.13334 l -0.64,0.0427 c -0.72534,-0.55467 -1.62134,-1.024 -2.64534,-1.40801 l -0.0853,0.0853 c 1.024,0.93867 1.536,2.34667 1.536,4.26667 v 2.51733 h -2.176 v 2.09067 h 2.09067 v 13.35468 l -1.23734,1.45067 3.20001,2.60266 3.24266,-2.816 -1.10933,-1.23733 v -10.53868 l 3.37067,-2.51733 c 0.896,0.55467 1.45067,1.19467 1.62133,2.00533 v 11.94668 c 0,2.048 -0.768,3.62667 -2.26133,4.736 -0.768,0.55467 -2.51734,1.408 -5.29067,2.47467 l 0.128,0.256 c 2.944,-0.55467 5.41867,-1.49333 7.33867,-2.77333 2.64534,-1.66401 3.968,-3.71201 3.968,-6.22934 z m 8.44803,-21.76002 h -3.15733 l -1.024,4.352 h 0.55466 z m 1.10934,23.25335 -0.42667,-0.384 -0.768,0.512 c -0.68267,-0.34133 -1.06667,-0.81067 -1.19467,-1.36533 v -11.81868 l 1.06667,-1.19467 -3.28534,-2.73066 -3.15733,2.60266 1.23733,1.32267 v 11.13601 l -0.0427,0.768 c -0.128,1.83467 0.76801,3.28534 2.68801,4.30934 z m 14.80528,-13.90934 -2.77333,-3.02934 -4.30934,3.28534 c -0.128,-0.896 -0.42667,-1.57867 -0.85333,-2.048 -0.34134,-0.384 -0.93867,-0.81067 -1.83467,-1.28 l -3.62667,3.2 0.46933,0.46933 0.72534,-0.46933 c 0.68266,0.55467 1.024,1.23733 1.024,1.96267 v 8.576 c 0,1.408 -0.384,2.432 -1.152,3.07201 2.00533,0.768 3.84,1.83466 5.46133,3.24266 l 3.88267,-3.328 -0.512,-0.512 -1.23733,0.896 -2.304,-1.792 v -11.05067 l 1.664,-1.28001 2.56,2.51734 z m 10.36796,-0.29867 v -2.176 h -4.352 l -0.0427,-5.41867 -5.54667,6.95467 -0.0427,0.59733 h 1.49334 v 11.00801 c 0,1.23734 -0.384,2.26134 -1.152,3.07201 1.62133,0.55466 3.41333,1.664 5.376,3.24266 l 3.84,-3.328 -0.46933,-0.59733 -1.19467,0.93867 -2.26133,-1.87734 v -12.41601 z m 16.55466,4.01067 c 0,-2.64533 -0.85334,-4.90667 -2.60267,-6.74134 l -5.76001,4.52267 c 0,-2.09067 -0.896,-3.584 -2.73067,-4.56533 l -4.096,3.584 0.46934,0.55467 1.36533,-0.98134 c 0.68267,0.64 1.024,1.28 1.024,2.00534 v 11.30667 c 0,0.384 -0.55467,1.28 -1.70667,2.77334 -1.10933,1.49333 -1.664,2.64533 -1.664,3.54133 v 0.34134 c 0.17067,1.62133 1.62134,2.432 4.352,2.432 h 0.59734 c 0.68267,0 1.49333,-0.17067 2.432,-0.46934 1.23733,-0.384 1.83467,-0.896 1.83467,-1.49333 -0.0427,-0.21333 -0.0427,-0.29867 -0.0853,-0.34133 -0.128,-0.21334 -0.29866,-0.29867 -0.512,-0.29867 -0.384,0 -0.98133,0.384 -1.792,1.10933 -0.64,0.46934 -1.536,0.72534 -2.64533,0.72534 -0.85334,0 -1.57867,-0.17067 -2.176,-0.46934 -0.768,-0.384 -1.152,-0.98133 -1.152,-1.74933 l -0.0427,-0.21333 c 0,-0.98134 0.98133,-2.09067 2.90133,-3.32801 1.62134,-0.896 2.94401,-1.62133 3.92534,-2.13333 2.34667,-1.19467 4.18134,-2.56 5.54667,-4.05334 1.664,-1.83467 2.51734,-3.88267 2.51734,-6.05867 z m -3.58401,1.19467 c 0,1.49333 -0.512,3.02933 -1.536,4.608 -0.896,1.32267 -2.00533,2.51734 -3.37067,3.54134 v -10.45334 l 2.90134,-2.26134 c 1.32267,1.152 2.00533,2.688 2.00533,4.56534 z m 11.34931,8.66134 c -0.896,-0.85334 -1.57867,-1.49334 -1.96267,-1.87734 -0.512,-0.55466 -0.896,-0.93866 -1.152,-1.19466 l -3.24267,3.072 c 1.28,1.32267 1.92,2.34667 1.92,3.02933 0,0.72534 -0.64,1.62134 -1.92,2.73067 l 0.768,0.85334 c 2.68801,-1.74934 4.52267,-3.96801 5.58934,-6.61334 z m 24.53325,-13.86668 v -2.176 h -4.352 l -0.0427,-5.41867 -5.54667,6.95467 -0.0427,0.59733 h 1.49334 v 11.00801 c 0,1.23734 -0.384,2.26134 -1.152,3.07201 1.62133,0.55466 3.41333,1.664 5.376,3.24266 l 3.84,-3.328 -0.46933,-0.59733 -1.19467,0.93867 -2.26133,-1.87734 v -12.41601 z m 16.76799,12.71468 v -10.41068 c 0,-2.09067 -0.93867,-3.75467 -2.816,-4.992 l -5.97334,4.39467 v -7.55201 c 0,-1.536 0.59733,-2.816 1.83467,-3.88267 -1.49334,0 -2.85867,0.72534 -4.096,2.13334 l -0.64001,0.0427 c -0.72533,-0.55467 -1.62133,-1.024 -2.64533,-1.40801 l -0.0853,0.0853 c 1.024,0.93867 1.536,2.34667 1.536,4.26667 v 2.51733 h -2.176 v 2.09067 h 2.09066 v 13.35468 l -1.23733,1.45067 3.2,2.60266 3.24267,-2.816 -1.10933,-1.23733 v -10.53868 l 3.37067,-2.51733 c 0.896,0.55467 1.45066,1.19467 1.62133,2.00533 v 11.94668 c 0,2.048 -0.768,3.62667 -2.26133,4.736 -0.76801,0.55467 -2.51734,1.408 -5.29068,2.47467 l 0.128,0.256 c 2.94401,-0.55467 5.41868,-1.49333 7.33868,-2.77333 2.64533,-1.66401 3.968,-3.71201 3.968,-6.22934 z m 14.42137,-9.98401 -5.50401,-5.504 c -1.87733,1.32266 -3.79733,2.47466 -5.76,3.37067 v 11.392 c 0,1.23734 -0.384,2.26134 -1.19467,3.11467 2.048,0.384 4.01067,1.10934 5.88801,2.13334 l 3.712,-2.60267 c 0.85333,-0.59733 1.62133,-1.10934 2.34667,-1.57867 l -0.46934,-0.512 -2.816,1.792 -3.584,-1.57867 v -4.43733 c 1.83467,-1.57867 4.26667,-3.41334 7.38134,-5.58934 z m -3.37067,1.408 -4.05334,3.2 v -7.33867 z m -613.5456,63.44538 -0.42667,-0.42666 -0.896,0.512 c -0.55467,-0.384 -0.98133,-0.85334 -1.19467,-1.36534 v -11.22134 c 0.59734,-0.98133 1.23734,-1.87733 1.87734,-2.688 l -0.42667,-0.46934 -1.83467,1.45067 -2.944001,-2.73067 c -1.237334,1.152 -3.072002,2.64534 -5.461337,4.39467 0,-1.92 -0.896001,-3.41333 -2.688002,-4.48 l -3.498669,3.2 0.426667,0.46934 0.682667,-0.46934 c 0.682667,0.55467 1.024001,1.23734 1.024001,1.96267 v 10.96534 l -1.194668,1.32267 3.242669,2.73067 3.072002,-2.73067 -1.152,-1.45067 v -10.58134 l 3.029335,-2.21867 1.920002,1.664 v 10.19734 c 0,2.56001 0.554667,3.79734 2.602664,5.12001 z m 15.44529,-0.128 v -13.90934 c -1.83466,-0.256 -4.096,-1.23734 -6.784,-2.98667 -1.74933,1.62133 -3.75467,2.77334 -6.05867,3.41334 v 10.112 c 0,1.57867 -0.384,2.64534 -1.152,3.28534 2.85867,0.59733 5.41867,1.70667 7.68,3.37067 1.664,-1.408 3.75467,-2.51734 6.31467,-3.28534 z m -4.01066,-0.0853 c -0.46934,-0.128 -1.10934,-0.34133 -1.87734,-0.64 -1.06667,-0.384 -2.09067,-0.81067 -3.02934,-1.19467 v -11.77601 l 4.90668,1.87734 z m 21.88798,0.17067 v -11.90401 c 0,-2.09067 -0.93867,-3.75467 -2.81601,-4.99201 l -6.05867,4.39467 v -7.552 c 0,-1.49334 0.64,-2.77334 1.92,-3.88267 -1.49333,0 -2.85867,0.72533 -4.096,2.13333 l -0.64,0.0427 c -0.72533,-0.55467 -1.62133,-1.024 -2.64534,-1.408 l -0.128,0.128 c 1.15201,1.19467 1.70667,2.51733 1.66401,3.92534 l -0.0853,2.73066 h -2.176 v 2.17601 h 2.176 v 10.496 c 0,1.23734 -0.384,2.30401 -1.19467,3.15734 2.38934,0.46933 5.03468,1.664 7.93601,3.584 2.21867,-1.536 4.26667,-2.56 6.14401,-3.02933 z m -3.88267,-0.256 -4.99201,-2.21867 v -8.83201 l 3.37067,-2.51733 c 0.93867,0.64 1.49334,1.28 1.62134,2.00533 z m 15.53067,0 -0.512,-0.55467 -1.024,0.768 -3.11467,-1.96267 v -17.96268 c 0,-1.57867 0.68267,-2.85867 2.09067,-3.88267 -1.57867,0.21334 -3.07201,0.93867 -4.39467,2.176 l -0.46934,0.0427 c -0.81066,-0.64 -1.74933,-1.10933 -2.816,-1.36533 0.93867,0.98133 1.408,1.87733 1.408,2.73066 v 17.02402 c 0,1.23733 -0.384,2.26133 -1.10933,3.072 2.688,0.98133 4.69334,2.048 6.05867,3.24267 z m 13.8666,-11.22135 -5.504,-5.504 c -1.87734,1.32267 -3.79734,2.47467 -5.76001,3.37067 v 11.39201 c 0,1.23733 -0.384,2.26133 -1.19466,3.11467 2.048,0.384 4.01066,1.10933 5.888,2.13333 l 3.712,-2.60267 c 0.85334,-0.59733 1.62134,-1.10933 2.34667,-1.57866 l -0.46933,-0.51201 -2.81601,1.79201 -3.584,-1.57867 v -4.43734 c 1.83467,-1.57867 4.26667,-3.41333 7.38134,-5.58934 z m -3.37067,1.40801 -4.05333,3.2 v -7.33867 z m 35.49856,-1.87734 v -4.05334 l -3.2,2.00534 -6.528,-2.98667 c -1.83467,0.896 -2.90134,1.408 -3.15734,1.536 -1.23733,0.55467 -2.34667,0.98134 -3.37067,1.19467 v 13.99468 l 3.968,2.816 -4.608,5.248 0.896,0.768 c 1.792,-0.59733 3.456,-0.896 5.03467,-0.896 1.45067,0 3.24267,0.29867 5.41867,0.896 1.536,-0.72533 2.304,-1.10933 2.304,-1.10933 1.83467,-0.896 2.81601,-1.83467 2.94401,-2.816 v -0.17067 c 0,-0.46933 -0.512,-1.45067 -1.53601,-2.944 -0.98133,-1.536 -1.49333,-2.77334 -1.49333,-3.75467 v -10.24001 z m -7.12534,9.08801 -2.64533,2.688 -2.73067,-1.83467 v -12.11734 l 5.376,1.536 z m 4.26667,8.36267 -0.0853,0.512 c -2.432,-0.768 -4.69334,-1.152 -6.784,-1.152 -1.57867,0 -2.77334,0.0853 -3.62667,0.256 l 6.10133,-6.74134 c 0.17067,1.49334 0.68267,2.816 1.536,4.05334 0.51201,0.72533 1.45067,1.74933 2.85867,3.072 z m 19.66928,-5.504 -0.46933,-0.384 -0.768,0.384 c -0.55467,-0.17067 -0.98134,-0.59734 -1.19467,-1.32267 v -11.17868 c 0.29867,-1.152 0.768,-2.21866 1.45067,-3.28533 l -0.0853,-0.17067 -1.19466,0.93867 -6.05867,-2.00534 c -1.32267,1.23734 -2.81601,1.792 -4.39467,1.664 l -0.55467,-0.0427 2.048,5.33334 c -2.816,2.51733 -4.224,5.07733 -4.224,7.72267 0,1.74933 1.024,3.584 3.02933,5.46134 h 0.21334 l 5.80267,-4.65068 c 0,2.09067 0.896,3.62667 2.73067,4.60801 z m -6.4,-8.02134 -4.39467,-2.13334 -1.792,-4.864 6.18667,2.304 z m 0.0427,5.376 -3.2,2.73067 c -1.664,-1.664 -2.47467,-3.456 -2.47467,-5.376 0,-1.32267 0.42667,-2.73067 1.23734,-4.18134 l 4.43733,2.21867 z m 34.64536,2.688 -0.512,-0.42666 -0.81067,0.512 c -0.59733,-0.384 -1.024,-0.81067 -1.28,-1.36534 v -11.22134 c 0.21334,-0.384 0.55467,-0.85333 0.93867,-1.408 0.29867,-0.384 0.59733,-0.81067 0.93867,-1.28 l -0.46934,-0.46934 -1.74933,1.45067 -2.90134,-2.73067 c -2.432,2.00534 -4.26667,3.45601 -5.54667,4.39467 -0.42666,-1.70666 -1.32266,-3.2 -2.73066,-4.48 l -6.18668,4.52267 c 0,-2.048 -0.93866,-3.54134 -2.77333,-4.52267 l -3.41334,3.2 0.384,0.46934 0.68267,-0.46934 c 0.72533,0.55467 1.06667,1.23734 1.06667,1.96267 v 10.96534 l -1.152,1.32267 3.15733,2.73067 3.11467,-2.73067 -1.152,-1.45067 v -10.41067 l 3.37067,-2.51734 c 1.152,0.768 1.70667,1.45067 1.70667,2.09067 v 10.96534 l -1.28,1.32267 3.28533,2.73067 3.02934,-2.73067 -1.10934,-1.45067 v -10.58134 l 3.02934,-2.21867 1.83467,1.664 v 10.19734 c 0,1.32267 0.17066,2.30401 0.512,3.02934 0.384,0.81067 1.10933,1.49333 2.176,2.09067 z m 14.29333,-11.52001 -5.504,-5.504 c -1.87734,1.32267 -3.79734,2.47467 -5.76001,3.37067 v 11.39201 c 0,1.23733 -0.384,2.26133 -1.19466,3.11467 2.048,0.384 4.01067,1.10933 5.888,2.13333 l 3.712,-2.60267 c 0.85334,-0.59733 1.62134,-1.10933 2.34667,-1.57866 l -0.46933,-0.51201 -2.816,1.79201 -3.58401,-1.57867 v -4.43734 c 1.83467,-1.57867 4.26667,-3.41333 7.38134,-5.58934 z m -3.37067,1.40801 -4.05333,3.2 v -7.33867 z m 20.30928,-8.02134 c 0,-1.06667 -0.42667,-1.57867 -1.28,-1.57867 -0.68267,0 -1.024,0.21333 -1.024,0.68267 l 0.21333,0.384 c 0.64,0.81066 0.93867,1.32266 0.93867,1.62133 0,0.81067 -0.81067,1.49333 -1.62134,1.49333 l -1.10933,0.128 c -1.32267,0 -3.11467,-0.59733 -5.46134,-1.74933 -1.57867,1.49333 -3.328,2.688 -5.248,3.54134 v 6.57067 l 4.096,2.26133 -5.07734,7.25334 0.55467,0.384 c 1.49334,-0.64 2.90134,-0.98133 4.30934,-0.98133 1.408,0 2.85867,0.384 4.30933,1.10933 1.19467,-0.81067 2.04801,-1.32267 2.51734,-1.62133 0.896,-0.55467 1.83467,-0.98134 2.77334,-1.28 v -7.85068 l -4.01067,-2.47466 3.88267,-5.24801 c 0.81066,-1.10933 1.23733,-2.00533 1.23733,-2.64533 z m -4.13867,5.07733 -4.13867,5.46134 -2.56,-1.32267 0.0427,-4.90667 c 1.57867,0.64 2.98667,0.93867 4.26667,0.93867 0.89601,0 1.70667,-0.0427 2.38934,-0.17067 z m -0.512,7.12534 -0.0427,5.67467 c -1.57867,-0.768 -3.11467,-1.152 -4.608,-1.152 -1.06667,0 -2.00534,0.0853 -2.77334,0.256 l 4.73601,-6.144 z m 37.46129,5.93067 -0.42666,-0.42666 -0.768,0.512 c -0.85334,-0.46934 -1.28001,-0.896 -1.28001,-1.36534 v -12.16001 l 1.23734,-1.06666 -3.15734,-2.51734 -3.02933,2.51734 1.024,1.28 v 10.70934 l -3.456,2.47467 c -1.02401,-0.55467 -1.53601,-1.23734 -1.53601,-2.04801 v -11.34934 l 1.28001,-1.024 -3.24267,-2.51733 -4.09601,3.15733 0.42667,0.46934 0.98133,-0.59734 0.768,0.72534 v 11.264 c 0,2.13334 0.89601,3.79734 2.68801,4.94934 l 6.10133,-4.352 c 0,1.792 0.89601,3.28533 2.68801,4.52267 z m 18.85863,0 -0.42667,-0.42666 -0.896,0.512 c -0.55467,-0.384 -0.98133,-0.85334 -1.19467,-1.36534 v -11.22134 c 0.59734,-0.98133 1.23734,-1.87733 1.87734,-2.688 l -0.42667,-0.46934 -1.83467,1.45067 -2.944,-2.73067 c -1.23733,1.152 -3.072,2.64534 -5.46134,4.39467 0,-1.92 -0.896,-3.41333 -2.688,-4.48 l -3.49867,3.2 0.42667,0.46934 0.68266,-0.46934 c 0.68267,0.55467 1.02401,1.23734 1.02401,1.96267 v 10.96534 l -1.19467,1.32267 3.24267,2.73067 3.072,-2.73067 -1.152,-1.45067 v -10.58134 l 3.02933,-2.21867 1.92001,1.664 v 10.19734 c 0,2.56001 0.55466,3.79734 2.60266,5.12001 z m 13.0133,-0.768 -0.46933,-0.512 -1.45067,1.19467 -3.072,-1.96267 v -12.20267 h 2.90133 l 0.29867,-2.17601 h -3.2 v -4.352 l 3.66933,0.768 0.85334,-2.944 -4.09601,-0.98134 c -1.664,1.49334 -3.2,2.51734 -4.65067,3.15734 v 4.352 h -1.87733 l -0.384,2.17601 h 2.176 v 10.96534 c 0,1.32266 -0.34134,2.34667 -1.06667,3.072 2.51734,0.98133 4.56534,2.048 6.14401,3.24267 z m 15.35999,0.64 v -13.90934 c -1.83466,-0.256 -4.096,-1.23734 -6.784,-2.98667 -1.74934,1.62133 -3.75467,2.77334 -6.05867,3.41334 v 10.112 c 0,1.57867 -0.384,2.64534 -1.152,3.28534 2.85867,0.59733 5.41867,1.70667 7.68,3.37067 1.664,-1.408 3.75467,-2.51734 6.31467,-3.28534 z m -4.01067,-0.0853 c -0.46933,-0.128 -1.10933,-0.34133 -1.87733,-0.64 -1.06667,-0.384 -2.09067,-0.81067 -3.02934,-1.19467 v -11.77601 l 4.90667,1.87734 z m 16.63997,-0.0853 -0.512,-0.55467 -1.024,0.768 -3.11467,-1.96267 v -17.96268 c 0,-1.57867 0.68266,-2.85867 2.09067,-3.88267 -1.57867,0.21334 -3.07201,0.93867 -4.39467,2.176 l -0.46934,0.0427 c -0.81067,-0.64 -1.74933,-1.10933 -2.816,-1.36533 0.93867,0.98133 1.408,1.87733 1.408,2.73066 v 17.02402 c 0,1.23733 -0.384,2.26133 -1.10933,3.072 2.688,0.98133 4.69333,2.048 6.05867,3.24267 z m 16.08527,-13.86668 c 0,-0.64 0.128,-1.23734 0.34134,-1.83467 -0.72534,0.29867 -1.32267,0.768 -1.70667,1.408 l -12.97068,-8.27734 v 4.05334 l 5.41867,3.49867 c -1.57867,0.81067 -2.85867,1.36533 -3.88267,1.62133 v 10.19734 c 0,1.49334 -0.384,2.56001 -1.19467,3.28534 2.81601,0.59733 5.37601,1.70667 7.68001,3.37067 1.74934,-1.408 3.84,-2.47467 6.31467,-3.28534 z m -4.05333,13.95201 -4.77867,-1.70667 v -11.64801 l 1.408,-0.85333 3.37067,2.26133 z m 12.62935,0.17067 c -0.81067,-0.72534 -1.87733,-1.83467 -3.24267,-3.41334 l -3.37067,3.24267 c 0.85334,1.23733 1.87734,2.34667 3.11467,3.328 z"
       id="text1-4"
       style="font-size:42.6667px;font-family:'Old London Alternate';-inkscape-font-specification:'Old London Alternate, Normal';white-space:pre;stroke-width:2.26772"
       transform="matrix(0.26458333,0,0,0.26458333,-8.3833755,-9.0450607)"
       aria-label="On Year of our Lord 2024&#10;First Day of the First Month&#10;&#10;The jousting competition commences with the evening's glow,&#10;When the clock strikes six and thirty, the noble games unfold." />
  </g>
</svg>
