<?xml version="1.0" encoding="UTF-8" standalone="no"?>
<!-- Created with Inkscape (http://www.inkscape.org/) -->

<svg
   width="200mm"
   height="200mm"
   viewBox="0 0 200 200"
   version="1.1"
   id="svg1"
   inkscape:version="1.3 (0e150ed, 2023-07-21)"
   sodipodi:docname="jousting2.svg"
   xmlns:inkscape="http://www.inkscape.org/namespaces/inkscape"
   xmlns:sodipodi="http://sodipodi.sourceforge.net/DTD/sodipodi-0.dtd"
   xmlns="http://www.w3.org/2000/svg"
   xmlns:svg="http://www.w3.org/2000/svg">
  <sodipodi:namedview
     id="namedview1"
     pagecolor="#ffffff"
     bordercolor="#000000"
     borderopacity="0.25"
     inkscape:showpageshadow="2"
     inkscape:pageopacity="0.0"
     inkscape:pagecheckerboard="0"
     inkscape:deskcolor="#d1d1d1"
     inkscape:document-units="mm"
     inkscape:zoom="0.84096521"
     inkscape:cx="417.37755"
     inkscape:cy="463.75283"
     inkscape:window-width="1680"
     inkscape:window-height="997"
     inkscape:window-x="0"
     inkscape:window-y="25"
     inkscape:window-maximized="0"
     inkscape:current-layer="layer1" />
  <defs
     id="defs1">
    <rect
       x="87.994128"
       y="139.12585"
       width="740.81544"
       height="499.42613"
       id="rect1" />
    <rect
       x="87.994125"
       y="139.12585"
       width="642.11932"
       height="566.01628"
       id="rect1-5" />
  </defs>
  <g
     inkscape:label="Layer 1"
     inkscape:groupmode="layer"
     id="layer1">
    <path
       d="m 23.924547,80.000053 -0.04516,-0.293513 c -1.286931,0.474133 -2.325507,0.722489 -3.070574,0.722489 -0.338667,0 -0.8128,-0.06773 -1.4224,-0.180623 -0.383819,-0.06773 -0.699906,-0.158043 -0.993419,-0.225777 -1.015997,-0.248356 -1.941687,-0.361243 -2.73191,-0.361243 -1.648176,0 -2.754487,0.632177 -3.318931,1.91911 -0.158044,0.383821 -0.248356,0.69991 -0.248356,0.993421 0,0.745066 0.587022,1.51271 1.332089,1.51271 0.587022,0 0.880533,-0.316087 0.880533,-0.948264 -0.04516,-0.474134 -0.270933,-0.699913 -0.654755,-0.699913 -0.2032,0 -0.722489,0.135467 -0.925689,0.135467 -0.158044,0 -0.225778,-0.09031 -0.225778,-0.248354 0,-0.158046 0.06773,-0.383823 0.180622,-0.677334 0.180623,-0.248356 0.519289,-0.383823 1.038578,-0.383823 0.451555,0 0.925688,0.09031 1.4224,0.248357 0.767643,0.248354 1.151466,0.38382 1.151466,0.38382 0.564444,0.158046 1.038577,0.248357 1.467554,0.248357 0.564444,0 1.490133,-0.248357 2.73191,-0.745067 l 0.04516,0.09031 c -1.038576,0.699913 -1.693333,1.174046 -1.941689,1.399823 -1.038577,0.880534 -1.625597,1.964267 -1.783644,3.296354 -0.519287,-0.2032 -0.99342,-0.29351 -1.444977,-0.29351 -0.69991,0 -1.241776,0.248354 -1.670754,0.722487 1.738488,0 2.912531,0.993423 2.912531,2.709333 -0.58702,-0.248356 -1.151466,-0.361243 -1.670753,-0.361243 -0.564445,0 -1.038578,0.18062 -1.444978,0.541864 1.603021,0.293513 2.731911,0.948266 3.431821,1.941689 0.383823,0.541867 0.564444,1.264354 0.564444,2.167467 0,0.654754 -0.225777,1.083731 -0.677334,1.264354 l -0.519287,0.06773 c -0.293513,0 -0.767646,-0.06773 -1.377243,-0.180623 -0.609601,-0.112887 -1.061157,-0.18062 -1.377245,-0.18062 -1.4224,0 -2.302933,0.925687 -2.641599,2.754487 l 0.09031,0.02257 c 0.4064,-0.745065 0.835377,-1.128885 1.30951,-1.128885 l 0.383822,0.06773 c 1.399822,0.474133 2.348088,0.69991 2.822221,0.69991 1.061157,0 2.257777,-0.587023 3.612444,-1.783643 1.151466,-0.993424 1.941687,-2.054577 2.348087,-3.183467 0.361243,-0.970844 0.519289,-2.167464 0.496709,-3.544708 l -0.06773,-3.770487 c -0.02257,-2.054577 0.51929,-3.34151 2.032,-4.718753 z m -1.60302,0.8128 c -0.90311,0.88053 -1.53529,1.761064 -1.896533,2.59644 -0.338667,0.83538 -0.51929,1.873957 -0.51929,3.16089 v 4.154308 c 0,1.535289 -0.2032,2.686756 -0.632177,3.43182 -0.541866,0.92569 -1.51271,1.53529 -2.889954,1.783644 l -0.02257,-0.09031 c 0.993421,-0.428976 1.648177,-1.061153 1.986844,-1.873953 0.225777,-0.564444 0.338667,-1.4224 0.338667,-2.619021 v -5.396087 c 0,-2.167466 1.219197,-3.883377 3.63502,-5.14773 z m 8.489214,12.011371 V 85.46387 c -0.970844,-0.135466 -2.167467,-0.654754 -3.589867,-1.580443 -0.925687,0.857956 -1.986843,1.467556 -3.20604,1.806223 v 5.35093 c 0,0.835377 -0.2032,1.399821 -0.6096,1.738488 1.51271,0.316089 2.867376,0.903112 4.063997,1.783643 0.880533,-0.745067 1.986843,-1.332087 3.34151,-1.738487 z m -2.12231,-0.04516 c -0.248357,-0.06773 -0.587023,-0.180617 -0.993423,-0.338663 -0.564444,-0.2032 -1.10631,-0.428977 -1.603021,-0.632177 V 85.57676 l 2.596444,0.993423 z m 12.711263,0.112889 -0.225777,-0.225777 -0.4064,0.270934 C 40.315961,92.688757 40.090184,92.46298 40.090184,92.214624 V 85.77996 l 0.654754,-0.564444 -1.670754,-1.332089 -1.603021,1.332089 0.541867,0.677334 v 5.66702 l -1.8288,1.30951 c -0.541867,-0.293512 -0.8128,-0.654756 -0.8128,-1.083733 V 85.77996 l 0.677333,-0.541867 -1.71591,-1.332087 -2.167466,1.670754 0.225776,0.248356 0.51929,-0.316089 0.4064,0.383823 v 5.96053 c 0,1.128888 0.474134,2.009421 1.4224,2.619021 l 3.228621,-2.302933 c 0,0.948266 0.474133,1.738489 1.4224,2.393243 z m 9.008504,-9.595551 c 0,-0.564443 -0.225777,-0.835377 -0.677333,-0.835377 -0.361244,0 -0.541864,0.112888 -0.541864,0.361244 l 0.112887,0.2032 c 0.338667,0.428977 0.49671,0.69991 0.49671,0.857954 0,0.428979 -0.428977,0.790223 -0.857954,0.790223 l -0.587023,0.06773 c -0.69991,0 -1.648177,-0.31609 -2.889954,-0.92569 -0.835376,0.790223 -1.761066,1.4224 -2.777063,1.873957 v 3.476977 l 2.167463,1.19662 -2.686753,3.838221 0.29351,0.2032 c 0.790223,-0.338667 1.53529,-0.51929 2.280356,-0.51929 0.745064,0 1.512711,0.2032 2.280354,0.587023 0.632177,-0.428977 1.083733,-0.69991 1.332087,-0.857954 0.474134,-0.293513 0.970846,-0.51929 1.467557,-0.677333 v -4.15431 l -2.122311,-1.309511 2.054577,-2.777066 c 0.428977,-0.587021 0.654754,-1.061154 0.654754,-1.399821 z m -2.190043,2.686754 -2.190044,2.889954 -1.354664,-0.69991 0.02257,-2.596444 c 0.835377,0.338667 1.580444,0.49671 2.257777,0.49671 0.474133,0 0.90311,-0.02257 1.264354,-0.09031 z m -0.270934,3.770487 -0.02257,3.002844 c -0.835377,-0.4064 -1.648177,-0.6096 -2.4384,-0.6096 -0.564443,0 -1.061153,0.04516 -1.467553,0.135466 l 2.506133,-3.251197 z m 8.444082,-4.402664 V 84.199512 H 54.08837 L 54.0658,81.332136 51.13069,85.012312 51.10812,85.3284 h 0.790223 v 5.825066 c 0,0.654754 -0.2032,1.196621 -0.6096,1.625598 0.857956,0.293512 1.80622,0.880533 2.8448,1.71591 l 2.031997,-1.761064 -0.248354,-0.31609 -0.632179,0.49671 -1.196621,-0.99342 v -6.570131 z m 4.244615,-4.786487 h -1.670756 l -0.541867,2.302933 h 0.293513 z m 0.587021,12.304884 -0.225777,-0.2032 -0.4064,0.270934 c -0.361244,-0.180623 -0.564444,-0.42898 -0.632177,-0.72249 v -6.254041 l 0.564443,-0.632179 -1.738487,-1.444977 -1.670756,1.377246 0.654756,0.69991 v 5.892797 l -0.02257,0.4064 c -0.06773,0.970844 0.4064,1.738488 1.422398,2.280354 z m 9.979345,0.02257 -0.225777,-0.225777 -0.474134,0.270934 c -0.29351,-0.2032 -0.519289,-0.451557 -0.632177,-0.72249 v -5.937954 c 0.316088,-0.519287 0.654754,-0.99342 0.993421,-1.422397 L 70.63784,84.605906 69.666996,85.373549 68.10913,83.928572 c -0.654757,0.6096 -1.6256,1.399821 -2.889954,2.32551 0,-1.016 -0.474133,-1.80622 -1.4224,-2.370666 l -1.851377,1.693333 0.225777,0.248357 0.361244,-0.248357 c 0.361246,0.29351 0.541866,0.654757 0.541866,1.038577 v 5.802487 l -0.632177,0.69991 1.715911,1.444977 1.6256,-1.444977 -0.6096,-0.767643 v -5.599287 l 1.60302,-1.174044 1.016,0.880533 v 5.396087 c 0,1.354667 0.293513,2.009421 1.377244,2.709331 z m 9.798729,-6.344353 v -2.144887 l -1.693333,1.061153 -3.454397,-1.580443 c -0.970846,0.474133 -1.53529,0.745066 -1.670757,0.8128 -0.654753,0.293513 -1.241777,0.51929 -1.783643,0.632177 v 7.40551 l 2.099733,1.49013 -2.4384,2.777067 0.474134,0.4064 c 0.948266,-0.31609 1.828799,-0.474133 2.664176,-0.474133 0.767644,0 1.715911,0.158043 2.867377,0.474133 0.8128,-0.383823 1.2192,-0.587023 1.2192,-0.587023 0.970844,-0.474133 1.490131,-0.970844 1.557864,-1.490131 v -0.09031 c 0,-0.248353 -0.270933,-0.767643 -0.812797,-1.557864 -0.51929,-0.8128 -0.790223,-1.467556 -0.790223,-1.986846 v -5.418664 z m -3.770487,4.809066 -1.399823,1.422398 -1.444977,-0.970844 v -6.412087 l 2.8448,0.8128 z m 2.257777,4.425241 -0.04516,0.270933 c -1.286934,-0.4064 -2.483554,-0.6096 -3.589864,-0.6096 -0.83538,0 -1.467557,0.04516 -1.91911,0.135467 l 3.22862,-3.567287 c 0.09031,0.790223 0.361244,1.490133 0.8128,2.144887 0.270933,0.383823 0.767644,0.92569 1.51271,1.6256 z m 22.216457,-5.079997 -0.11289,-0.02257 c -0.97085,0.722487 -1.49013,1.10631 -1.58045,1.174043 -0.880527,0.587021 -1.806217,0.880534 -2.754484,0.880534 -0.248353,0 -0.835376,-0.11289 -1.083733,-0.11289 V 81.919163 c 1.083733,0.361243 2.12231,0.745066 3.093157,1.128887 l 1.94169,-2.12231 c -1.512714,0 -3.002847,-0.428977 -4.425247,-1.286934 l -4.380087,3.702754 v 5.37351 c 0,0.745067 -0.112887,1.332087 -0.316087,1.71591 -0.92569,-1.2192 -1.377244,-2.506133 -1.377244,-3.860797 0,-2.190043 0.903111,-4.018843 2.731908,-5.531554 -1.422397,0.474134 -2.528708,1.377244 -3.364087,2.731911 -0.767644,1.264353 -1.151467,2.686753 -1.151467,4.24462 0,1.332087 0.31609,2.551287 0.92569,3.63502 0.564444,0.970844 1.39982,1.738488 2.460977,2.280354 0.99342,0.474134 2.077154,0.72249 3.273777,0.72249 0.541866,0 1.038577,-0.04516 1.490133,-0.11289 1.964264,-0.31609 3.499554,-1.60302 4.628444,-3.83822 z m -6.073423,1.851377 c -1.377244,-0.338667 -2.460977,-0.970844 -3.251198,-1.896534 0.790221,-0.69991 1.354667,-1.28693 1.670754,-1.783643 0.4064,-0.654754 0.6096,-1.399821 0.6096,-2.280354 V 82.34814 l 0.970844,-0.790223 z m 13.885283,0.270933 v -7.360354 c -0.97084,-0.135466 -2.16746,-0.654753 -3.58986,-1.580443 -0.92569,0.857956 -1.98685,1.467556 -3.20605,1.806223 v 5.35093 c 0,0.835377 -0.2032,1.399821 -0.6096,1.738488 1.51271,0.316089 2.86738,0.903112 4.064,1.783643 0.88054,-0.745067 1.98685,-1.332087 3.34151,-1.738487 z m -2.12231,-0.04516 c -0.24835,-0.06773 -0.58702,-0.180621 -0.99342,-0.338667 -0.56444,-0.2032 -1.10631,-0.428977 -1.60302,-0.632177 v -6.231464 l 2.59644,0.993423 z m 17.70096,0.112889 -0.27094,-0.225777 -0.42897,0.270934 c -0.31609,-0.2032 -0.54187,-0.42898 -0.67734,-0.72249 v -5.937954 c 0.11289,-0.2032 0.29351,-0.451553 0.49671,-0.745066 0.15805,-0.2032 0.31609,-0.428977 0.49671,-0.677331 l -0.24835,-0.248356 -0.92569,0.767643 -1.53529,-1.444977 c -1.28693,1.061157 -2.25777,1.8288 -2.93511,2.32551 -0.22577,-0.90311 -0.69991,-1.693333 -1.44497,-2.370666 l -3.27378,2.393243 c 0,-1.08373 -0.49671,-1.873953 -1.46755,-2.393243 l -1.80623,1.693333 0.2032,0.248357 0.36124,-0.248357 c 0.38383,0.29351 0.56445,0.654757 0.56445,1.038577 v 5.802487 l -0.6096,0.69991 1.67076,1.444977 1.64817,-1.444977 -0.6096,-0.767643 v -5.508974 l 1.78365,-1.33209 c 0.6096,0.4064 0.90311,0.767643 0.90311,1.10631 v 5.802487 l -0.67733,0.69991 1.73848,1.444977 1.60303,-1.444977 -0.58703,-0.767643 v -5.599287 l 1.60302,-1.174044 0.97085,0.880533 v 5.396087 c 0,0.699911 0.0903,1.2192 0.27093,1.603021 0.2032,0.428977 0.58702,0.790223 1.15147,1.10631 z m 8.98594,-0.541866 v -5.012264 c 0,-1.783644 -0.74507,-2.93511 -2.25778,-3.4544 l -2.32551,2.190043 c -0.13546,-1.015997 -0.65475,-1.738487 -1.55786,-2.21262 l -1.89654,1.693333 0.24836,0.180621 0.54187,-0.338667 c 0.33866,0.2032 0.51928,0.654756 0.51928,1.33209 v 5.14773 c -0.54186,0.158044 -0.94826,0.293511 -1.19662,0.4064 v 0.654757 h 0.49671 c 0.24836,0 0.47414,0.02257 0.65476,0.09031 l 0.0452,1.490133 c 0.0226,0.880534 -0.24835,1.670754 -0.85795,2.415821 0.29351,-0.04516 0.58702,-0.158044 0.88053,-0.338667 0.15805,-0.11289 0.42898,-0.31609 0.76765,-0.6096 0.4064,0.451557 0.65475,0.72249 0.76764,0.790223 0.38382,0.338667 0.90311,0.541867 1.53529,0.632177 -0.45156,-0.6096 -0.74507,-1.12889 -0.85796,-1.51271 -0.18062,-0.541867 -0.24835,-1.061157 -0.2032,-1.53529 l 0.0677,-0.812797 c 0.83537,0.406397 1.46755,0.69991 1.89653,0.88053 0.65475,-0.58702 1.10631,-0.970843 1.30951,-1.128887 0.51929,-0.383823 0.99342,-0.69991 1.4224,-0.948266 z m -2.00942,0.383823 c -0.83538,-0.293513 -1.69333,-0.564446 -2.61902,-0.8128 v -5.17031 l 1.35466,-1.196621 c 0.54187,0.180621 1.26436,0.790221 1.26436,1.264354 z m 9.52781,-5.937954 -2.91253,-2.912533 c -0.99342,0.699913 -2.00942,1.309513 -3.048,1.783643 v 6.028264 c 0,0.654757 -0.2032,1.196623 -0.63218,1.64818 1.08373,0.2032 2.12231,0.58702 3.11573,1.128887 l 1.96427,-1.377244 c 0.45155,-0.316089 0.85795,-0.587023 1.24178,-0.835377 l -0.24836,-0.270933 -1.49013,0.948267 -1.89653,-0.83538 v -2.348087 c 0.97084,-0.835377 2.25777,-1.80622 3.90595,-2.957687 z m -1.78364,0.745067 -2.14489,1.693333 v -3.883377 z m 7.63124,-2.190044 v -1.151466 h -2.30293 l -0.0226,-2.867377 -2.93511,3.680177 -0.0226,0.316087 h 0.79022 v 5.825066 c 0,0.654754 -0.2032,1.196621 -0.6096,1.625598 0.85796,0.293512 1.80623,0.880533 2.8448,1.71591 l 2.032,-1.761064 -0.24835,-0.31609 -0.63218,0.49671 -1.19662,-0.99342 v -6.570131 z m 4.24462,-4.786487 h -1.67076 l -0.54186,2.302933 h 0.29351 z m 0.58702,12.304884 -0.22578,-0.2032 -0.4064,0.270934 c -0.36124,-0.180623 -0.56444,-0.42898 -0.63218,-0.72249 v -6.254041 l 0.56445,-0.632179 -1.73849,-1.444977 -1.67075,1.377246 0.65475,0.69991 v 5.892797 l -0.0226,0.4064 c -0.0677,0.970844 0.4064,1.738488 1.4224,2.280354 z m 5.89277,-7.518397 v -1.151466 h -2.30293 l -0.0226,-2.867377 -2.93511,3.680177 -0.0226,0.316087 h 0.79022 v 5.825066 c 0,0.654754 -0.2032,1.196621 -0.6096,1.625598 0.85795,0.293512 1.80622,0.880533 2.8448,1.71591 l 2.032,-1.761064 -0.24836,-0.31609 -0.63218,0.49671 -1.19662,-0.99342 v -6.570131 z m 4.24462,-4.786487 h -1.67076 l -0.54186,2.302933 h 0.29351 z m 0.58702,12.304884 -0.22578,-0.2032 -0.4064,0.270934 c -0.36124,-0.180623 -0.56444,-0.42898 -0.63217,-0.72249 v -6.254041 l 0.56444,-0.632179 -1.73849,-1.444977 -1.67075,1.377246 0.65475,0.69991 v 5.892797 l -0.0226,0.4064 c -0.0677,0.970844 0.4064,1.738488 1.4224,2.280354 z m 8.15055,-0.04516 v -7.360354 c -0.97084,-0.135466 -2.16747,-0.654753 -3.58987,-1.580443 -0.92568,0.857956 -1.98684,1.467556 -3.20604,1.806223 v 5.35093 c 0,0.835377 -0.2032,1.399821 -0.6096,1.738488 1.51271,0.316089 2.86738,0.903112 4.064,1.783643 0.88053,-0.745067 1.98684,-1.332087 3.34151,-1.738487 z m -2.12231,-0.04516 c -0.24836,-0.06773 -0.58702,-0.180621 -0.99342,-0.338667 -0.56445,-0.2032 -1.10631,-0.428977 -1.60302,-0.632177 v -6.231464 l 2.59644,0.993423 z m 12.68867,0.112889 -0.22577,-0.225777 -0.47414,0.270934 c -0.29351,-0.2032 -0.51929,-0.451557 -0.63218,-0.72249 v -5.937954 c 0.31609,-0.519287 0.65476,-0.99342 0.99343,-1.422397 l -0.22578,-0.248356 -0.97085,0.767643 -1.55786,-1.444977 c -0.65476,0.6096 -1.6256,1.399821 -2.88996,2.32551 0,-1.016 -0.47413,-1.80622 -1.42239,-2.370666 l -1.85138,1.693333 0.22578,0.248357 0.36124,-0.248357 c 0.36125,0.29351 0.54187,0.654757 0.54187,1.038577 v 5.802487 l -0.63218,0.69991 1.71591,1.444977 1.6256,-1.444977 -0.6096,-0.767643 v -5.599287 l 1.60302,-1.174044 1.016,0.880533 v 5.396087 c 0,1.354667 0.29351,2.009421 1.37724,2.709331 z"
       id="text1"
       style="font-size:85.3333px;font-family:'Old London Alternate';-inkscape-font-specification:'Old London Alternate, Normal';white-space:pre;stroke-width:0.600001"
       aria-label="Jousting Competition" />
  </g>
</svg>
