<?xml version="1.0" encoding="UTF-8" standalone="no"?>
<!-- Created with Inkscape (http://www.inkscape.org/) -->

<svg
   width="210mm"
   height="210mm"
   viewBox="0 0 210 210"
   version="1.1"
   id="svg1"
   inkscape:version="1.3 (0e150ed, 2023-07-21)"
   sodipodi:docname="purplebubble.svg"
   xmlns:inkscape="http://www.inkscape.org/namespaces/inkscape"
   xmlns:sodipodi="http://sodipodi.sourceforge.net/DTD/sodipodi-0.dtd"
   xmlns="http://www.w3.org/2000/svg"
   xmlns:svg="http://www.w3.org/2000/svg">
  <sodipodi:namedview
     id="namedview1"
     pagecolor="#ffffff"
     bordercolor="#000000"
     borderopacity="0.25"
     inkscape:showpageshadow="2"
     inkscape:pageopacity="0.0"
     inkscape:pagecheckerboard="0"
     inkscape:deskcolor="#d1d1d1"
     inkscape:document-units="mm"
     inkscape:zoom="0.29139076"
     inkscape:cx="803.04535"
     inkscape:cy="600.56811"
     inkscape:window-width="1680"
     inkscape:window-height="997"
     inkscape:window-x="0"
     inkscape:window-y="25"
     inkscape:window-maximized="0"
     inkscape:current-layer="layer1" />
  <defs
     id="defs1">
    <rect
       x="102.26345"
       y="152.20606"
       width="556.5034"
       height="482.77859"
       id="rect1" />
  </defs>
  <g
     inkscape:label="Layer 1"
     inkscape:groupmode="layer"
     id="layer1">
    <path
       style="font-size:176.389px;font-family:'HWT Artz';-inkscape-font-specification:'HWT Artz, Normal';stroke-width:0.6"
       d="m 57.781737,125.80823 c 0,0 2.116668,0.35278 6.526393,0.35278 9.877785,0 26.63474,-1.76389 32.279189,-13.75834 2.645835,-5.46806 5.468061,-18.697235 5.468061,-28.575019 0,-24.694461 -10.759732,-40.216694 -29.809744,-40.216694 H 33.969221 c -10.58334,0 -10.58334,7.055561 -10.58334,14.111121 v 97.013952 c 0,7.05556 0,14.11112 10.58334,14.11112 h 8.81945 c 10.583341,0 10.583341,-7.05556 10.583341,-14.11112 v -25.92918 c 0,-1.5875 0.176389,-2.99862 4.409725,-2.99862 z m 3.52778,-58.384757 c 7.937505,0 9.701396,9.701396 9.701396,17.638901 0,7.937505 -0.352778,15.698626 -9.701396,15.698626 -7.05556,0 -8.113894,-1.058338 -8.113894,-6.879176 0,-2.116668 0.176389,-5.29167 0.176389,-8.81945 0,-3.704169 -0.176389,-6.702782 -0.176389,-8.995839 0,-6.350005 1.058334,-8.643062 8.113894,-8.643062 z M 171.19975,100.93738 c 9.70139,-5.115276 13.93473,-15.522228 13.93473,-25.929179 0,-16.227789 -7.58473,-31.397244 -30.33891,-31.397244 h -37.92364 c -10.58334,0 -10.58334,7.055561 -10.58334,14.111121 v 97.013952 c 0,7.05556 0,14.11112 10.58334,14.11112 h 39.33475 c 11.46529,0 18.87362,-0.35278 27.51668,-16.22779 2.99862,-5.64444 4.76251,-12.52362 4.76251,-19.40279 0,-12.34723 -4.58612,-26.28196 -17.28612,-30.5153 -0.52917,-0.17638 -0.70556,-0.52916 -0.70556,-0.88194 0,-0.35278 0.17639,-0.70556 0.70556,-0.88195 z M 145.09417,67.423473 c 7.05556,0 8.81945,5.820838 8.81945,11.994453 0,6.173615 -1.76389,11.818063 -8.81945,11.818063 -8.81945,0 -8.81945,-2.998613 -8.81945,-11.818063 0,-8.819451 0,-11.994453 8.81945,-11.994453 z m 0.88195,46.213917 c 9.70139,0 9.70139,7.58473 9.70139,15.52224 0,7.9375 -0.88194,15.87501 -9.70139,15.87501 -9.7014,0 -9.7014,-5.29167 -9.7014,-15.87501 0,-10.58334 0,-15.52224 9.7014,-15.52224 z"
       id="text1"
       aria-label="PB" />
  </g>
</svg>
