<?xml version="1.0" encoding="UTF-8" standalone="no"?>
<!-- Created with Inkscape (http://www.inkscape.org/) -->

<svg
   width="210mm"
   height="210mm"
   viewBox="0 0 210 210"
   version="1.1"
   id="svg1"
   inkscape:version="1.3 (0e150ed, 2023-07-21)"
   sodipodi:docname="purplebubble.svg"
   xmlns:inkscape="http://www.inkscape.org/namespaces/inkscape"
   xmlns:sodipodi="http://sodipodi.sourceforge.net/DTD/sodipodi-0.dtd"
   xmlns="http://www.w3.org/2000/svg"
   xmlns:svg="http://www.w3.org/2000/svg">
  <sodipodi:namedview
     id="namedview1"
     pagecolor="#ffffff"
     bordercolor="#000000"
     borderopacity="0.25"
     inkscape:showpageshadow="2"
     inkscape:pageopacity="0.0"
     inkscape:pagecheckerboard="0"
     inkscape:deskcolor="#d1d1d1"
     inkscape:document-units="mm"
     inkscape:zoom="0.84096521"
     inkscape:cx="361.48939"
     inkscape:cy="354.35473"
     inkscape:window-width="1680"
     inkscape:window-height="997"
     inkscape:window-x="0"
     inkscape:window-y="25"
     inkscape:window-maximized="0"
     inkscape:current-layer="layer1" />
  <defs
     id="defs1">
    <rect
       x="102.26345"
       y="152.20606"
       width="556.5034"
       height="482.77859"
       id="rect1" />
  </defs>
  <g
     inkscape:label="Layer 1"
     inkscape:groupmode="layer"
     id="layer1">
    <path
       d="m 143.15967,282.95903 c 0,0 2.304,0.384 7.104,0.384 10.752,0 28.992,-1.92 35.136,-14.976 2.88,-5.952 5.952,-20.352 5.952,-31.104 0,-26.88 -11.712,-43.776 -32.448,-43.776 h -41.664 c -11.52,0 -11.52,7.68 -11.52,15.36 v 105.6 c 0,7.68 0,15.36 11.52,15.36 h 9.6 c 11.52,0 11.52,-7.68 11.52,-15.36 v -28.224 c 0,-1.728 0.192,-3.264 4.8,-3.264 z m 3.84,-63.552 c 8.64,0 10.56,10.56 10.56,19.2 0,8.64 -0.384,17.088 -10.56,17.088 -7.68,0 -8.832,-1.152 -8.832,-7.488 0,-2.304 0.192,-5.76 0.192,-9.6 0,-4.032 -0.192,-7.296 -0.192,-9.792 0,-6.912 1.152,-9.408 8.832,-9.408 z m 133.24787,-10.752 c 0,-7.488 0,-15.168 -11.52,-15.168 h -9.6 c -11.52,0 -11.52,7.68 -11.52,15.168 v 84.672 c 0,5.76 0,10.56 -8.64,10.56 -10.56,0 -10.56,-4.8 -10.56,-10.56 v -84.48 c 0,-7.68 0,-15.36 -11.52,-15.36 h -9.6 c -11.52,0 -11.52,7.68 -11.52,15.36 0,0 -0.192,19.968 -0.192,80.64 0,24.96 2.88,41.28 43.392,41.28 38.592,0 41.28,-16.128 41.28,-39.936 z m 18.04792,-15.168 c -11.52,0 -11.52,7.68 -11.52,15.36 v 105.6 c 0,7.68 0,15.36 7.68,15.36 h 13.44 c 11.52,0 11.52,-7.68 11.52,-15.36 v -27.264 c 0,-1.536 0,-4.608 1.536,-4.608 1.152,0 6.912,3.072 11.52,20.928 3.648,14.208 12.672,27.264 30.336,27.264 9.984,0 11.52,-3.456 11.52,-7.296 0,-5.76 0.192,-10.944 0.192,-15.168 0,-8.832 -0.96,-14.016 -7.104,-14.016 -0.576,0 -2.688,0.96 -6.144,0.96 -6.336,0 -8.832,-9.6 -8.832,-17.472 0,-7.296 3.456,-4.608 8.832,-9.216 10.944,-9.216 11.136,-18.048 11.136,-31.872 0,-22.656 -8.064,-43.2 -36.672,-43.2 z m 29.76,25.92 c 8.64,0 10.56,10.56 10.56,19.2 0,8.64 -1.92,17.088 -10.56,17.088 -7.68,0 -8.832,-1.152 -8.832,-7.488 0,-2.304 0.192,-5.76 0.192,-9.6 0,-4.032 -0.192,-8.448 -0.192,-10.944 0,-6.912 1.152,-8.256 8.832,-8.256 z m 89.27975,63.552 c 0,0 2.304,0.384 7.104,0.384 10.752,0 28.992,-1.92 35.136,-14.976 2.88,-5.952 5.952,-20.352 5.952,-31.104 0,-26.88 -11.712,-43.776 -32.448,-43.776 h -41.664 c -11.52,0 -11.52,7.68 -11.52,15.36 v 105.6 c 0,7.68 0,15.36 11.52,15.36 h 9.6 c 11.52,0 11.52,-7.68 11.52,-15.36 v -28.224 c 0,-1.728 0.192,-3.264 4.8,-3.264 z m 3.84,-63.552 c 8.64,0 10.56,10.56 10.56,19.2 0,8.64 -0.384,17.088 -10.56,17.088 -7.68,0 -8.832,-1.152 -8.832,-7.488 0,-2.304 0.192,-5.76 0.192,-9.6 0,-4.032 -0.192,-7.296 -0.192,-9.792 0,-6.912 1.152,-9.408 8.832,-9.408 z m 87.55187,82.944 c -5.952,-0.192 -5.952,-6.144 -5.952,-10.752 v -82.752 c 0,-7.68 0,-15.36 -11.52,-15.36 h -9.6 c -11.52,0 -11.52,7.68 -11.52,15.36 v 105.6 c 0,7.68 0,15.36 11.52,15.36 h 43.392 c 11.52,0 11.52,-7.68 11.52,-15.36 v -2.496 c 0,-5.76 -0.96,-9.984 -9.024,-9.984 -4.032,0 -8.64,0.384 -18.816,0.384 z m 64.8959,-21.12 c 0,-6.336 0,-9.024 6.144,-9.024 4.032,0 10.176,0.384 19.968,0.384 4.8,0 8.832,-0.384 8.832,-6.144 v -12.288 c 0,-2.112 -0.384,-8.832 -7.104,-8.832 -4.416,0 -6.336,0.384 -18.24,0.384 -9.6,0 -9.6,-3.264 -9.6,-15.744 0,-6.144 0,-9.984 10.56,-9.984 4.8,0 10.752,0.384 18.24,0.384 4.8,0 8.64,-0.192 8.64,-4.8 v -16.32 c 0,-3.84 -4.224,-5.76 -9.024,-5.76 h -49.536 c -11.52,0 -11.52,7.68 -11.52,15.36 v 105.6 c 0,3.84 0,15.36 11.52,15.36 h 50.688 c 5.76,0 7.68,-1.92 7.68,-7.68 v -13.44 c 0,-5.76 -2.496,-8.064 -10.56,-8.064 -4.032,0 -7.68,0.384 -18.624,0.384 -3.84,0 -7.68,-2.112 -8.064,-6.336 z"
       id="text1"
       style="font-size:192px;font-family:'HWT Artz';-inkscape-font-specification:'HWT Artz, Normal';white-space:pre;stroke-width:2.26772"
       transform="matrix(0.26458333,0,0,0.26458333,7.5508475,-0.94385593)"
       aria-label="Purple" />
    <path
       style="font-size:50.8px;font-family:'HWT Artz';-inkscape-font-specification:'HWT Artz, Normal';stroke-width:0.6"
       d="m 52.623955,111.82367 c 2.794,-1.4732 4.0132,-4.4704 4.0132,-7.4676 0,-4.673605 -2.1844,-9.042405 -8.7376,-9.042405 h -10.922 c -3.048,0 -3.048,2.032 -3.048,4.064 v 27.940005 c 0,2.032 0,4.064 3.048,4.064 h 11.3284 c 3.302,0 5.4356,-0.1016 7.9248,-4.6736 0.8636,-1.6256 1.3716,-3.6068 1.3716,-5.588 0,-3.556 -1.3208,-7.5692 -4.9784,-8.7884 -0.1524,-0.0508 -0.2032,-0.1524 -0.2032,-0.254 0,-0.1016 0.0508,-0.2032 0.2032,-0.254 z m -7.5184,-9.652 c 2.032,0 2.54,1.6764 2.54,3.4544 0,1.778 -0.508,3.4036 -2.54,3.4036 -2.54,0 -2.54,-0.8636 -2.54,-3.4036 0,-2.54 0,-3.4544 2.54,-3.4544 z m 0.254,13.3096 c 2.794,0 2.794,2.1844 2.794,4.4704 0,2.286 -0.254,4.572 -2.794,4.572 -2.794,0 -2.794,-1.524 -2.794,-4.572 0,-3.048 0,-4.4704 2.794,-4.4704 z M 81.478342,99.326865 c 0,-1.9812 0,-4.0132 -3.048,-4.0132 h -2.54 c -3.048,0 -3.048,2.032 -3.048,4.0132 v 22.402805 c 0,1.524 0,2.794 -2.286,2.794 -2.793999,0 -2.793999,-1.27 -2.793999,-2.794 V 99.377665 c 0,-2.032 0,-4.064 -3.048,-4.064 h -2.54 c -3.048,0 -3.048,2.032 -3.048,4.064 0,0 -0.0508,5.283205 -0.0508,21.336005 0,6.604 0.762,10.922 11.480799,10.922 10.2108,0 10.922,-4.2672 10.922,-10.5664 z m 20.421578,12.496805 c 2.794,-1.4732 4.0132,-4.4704 4.0132,-7.4676 0,-4.673605 -2.1844,-9.042405 -8.737602,-9.042405 h -10.922 c -3.048,0 -3.048,2.032 -3.048,4.064 v 27.940005 c 0,2.032 0,4.064 3.048,4.064 h 11.3284 c 3.302002,0 5.435602,-0.1016 7.924802,-4.6736 0.8636,-1.6256 1.3716,-3.6068 1.3716,-5.588 0,-3.556 -1.3208,-7.5692 -4.9784,-8.7884 -0.1524,-0.0508 -0.2032,-0.1524 -0.2032,-0.254 0,-0.1016 0.0508,-0.2032 0.2032,-0.254 z m -7.518402,-9.652 c 2.032,0 2.54,1.6764 2.54,3.4544 0,1.778 -0.508,3.4036 -2.54,3.4036 -2.54,0 -2.54,-0.8636 -2.54,-3.4036 0,-2.54 0,-3.4544 2.54,-3.4544 z m 0.254,13.3096 c 2.794,0 2.794,2.1844 2.794,4.4704 0,2.286 -0.254,4.572 -2.794,4.572 -2.794,0 -2.794,-1.524 -2.794,-4.572 0,-3.048 0,-4.4704 2.794,-4.4704 z m 32.511992,-3.6576 c 2.794,-1.4732 4.0132,-4.4704 4.0132,-7.4676 0,-4.673605 -2.1844,-9.042405 -8.7376,-9.042405 h -10.922 c -3.048,0 -3.048,2.032 -3.048,4.064 v 27.940005 c 0,2.032 0,4.064 3.048,4.064 h 11.3284 c 3.302,0 5.4356,-0.1016 7.9248,-4.6736 0.8636,-1.6256 1.3716,-3.6068 1.3716,-5.588 0,-3.556 -1.3208,-7.5692 -4.9784,-8.7884 -0.1524,-0.0508 -0.2032,-0.1524 -0.2032,-0.254 0,-0.1016 0.0508,-0.2032 0.2032,-0.254 z m -7.5184,-9.652 c 2.032,0 2.54,1.6764 2.54,3.4544 0,1.778 -0.508,3.4036 -2.54,3.4036 -2.54,0 -2.54,-0.8636 -2.54,-3.4036 0,-2.54 0,-3.4544 2.54,-3.4544 z m 0.254,13.3096 c 2.794,0 2.794,2.1844 2.794,4.4704 0,2.286 -0.254,4.572 -2.794,4.572 -2.794,0 -2.794,-1.524 -2.794,-4.572 0,-3.048 0,-4.4704 2.794,-4.4704 z m 24.02839,8.636 c -1.5748,-0.0508 -1.5748,-1.6256 -1.5748,-2.8448 V 99.377665 c 0,-2.032 0,-4.064 -3.048,-4.064 h -2.54 c -3.048,0 -3.048,2.032 -3.048,4.064 v 27.940005 c 0,2.032 0,4.064 3.048,4.064 h 11.4808 c 3.048,0 3.048,-2.032 3.048,-4.064 v -0.6604 c 0,-1.524 -0.254,-2.6416 -2.3876,-2.6416 -1.0668,0 -2.286,0.1016 -4.9784,0.1016 z m 17.17037,-5.588 c 0,-1.6764 0,-2.3876 1.6256,-2.3876 1.0668,0 2.6924,0.1016 5.2832,0.1016 1.27,0 2.3368,-0.1016 2.3368,-1.6256 v -3.2512 c 0,-0.5588 -0.1016,-2.3368 -1.8796,-2.3368 -1.1684,0 -1.6764,0.1016 -4.826,0.1016 -2.54,0 -2.54,-0.8636 -2.54,-4.1656 0,-1.6256 0,-2.6416 2.794,-2.6416 1.27,0 2.8448,0.1016 4.826,0.1016 1.27,0 2.286,-0.0508 2.286,-1.27 v -4.318005 c 0,-1.016 -1.1176,-1.524 -2.3876,-1.524 h -13.1064 c -3.048,0 -3.048,2.032 -3.048,4.064 v 27.940005 c 0,1.016 0,4.064 3.048,4.064 h 13.4112 c 1.524,0 2.032,-0.508 2.032,-2.032 v -3.556 c 0,-1.524 -0.6604,-2.1336 -2.794,-2.1336 -1.0668,0 -2.032,0.1016 -4.9276,0.1016 -1.016,0 -2.032,-0.5588 -2.1336,-1.6764 z"
       id="text2"
       aria-label="Bubble" />
  </g>
</svg>
